<?xml version="1.0" encoding="utf-8"?>
<!-- Generator: Adobe Illustrator 17.1.0, SVG Export Plug-In . SVG Version: 6.00 Build 0)  -->
<!DOCTYPE svg PUBLIC "-//W3C//DTD SVG 1.1//EN" "http://www.w3.org/Graphics/SVG/1.1/DTD/svg11.dtd" [
	<!ENTITY ns_extend "http://ns.adobe.com/Extensibility/1.0/">
	<!ENTITY ns_ai "http://ns.adobe.com/AdobeIllustrator/10.0/">
	<!ENTITY ns_graphs "http://ns.adobe.com/Graphs/1.0/">
	<!ENTITY ns_vars "http://ns.adobe.com/Variables/1.0/">
	<!ENTITY ns_imrep "http://ns.adobe.com/ImageReplacement/1.0/">
	<!ENTITY ns_sfw "http://ns.adobe.com/SaveForWeb/1.0/">
	<!ENTITY ns_custom "http://ns.adobe.com/GenericCustomNamespace/1.0/">
	<!ENTITY ns_adobe_xpath "http://ns.adobe.com/XPath/1.0/">
]>
<svg version="1.1" id="图层_1" xmlns:x="&ns_extend;" xmlns:i="&ns_ai;" xmlns:graph="&ns_graphs;"
	 xmlns="http://www.w3.org/2000/svg" xmlns:xlink="http://www.w3.org/1999/xlink" x="0px" y="0px" width="30px" height="30px"
	 viewBox="0 0 30 30" enable-background="new 0 0 30 30" xml:space="preserve">
<metadata>
	<sfw  xmlns="&ns_sfw;">
		<slices></slices>
		<sliceSourceBounds  height="30" width="30" x="22" y="23" bottomLeftOrigin="true"></sliceSourceBounds>
	</sfw>
</metadata>
<g id="DO_NOT_EDIT_-_BOUNDING_BOX">
	<rect id="BOUNDING_BOX" fill="none" width="30" height="30"/>
</g>
<path opacity="0.15" enable-background="new    " d="M15,2C7.82,2,2,7.82,2,15s5.82,13,13,13s13-5.82,13-13S22.18,2,15,2z M17,24
	c0,0.551-0.451,1-1,1h-2c-0.55,0-1-0.449-1-1v-9c0-0.549-0.45-1-1-1h-1c-0.55,0-1-0.449-1-1c0-0.549,0.45-1,1-1h5
	c0.549,0,1,0.451,1,1V24z M15.001,10c-1.38,0-2.501-1.121-2.501-2.5S13.621,5,15.001,5S17.5,6.121,17.5,7.5S16.381,10,15.001,10z"/>
<path fill="#FFFFFF" d="M15,3C7.82,3,2,8.82,2,16s5.82,13,13,13s13-5.82,13-13S22.18,3,15,3z M17,25c0,0.551-0.451,1-1,1h-2
	c-0.55,0-1-0.449-1-1v-9c0-0.549-0.45-1-1-1h-1c-0.55,0-1-0.449-1-1c0-0.549,0.45-1,1-1h5c0.549,0,1,0.451,1,1V25z M15.001,11
	c-1.38,0-2.501-1.121-2.501-2.5S13.621,6,15.001,6S17.5,7.121,17.5,8.5S16.381,11,15.001,11z"/>
<linearGradient id="SVGID_1_" gradientUnits="userSpaceOnUse" x1="15" y1="28" x2="15" y2="2">
	<stop  offset="0" style="stop-color:#636363"/>
	<stop  offset="1" style="stop-color:#000000"/>
</linearGradient>
<path fill="url(#SVGID_1_)" d="M15,2C7.82,2,2,7.82,2,15s5.82,13,13,13s13-5.82,13-13S22.18,2,15,2z M17,24c0,0.551-0.451,1-1,1h-2
	c-0.55,0-1-0.449-1-1v-9c0-0.549-0.45-1-1-1h-1c-0.55,0-1-0.449-1-1c0-0.549,0.45-1,1-1h5c0.549,0,1,0.451,1,1V24z M15.001,10
	c-1.38,0-2.501-1.121-2.501-2.5S13.621,5,15.001,5S17.5,6.121,17.5,7.5S16.381,10,15.001,10z"/>
</svg>
