<?xml version="1.0" encoding="utf-8"?>
<!-- Generator: Adobe Illustrator 17.1.0, SVG Export Plug-In . SVG Version: 6.00 Build 0)  -->
<!DOCTYPE svg PUBLIC "-//W3C//DTD SVG 1.1//EN" "http://www.w3.org/Graphics/SVG/1.1/DTD/svg11.dtd">
<svg version="1.1" id="图层_1" xmlns="http://www.w3.org/2000/svg" xmlns:xlink="http://www.w3.org/1999/xlink" x="0px" y="0px"
	 width="30px" height="30px" viewBox="0 0 30 30" enable-background="new 0 0 30 30" xml:space="preserve">
<rect fill="none" width="30" height="30"/>
<path fill-opacity="0.3" d="M25.792,12h-15l5.293-5.293c0.389-0.389,0.389-1.025,0-1.414l-1.586-1.586
	c-0.389-0.389-1.025-0.389-1.414,0l-9.586,9.586c-0.389,0.389-0.389,1.025,0,1.414l9.586,9.586c0.389,0.389,1.025,0.389,1.414,0
	l1.586-1.586c0.389-0.389,0.389-1.025,0-1.414L10.792,16h15c0.549,0,1-0.449,1-1v-2C26.792,12.45,26.341,12,25.792,12z"/>
<path fill-opacity="0.15" d="M13.792,26.584c-0.535,0-1.037-0.207-1.414-0.583l-9.586-9.587c-0.78-0.78-0.78-2.048,0-2.828L12.378,4
	c0.377-0.377,0.879-0.585,1.414-0.585S14.829,3.623,15.206,4l1.586,1.586c0.779,0.78,0.779,2.048,0.001,2.828L13.206,12h12.586
	c1.103,0,2,0.897,2,2v2c0,1.103-0.897,2-2,2H13.206l3.586,3.586c0.78,0.779,0.78,2.049,0,2.828L15.206,26
	C14.829,26.377,14.327,26.584,13.792,26.584z"/>
<path fill="#F5F5F5" d="M25.792,13h-15l5.293-5.293c0.389-0.389,0.389-1.025,0-1.414l-1.586-1.586c-0.389-0.389-1.025-0.389-1.414,0
	l-9.586,9.586c-0.389,0.389-0.389,1.025,0,1.414l9.586,9.586c0.389,0.389,1.025,0.389,1.414,0l1.586-1.586
	c0.389-0.389,0.389-1.025,0-1.414L10.792,17h15c0.549,0,1-0.449,1-1v-2C26.792,13.45,26.341,13,25.792,13z"/>
</svg>
