<?xml version="1.0" encoding="utf-8"?>
<!-- Generator: Adobe Illustrator 17.1.0, SVG Export Plug-In . SVG Version: 6.00 Build 0)  -->
<!DOCTYPE svg PUBLIC "-//W3C//DTD SVG 1.1//EN" "http://www.w3.org/Graphics/SVG/1.1/DTD/svg11.dtd">
<svg version="1.1" id="图层_1" xmlns="http://www.w3.org/2000/svg" xmlns:xlink="http://www.w3.org/1999/xlink" x="0px" y="0px"
	 width="30px" height="30px" viewBox="0 0 30 30" enable-background="new 0 0 30 30" xml:space="preserve">
<rect fill="none" width="30" height="30"/>
<path fill="#FFFFFF" d="M25.792,14h-15l5.293-5.293c0.389-0.389,0.389-1.025,0-1.414l-1.586-1.586c-0.389-0.389-1.025-0.389-1.414,0
	l-9.586,9.586c-0.389,0.389-0.389,1.025,0,1.414l9.586,9.586c0.389,0.389,1.025,0.389,1.414,0l1.586-1.586
	c0.389-0.389,0.389-1.025,0-1.414L10.792,18h15c0.549,0,1-0.449,1-1v-2C26.792,14.45,26.341,14,25.792,14z"/>
<linearGradient id="SVGID_1_" gradientUnits="userSpaceOnUse" x1="-564.04" y1="457.34" x2="-564.04" y2="479.5788" gradientTransform="matrix(1 0 0 -1 579.04 484.34)">
	<stop  offset="0" style="stop-color:#636363"/>
	<stop  offset="1" style="stop-color:#000000"/>
</linearGradient>
<path fill="url(#SVGID_1_)" d="M25.792,13h-15l5.293-5.293c0.389-0.389,0.389-1.025,0-1.414l-1.586-1.586
	c-0.389-0.389-1.025-0.389-1.414,0l-9.586,9.586c-0.389,0.389-0.389,1.025,0,1.414l9.586,9.586c0.389,0.389,1.025,0.389,1.414,0
	l1.586-1.586c0.389-0.389,0.389-1.025,0-1.414L10.792,17h15c0.549,0,1-0.449,1-1v-2C26.792,13.45,26.341,13,25.792,13z"/>
</svg>
