<?xml version="1.0" encoding="utf-8"?>
<!-- Generator: Adobe Illustrator 17.1.0, SVG Export Plug-In . SVG Version: 6.00 Build 0)  -->
<!DOCTYPE svg PUBLIC "-//W3C//DTD SVG 1.1//EN" "http://www.w3.org/Graphics/SVG/1.1/DTD/svg11.dtd">
<svg version="1.1" id="图层_1" xmlns="http://www.w3.org/2000/svg" xmlns:xlink="http://www.w3.org/1999/xlink" x="0px" y="0px"
	 width="96px" height="96px" viewBox="0 0 96 96" enable-background="new 0 0 96 96" xml:space="preserve">
<rect fill="none" width="96" height="96"/>
<path fill-opacity="0.4" d="M88,49c0,29.6-10.4,40-40,40S8,78.6,8,49S18.4,9,48,9C77.7,9,88,19.4,88,49z"/>
<linearGradient id="SVGID_1_" gradientUnits="userSpaceOnUse" x1="25.6602" y1="-13.96" x2="25.6602" y2="-93.96" gradientTransform="matrix(1 0 0 -1 22.3398 -5.96)">
	<stop  offset="0" style="stop-color:#FAFAFA"/>
	<stop  offset="0.3317" style="stop-color:#F1F1F1"/>
	<stop  offset="0.8711" style="stop-color:#D9D9D9"/>
	<stop  offset="1" style="stop-color:#D2D2D2"/>
</linearGradient>
<path fill="url(#SVGID_1_)" d="M8,48c0,29.6,10.4,40,40,40s40-10.4,40-40c0-29-9.9-39.5-38.1-40h-3.8C17.9,8.5,8,19,8,48z"/>
<linearGradient id="SVGID_2_" gradientUnits="userSpaceOnUse" x1="25.6602" y1="-13.96" x2="25.6602" y2="-93.96" gradientTransform="matrix(1 0 0 -1 22.3398 -5.96)">
	<stop  offset="0" style="stop-color:#FFFFFF"/>
	<stop  offset="0.2292" style="stop-color:#FBFBFB"/>
	<stop  offset="0.4667" style="stop-color:#F0EFEE"/>
	<stop  offset="0.7079" style="stop-color:#DCDBDA"/>
	<stop  offset="0.9504" style="stop-color:#C1C0BD"/>
	<stop  offset="1" style="stop-color:#BBB9B6"/>
</linearGradient>
<path fill="url(#SVGID_2_)" fill-opacity="0.8" d="M48,8C18.4,8,8,18.4,8,48s10.4,40,40,40s40-10.4,40-40S77.6,8,48,8z M48,87
	C18.8,87,9,77.2,9,48S18.8,9,48,9s39,9.8,39,39S77.2,87,48,87z"/>
<path opacity="0.5" fill="#FFFFFF" d="M48,75.154c-14.421,0-26.154-11.732-26.154-26.154c0-14.421,11.733-26.154,26.154-26.154
	c14.422,0,26.154,11.733,26.154,26.154C74.154,63.422,62.422,75.154,48,75.154z M39.065,68.161c0.099,0,0.227-0.032,0.36-0.098
	c0.261-0.128,0.262-0.183,0.265-0.413c0.005-0.164,0.01-0.32,0.058-0.508c0.053-0.211,0.053-0.49,0.053-0.76
	c-0.005-0.328-0.011-0.633,0.058-0.902c0.074-0.264,0.175-0.482,0.285-0.708c0.082-0.172,0.168-0.347,0.234-0.545l0.127-0.373
	c0.276-0.854,0.661-2.044,1.36-2.737c0.226-0.232,0.513-0.4,0.835-0.579c0.53-0.301,0.869-0.521,1.033-1.017
	c0.08-0.245,0.083-0.513,0.087-0.797c0-0.319,0-0.694,0.161-1.058c0.078-0.2,0.186-0.437,0.294-0.675l0.084-0.186
	c0.817-1.785,1.21-2.949-0.166-4.2c-0.341-0.313-0.824-0.595-1.479-0.866c-0.947-0.392-2.055-0.663-2.946-0.881l-0.292-0.075
	c-0.214-0.054-0.417-0.105-0.601-0.158c-0.334-0.089-0.702-0.136-1.077-0.136c-1.119,0-2.132,0.403-2.71,1.08
	c-0.429,0.503-0.587,1.126-0.469,1.85c0.156,1.003,0.873,1.59,1.632,2.212c0.756,0.62,1.509,1.237,1.806,2.239
	c0.39,1.313,0.147,2.688-0.068,3.902c-0.056,0.319-0.105,0.599-0.142,0.864c-0.192,1.262,0.085,3.003,0.269,4.155
	c0.086,0.536,0.275,0.978,0.519,1.21l0.347,0.153L39.065,68.161z M56.746,57.127c0.216,0.61,0.509,0.9,0.884,0.9
	c0.846,0,2.227-1.425,3.079-3.177c0.012-0.024,0.024-0.048,0.039-0.071c0.516-1.173,1.074-1.717,1.615-2.243l0.085-0.085
	c0.182-0.181,0.366-0.364,0.55-0.57c1.408-1.579,1.863-2.785,1.872-4.961l0.009-0.463c0.021-0.653,0.029-0.918-0.414-1.374
	c-0.325-0.332-0.812-0.54-1.281-0.741c-0.592-0.244-1.124-0.485-1.539-0.927c-1.027-1.073-1.242-2.623-1.279-3.45
	c-0.05-1.05,0.093-1.672,0.461-2.015c0.107-0.099,0.235-0.174,0.374-0.219c0.1-0.032,0.242-0.052,0.347-0.052
	c0.505,0,1.071,0.165,1.894,0.55c0.135,0.057,0.298,0.135,0.459,0.213l0.36,0.173c0.381,0.184,0.765,0.372,1.186,0.529
	c0.161,0.055,0.36,0.117,0.571,0.181c0.331,0.102,0.674,0.206,0.986,0.336c-2.232-4.534-5.959-8.098-10.583-10.107l-0.063,0.05
	c-0.146,0.144-0.28,0.416-0.421,0.704c-0.224,0.489-0.398,0.78-0.708,0.959c-0.122,0.071-0.258,0.115-0.397,0.13
	c-1.347,0.142-1.406,0.401-1.407,0.403c-0.004,0.025,0,0.368,1.891,1.25c0.34,0.162,0.649,0.263,0.949,0.361l0.102,0.034
	c1.068,0.334,1.565,0.634,1.788,2.084c0.126,0.837,0.012,1.449-0.351,1.875c-0.512,0.589-1.396,0.657-2.018,0.657
	c-0.508,0-1.046-0.051-1.566-0.1l-1.32-0.114c-0.253-0.023-0.48-0.045-0.695-0.045c-0.582,0-1.093,0.134-1.839,0.8
	c-1.113,1.004-1.795,2.005-1.82,2.673c-0.057,1.608,0.993,2.249,2.6,3.042c0.729,0.359,1.35,0.664,1.845,1.1
	c0.428,0.395,0.694,0.941,0.951,1.469c0.174,0.364,0.322,0.675,0.5,0.916c0.384,0.553,0.663,0.928,1.176,1.316
	c0.197,0.146,0.427,0.252,0.664,0.355c0.524,0.235,1.058,0.475,1.282,1.194c0.274,0.881-0.157,2.005-0.505,2.908
	c-0.083,0.214-0.146,0.38-0.195,0.521c-0.346,1.005-0.244,1.904-0.137,2.856L56.746,57.127z M27.27,50.328
	c0.766,0.471,1.066,0.655,1.861,0.655c0.209,0,0.454-0.013,0.738-0.04c1.218-0.122,2.342-0.321,2.406-0.958
	c0.062-0.627-0.768-1.364-1.57-2.076c-1.141-1.014-1.813-1.677-1.693-2.485c0.052-0.481,0.467-0.927,1.263-1.328
	c0.694-0.337,1.416-0.457,2.114-0.572c0.865-0.135,1.751-0.274,2.495-0.855c0.828-0.645,1.436-1.402,2.079-2.204
	c1.115-1.394,2.146-2.684,4.15-3.194c0.264-0.061,0.625-0.108,1.249-0.181c1.433-0.178,4.115-0.51,4.668-1.315
	c0.091-0.13,0.114-0.259,0.077-0.409c-0.126-0.517-2.265-1.312-5.956-1.475l-0.189-0.001c-0.815,0-1.561,0.172-2.349,0.354
	l-0.19,0.044c-0.254,0.061-0.512,0.121-0.777,0.173c-0.605,0.122-1.222,0.188-1.776,0.188c-1.17,0-2.08-0.275-2.653-0.799
	c-4.133,4.029-6.409,9.4-6.409,15.149c0,0.312,0.016,0.614,0.038,0.916l0.013,0.182L27.27,50.328z"/>
<path opacity="0.5" fill="#FFFFFF" d="M48,23.846c-13.873,0-25.154,11.286-25.154,25.154c0,13.873,11.282,25.154,25.154,25.154
	c13.868,0,25.154-11.282,25.154-25.154C73.154,35.132,61.868,23.846,48,23.846 M29.966,51.938c-0.321,0.031-0.598,0.045-0.835,0.045
	c-1.08,0-1.586-0.312-2.35-0.782l-0.424-0.237c-0.277-0.103-0.469-0.358-0.487-0.652l-0.023-0.326
	c-0.023-0.326-0.04-0.652-0.04-0.987c0-6.106,2.453-11.809,6.905-16.052c0.138-0.129,0.321-0.201,0.509-0.201h0.045
	c0.201,0.009,0.393,0.107,0.523,0.26c0.349,0.415,1.09,0.644,2.081,0.644c0.501,0,1.059-0.063,1.586-0.169
	c0.3-0.058,0.59-0.129,0.876-0.197c0.831-0.192,1.68-0.393,2.631-0.393h0.192c0.263,0.014,6.431,0.223,6.923,2.233
	c0.107,0.429,0.031,0.853-0.223,1.219c-0.75,1.09-2.97,1.443-5.377,1.741c-0.504,0.058-0.907,0.107-1.117,0.157
	c-1.684,0.429-2.573,1.546-3.604,2.836c-0.656,0.818-1.331,1.661-2.256,2.381c-0.938,0.733-2.005,0.907-2.948,1.054
	c-0.652,0.107-1.277,0.21-1.827,0.478c-0.549,0.277-0.715,0.496-0.724,0.581c-0.049,0.335,0.835,1.117,1.362,1.586
	c0.991,0.88,2.019,1.791,1.907,2.93C33.113,51.631,31.077,51.828,29.966,51.938 M45.271,57.219
	c-0.129,0.286-0.263,0.567-0.375,0.853c-0.075,0.169-0.075,0.402-0.075,0.665c-0.005,0.33-0.009,0.705-0.138,1.099
	c-0.295,0.893-0.96,1.273-1.497,1.577c-0.241,0.134-0.469,0.263-0.616,0.415c-0.518,0.513-0.853,1.532-1.117,2.35l-0.125,0.366
	c-0.08,0.241-0.183,0.455-0.281,0.661c-0.085,0.174-0.166,0.34-0.218,0.527c-0.035,0.138-0.031,0.375-0.026,0.607
	c0,0.33,0.005,0.701-0.085,1.054c-0.023,0.089-0.023,0.169-0.026,0.272c-0.005,0.317-0.018,0.902-0.831,1.3
	c-0.268,0.129-0.541,0.197-0.813,0.197c-0.031,0-0.178-0.009-0.21-0.014c-0.075-0.009-0.152-0.026-0.223-0.063l-0.492-0.237
	c-0.063-0.035-0.12-0.075-0.174-0.12c-0.549-0.523-0.745-1.326-0.818-1.778c-0.206-1.291-0.483-3.064-0.272-4.449
	c0.04-0.29,0.094-0.595,0.147-0.902c0.206-1.162,0.415-2.362,0.094-3.444c-0.21-0.71-0.79-1.183-1.46-1.733
	c-0.835-0.684-1.791-1.456-2.005-2.84c-0.166-1.014,0.075-1.933,0.696-2.662c0.764-0.893,2.059-1.429,3.47-1.429
	c0.464,0,0.916,0.058,1.349,0.174c0.255,0.072,0.549,0.143,0.858,0.223c0.93,0.228,2.086,0.513,3.091,0.93
	c0.755,0.312,1.335,0.652,1.769,1.05C46.887,53.703,45.99,55.65,45.271,57.219 M67.594,41.036c-0.174,0-0.344-0.058-0.483-0.174
	c-0.277-0.246-0.888-0.429-1.385-0.581c-0.223-0.067-0.433-0.134-0.63-0.201c-0.504-0.188-0.96-0.415-1.415-0.635
	c-0.218-0.103-0.438-0.215-0.665-0.312c-0.639-0.3-1.108-0.455-1.469-0.455c-0.014,0-0.026,0-0.04,0.005
	c0,0-0.192,0.178-0.143,1.237c0.031,0.684,0.201,1.965,1.01,2.809c0.286,0.304,0.728,0.496,1.202,0.692
	c0.532,0.228,1.139,0.487,1.608,0.965c0.737,0.759,0.719,1.375,0.696,2.09l-0.009,0.447c-0.009,2.434-0.549,3.854-2.126,5.623
	c-0.228,0.255-0.455,0.478-0.679,0.701c-0.513,0.501-0.965,0.938-1.389,1.912c-0.031,0.063-0.063,0.125-0.067,0.129
	c-0.876,1.8-2.488,3.739-3.979,3.739c-0.492,0-1.38-0.21-1.844-1.621c-0.018-0.049-0.026-0.103-0.031-0.152l-0.023-0.188
	c-0.117-1.031-0.228-2.095,0.188-3.301c0.054-0.152,0.12-0.33,0.192-0.513c0.281-0.733,0.67-1.729,0.496-2.287
	c-0.085-0.272-0.25-0.361-0.728-0.576c-0.268-0.117-0.572-0.255-0.867-0.473c-0.625-0.473-0.97-0.933-1.375-1.518
	c-0.241-0.326-0.42-0.705-0.595-1.072c-0.218-0.447-0.442-0.907-0.715-1.157c-0.406-0.358-0.987-0.639-1.603-0.942
	c-1.448-0.715-3.264-1.598-3.18-3.988c0.049-1.305,1.371-2.676,2.153-3.381c0.835-0.745,1.563-1.054,2.505-1.054
	c0.3,0,0.621,0.035,0.991,0.067l1.09,0.094c0.518,0.049,1.031,0.098,1.501,0.098c0.656,0,1.08-0.103,1.255-0.304
	c0.201-0.237,0.178-0.719,0.125-1.076c-0.152-0.987-0.312-1.036-1.113-1.286c-0.34-0.112-0.728-0.232-1.162-0.438
	c-1.626-0.759-2.599-1.416-2.453-2.327c0.152-0.884,1.237-1.117,2.287-1.228c0.085-0.049,0.228-0.349,0.312-0.532
	c0.166-0.34,0.353-0.724,0.692-1.045l0.183-0.147c0.129-0.112,0.295-0.166,0.46-0.166c0.103,0,0.197,0.018,0.295,0.058
	c5.181,2.207,9.299,6.266,11.6,11.429c0.143,0.312,0.049,0.688-0.232,0.893C67.902,40.987,67.75,41.036,67.594,41.036"/>
<linearGradient id="SVGID_3_" gradientUnits="userSpaceOnUse" x1="48" y1="24.8457" x2="48" y2="75.1543" gradientTransform="matrix(1 0 0 -1 0 98)">
	<stop  offset="0" style="stop-color:#01A1BB"/>
	<stop  offset="1" style="stop-color:#026D98"/>
</linearGradient>
<path fill="url(#SVGID_3_)" d="M48,22.846c-13.873,0-25.154,11.286-25.154,25.154c0,13.873,11.282,25.154,25.154,25.154
	c13.868,0,25.154-11.282,25.154-25.154C73.154,34.132,61.868,22.846,48,22.846 M29.966,50.938c-0.321,0.031-0.598,0.045-0.835,0.045
	c-1.08,0-1.586-0.312-2.35-0.782l-0.424-0.237c-0.277-0.103-0.469-0.358-0.487-0.652l-0.023-0.326
	c-0.023-0.326-0.04-0.652-0.04-0.987c0-6.106,2.453-11.809,6.905-16.052c0.138-0.129,0.321-0.201,0.509-0.201h0.045
	c0.201,0.009,0.393,0.107,0.523,0.26c0.349,0.415,1.09,0.644,2.081,0.644c0.501,0,1.059-0.063,1.586-0.169
	c0.3-0.058,0.59-0.129,0.876-0.197c0.831-0.192,1.68-0.393,2.631-0.393h0.192c0.263,0.014,6.431,0.223,6.923,2.233
	c0.107,0.429,0.031,0.853-0.223,1.219c-0.75,1.09-2.97,1.443-5.377,1.741c-0.504,0.058-0.907,0.107-1.117,0.157
	c-1.684,0.429-2.573,1.546-3.604,2.836c-0.656,0.818-1.331,1.661-2.256,2.381c-0.938,0.733-2.005,0.907-2.948,1.054
	c-0.652,0.107-1.277,0.21-1.827,0.478c-0.549,0.277-0.715,0.496-0.724,0.581c-0.049,0.335,0.835,1.117,1.362,1.586
	c0.991,0.88,2.019,1.791,1.907,2.93C33.113,50.631,31.077,50.828,29.966,50.938 M45.271,56.219
	c-0.129,0.286-0.263,0.567-0.375,0.853c-0.075,0.169-0.075,0.402-0.075,0.665c-0.005,0.33-0.009,0.705-0.138,1.099
	c-0.295,0.893-0.96,1.273-1.497,1.577c-0.241,0.134-0.469,0.263-0.616,0.415c-0.518,0.513-0.853,1.532-1.117,2.35l-0.125,0.366
	c-0.08,0.241-0.183,0.455-0.281,0.661c-0.085,0.174-0.166,0.34-0.218,0.527c-0.035,0.138-0.031,0.375-0.026,0.607
	c0,0.33,0.005,0.701-0.085,1.054c-0.023,0.089-0.023,0.169-0.026,0.272c-0.005,0.317-0.018,0.902-0.831,1.3
	c-0.268,0.129-0.541,0.197-0.813,0.197c-0.031,0-0.178-0.009-0.21-0.014c-0.075-0.009-0.152-0.026-0.223-0.063l-0.492-0.237
	c-0.063-0.035-0.12-0.075-0.174-0.12c-0.549-0.523-0.745-1.326-0.818-1.778c-0.206-1.291-0.483-3.064-0.272-4.449
	c0.04-0.29,0.094-0.595,0.147-0.902c0.206-1.162,0.415-2.362,0.094-3.444c-0.21-0.71-0.79-1.183-1.46-1.733
	c-0.835-0.684-1.791-1.456-2.005-2.84c-0.166-1.014,0.075-1.933,0.696-2.662c0.764-0.893,2.059-1.429,3.47-1.429
	c0.464,0,0.916,0.058,1.349,0.174c0.255,0.072,0.549,0.143,0.858,0.223c0.93,0.228,2.086,0.513,3.091,0.93
	c0.755,0.312,1.335,0.652,1.769,1.05C46.887,52.703,45.99,54.65,45.271,56.219 M67.594,40.036c-0.174,0-0.344-0.058-0.483-0.174
	c-0.277-0.246-0.888-0.429-1.385-0.581c-0.223-0.067-0.433-0.134-0.63-0.201c-0.504-0.188-0.96-0.415-1.415-0.635
	c-0.218-0.103-0.438-0.215-0.665-0.312c-0.639-0.3-1.108-0.455-1.469-0.455c-0.014,0-0.026,0-0.04,0.005
	c0,0-0.192,0.178-0.143,1.237c0.031,0.684,0.201,1.965,1.01,2.809c0.286,0.304,0.728,0.496,1.202,0.692
	c0.532,0.228,1.139,0.487,1.608,0.965c0.737,0.759,0.719,1.375,0.696,2.09l-0.009,0.447c-0.009,2.434-0.549,3.854-2.126,5.623
	c-0.228,0.255-0.455,0.478-0.679,0.701c-0.513,0.501-0.965,0.938-1.389,1.912c-0.031,0.063-0.063,0.125-0.067,0.129
	c-0.876,1.8-2.488,3.739-3.979,3.739c-0.492,0-1.38-0.21-1.844-1.621c-0.018-0.049-0.026-0.103-0.031-0.152l-0.023-0.188
	c-0.117-1.031-0.228-2.095,0.188-3.301c0.054-0.152,0.12-0.33,0.192-0.513c0.281-0.733,0.67-1.729,0.496-2.287
	c-0.085-0.272-0.25-0.361-0.728-0.576c-0.268-0.117-0.572-0.255-0.867-0.473c-0.625-0.473-0.97-0.933-1.375-1.518
	c-0.241-0.326-0.42-0.705-0.595-1.072c-0.218-0.447-0.442-0.907-0.715-1.157c-0.406-0.358-0.987-0.639-1.603-0.942
	c-1.448-0.715-3.264-1.598-3.18-3.988c0.049-1.305,1.371-2.676,2.153-3.381c0.835-0.745,1.563-1.054,2.505-1.054
	c0.3,0,0.621,0.035,0.991,0.067l1.09,0.094c0.518,0.049,1.031,0.098,1.501,0.098c0.656,0,1.08-0.103,1.255-0.304
	c0.201-0.237,0.178-0.719,0.125-1.076c-0.152-0.987-0.312-1.036-1.113-1.286c-0.34-0.112-0.728-0.232-1.162-0.438
	c-1.626-0.759-2.599-1.415-2.453-2.327c0.152-0.884,1.237-1.117,2.287-1.228c0.085-0.049,0.228-0.349,0.312-0.532
	c0.166-0.34,0.353-0.724,0.692-1.045l0.183-0.147c0.129-0.112,0.295-0.166,0.46-0.166c0.103,0,0.197,0.018,0.295,0.058
	c5.181,2.207,9.299,6.266,11.6,11.429c0.143,0.312,0.049,0.688-0.232,0.893C67.902,39.987,67.75,40.036,67.594,40.036"/>
<path opacity="0.05" d="M48,22.846c-13.873,0-25.154,11.286-25.154,25.154c0,13.873,11.282,25.154,25.154,25.154
	c13.868,0,25.154-11.282,25.154-25.154C73.154,34.132,61.868,22.846,48,22.846z M55.729,27.826l0.183-0.147
	c0.129-0.112,0.295-0.166,0.46-0.166c0.103,0,0.197,0.018,0.295,0.058c5.181,2.207,9.299,6.266,11.6,11.429
	c0.143,0.312,0.049,0.688-0.232,0.893c-0.133,0.094-0.285,0.143-0.44,0.143c-0.174,0-0.344-0.058-0.482-0.174
	c-0.277-0.246-0.888-0.429-1.385-0.581c-0.223-0.067-0.433-0.134-0.63-0.201c-0.504-0.188-0.96-0.415-1.416-0.635
	c-0.218-0.103-0.438-0.215-0.665-0.312c-0.639-0.3-1.108-0.455-1.469-0.455c-0.014,0-0.026,0-0.04,0.005
	c0,0-0.192,0.178-0.143,1.237c0.031,0.684,0.201,1.965,1.01,2.809c0.286,0.304,0.728,0.496,1.202,0.692
	c0.532,0.228,1.139,0.487,1.608,0.965c0.737,0.759,0.719,1.375,0.696,2.09l-0.009,0.447c-0.009,2.434-0.549,3.854-2.125,5.623
	c-0.228,0.255-0.455,0.478-0.679,0.701c-0.513,0.501-0.965,0.938-1.389,1.912c-0.031,0.063-0.063,0.125-0.067,0.129
	c-0.876,1.8-2.488,3.739-3.979,3.739c-0.492,0-1.38-0.21-1.844-1.621c-0.018-0.049-0.026-0.103-0.031-0.152l-0.023-0.188
	c-0.117-1.031-0.228-2.095,0.188-3.301c0.054-0.152,0.12-0.33,0.192-0.513c0.281-0.733,0.67-1.729,0.496-2.287
	c-0.085-0.272-0.25-0.361-0.728-0.576c-0.268-0.117-0.572-0.255-0.867-0.473c-0.625-0.473-0.97-0.933-1.375-1.518
	c-0.241-0.326-0.42-0.706-0.595-1.073c-0.218-0.447-0.443-0.907-0.715-1.157c-0.406-0.358-0.987-0.639-1.603-0.942
	c-1.448-0.715-3.264-1.598-3.18-3.988c0.049-1.305,1.371-2.675,2.153-3.381c0.835-0.745,1.563-1.054,2.505-1.054
	c0.3,0,0.621,0.035,0.991,0.068l1.09,0.094c0.518,0.049,1.031,0.098,1.501,0.098c0.656,0,1.08-0.103,1.255-0.304
	c0.201-0.237,0.178-0.719,0.125-1.076c-0.152-0.987-0.312-1.036-1.112-1.286c-0.34-0.112-0.728-0.232-1.162-0.438
	c-1.626-0.759-2.599-1.415-2.453-2.327c0.152-0.884,1.237-1.117,2.287-1.228c0.085-0.049,0.228-0.349,0.312-0.532
	C55.203,28.532,55.391,28.148,55.729,27.826z M48,24.846c2.421,0,4.756,0.374,6.951,1.066c-0.123,0.075-0.24,0.161-0.35,0.256
	l-0.129,0.102c-0.041,0.033-0.081,0.068-0.119,0.105c-0.43,0.407-0.71,0.846-0.909,1.215c-1.737,0.404-2.737,1.31-2.977,2.701
	c-0.266,1.653,0.717,2.765,1.804,3.512c-0.022,0-0.046,0-0.068,0c-0.754,0-1.438,0.131-2.091,0.411
	c-0.016-0.193-0.049-0.387-0.097-0.58c-0.549-2.244-3.488-3.507-8.732-3.739c-0.029-0.001-0.322-0.004-0.322-0.004
	c-1.155,0-2.146,0.229-3.02,0.43l-0.196,0.046c-0.22,0.052-0.443,0.105-0.672,0.15c-0.429,0.087-0.852,0.133-1.204,0.133
	c-0.376,0-0.588-0.046-0.682-0.074c-0.405-0.413-0.921-0.686-1.473-0.787C37.652,26.694,42.614,24.846,48,24.846z M32.712,31.948
	c0.138-0.129,0.321-0.201,0.509-0.201h0.045c0.201,0.009,0.393,0.107,0.523,0.26c0.349,0.415,1.09,0.644,2.081,0.644
	c0.501,0,1.059-0.063,1.586-0.169c0.3-0.058,0.59-0.129,0.876-0.197c0.831-0.192,1.68-0.393,2.631-0.393h0.192
	c0.263,0.014,6.432,0.223,6.923,2.233c0.107,0.429,0.031,0.853-0.223,1.219c-0.75,1.09-2.97,1.443-5.377,1.741
	c-0.504,0.058-0.907,0.107-1.117,0.157c-1.684,0.429-2.573,1.546-3.604,2.836c-0.656,0.818-1.331,1.661-2.256,2.38
	c-0.938,0.733-2.005,0.907-2.948,1.054c-0.652,0.107-1.277,0.21-1.827,0.478c-0.549,0.277-0.715,0.496-0.724,0.581
	c-0.049,0.335,0.835,1.117,1.362,1.586c0.991,0.88,2.019,1.791,1.907,2.93c-0.157,1.545-2.193,1.741-3.304,1.852
	c-0.321,0.031-0.598,0.045-0.835,0.045c-1.081,0-1.586-0.312-2.35-0.782l-0.424-0.237c-0.277-0.103-0.469-0.358-0.487-0.652
	l-0.023-0.326c-0.023-0.326-0.04-0.652-0.04-0.987C25.807,41.894,28.26,36.191,32.712,31.948z M25.12,51.567
	c0.112,0.072,0.23,0.138,0.354,0.194l0.329,0.185c0.794,0.49,1.684,1.037,3.327,1.037c0.291,0,0.633-0.016,1.028-0.055
	c0.342-0.034,0.875-0.087,1.473-0.219c0.008,0.064,0.018,0.129,0.028,0.194c0.327,2.111,1.748,3.275,2.688,4.046
	c0.326,0.267,0.771,0.632,0.835,0.777c0.188,0.634,0.018,1.594-0.146,2.521c-0.064,0.364-0.118,0.679-0.16,0.979
	c-0.256,1.688,0.066,3.704,0.279,5.038c0.057,0.354,0.151,0.769,0.312,1.196C30.031,63.948,26.153,58.222,25.12,51.567z
	 M39.859,67.964c-0.268,0.129-0.541,0.197-0.813,0.197c-0.031,0-0.178-0.009-0.21-0.014c-0.075-0.009-0.152-0.026-0.223-0.063
	l-0.492-0.237c-0.063-0.035-0.12-0.076-0.174-0.12c-0.549-0.523-0.745-1.326-0.818-1.778c-0.206-1.291-0.483-3.064-0.272-4.449
	c0.04-0.29,0.094-0.595,0.148-0.902c0.206-1.162,0.415-2.362,0.094-3.444c-0.21-0.71-0.79-1.183-1.46-1.733
	c-0.835-0.684-1.791-1.456-2.005-2.84c-0.166-1.014,0.075-1.933,0.696-2.662c0.764-0.893,2.059-1.429,3.47-1.429
	c0.464,0,0.916,0.058,1.349,0.174c0.255,0.072,0.549,0.143,0.858,0.223c0.93,0.228,2.086,0.513,3.091,0.93
	c0.755,0.312,1.335,0.652,1.769,1.05c2.021,1.836,1.124,3.783,0.405,5.352c-0.129,0.286-0.263,0.567-0.375,0.853
	c-0.076,0.169-0.076,0.402-0.076,0.665c-0.005,0.33-0.009,0.705-0.138,1.099c-0.295,0.893-0.96,1.273-1.497,1.577
	c-0.241,0.134-0.469,0.263-0.616,0.415c-0.518,0.513-0.853,1.532-1.117,2.35l-0.125,0.366c-0.08,0.241-0.183,0.455-0.281,0.661
	c-0.085,0.174-0.166,0.34-0.218,0.527c-0.035,0.138-0.031,0.375-0.026,0.607c0,0.33,0.005,0.701-0.085,1.054
	c-0.023,0.089-0.023,0.169-0.026,0.272C40.686,66.981,40.672,67.567,39.859,67.964z M48,71.154c-2.644,0-5.185-0.445-7.553-1.265
	c0.094-0.037,0.188-0.078,0.28-0.123c0.881-0.432,1.92-1.302,1.962-3.031c0.112-0.534,0.112-1.005,0.112-1.358
	c-0.001-0.087-0.003-0.153-0.004-0.208c0.014-0.025,0.029-0.056,0.045-0.087c0.142-0.295,0.274-0.584,0.383-0.909l0.119-0.35
	c0.132-0.407,0.409-1.267,0.616-1.553c0.06-0.037,0.127-0.072,0.194-0.109c0.67-0.379,1.887-1.068,2.426-2.697
	c0.224-0.681,0.233-1.285,0.239-1.685c0-0.051-0.001-0.093-0.001-0.129c0.064-0.149,0.274-0.61,0.274-0.61
	c0.719-1.566,2.219-4.836-0.883-7.654c-0.593-0.543-1.362-1.009-2.348-1.417c-1.158-0.479-2.442-0.794-3.38-1.024L40.2,46.872
	c-0.18-0.045-0.351-0.088-0.505-0.132c-0.633-0.168-1.26-0.249-1.896-0.249c-1.052,0-2.069,0.223-2.964,0.632
	c-0.343-0.671-0.845-1.242-1.355-1.738c0.942-0.172,2.147-0.49,3.25-1.352c1.099-0.854,1.879-1.825,2.566-2.683
	c1.044-1.303,1.572-1.92,2.556-2.171c0.134-0.028,0.456-0.062,0.854-0.108c1.153-0.143,2.243-0.298,3.217-0.534
	c-0.231,0.549-0.357,1.091-0.378,1.626c-0.13,3.673,2.732,5.085,4.271,5.844c0.456,0.225,0.896,0.441,1.122,0.607
	c0.084,0.13,0.22,0.411,0.306,0.586c0.196,0.412,0.435,0.913,0.785,1.387c0.428,0.617,0.915,1.271,1.776,1.923
	c0.231,0.171,0.46,0.31,0.664,0.42c-0.075,0.213-0.157,0.427-0.212,0.57c-0.089,0.227-0.164,0.428-0.225,0.6
	c-0.573,1.665-0.409,3.124-0.289,4.189l0.024,0.202c0.02,0.202,0.069,0.419,0.147,0.625c0.586,1.79,1.985,2.91,3.714,2.91
	c2.485,0,4.584-2.455,5.737-4.783c0.047-0.085,0.084-0.161,0.114-0.225c0.294-0.672,0.521-0.893,0.975-1.334l0.11-0.109
	c0.222-0.222,0.445-0.446,0.67-0.697c1.908-2.141,2.622-4.023,2.634-6.947l0.009-0.416c0.026-0.844,0.067-2.154-1.262-3.522
	c-0.093-0.095-0.188-0.184-0.284-0.268c0.399,0.208,0.826,0.311,1.261,0.311c0.571,0,1.122-0.176,1.594-0.509
	c0.326-0.237,0.587-0.532,0.776-0.862c0.771,2.306,1.19,4.773,1.19,7.335C71.154,60.768,60.768,71.154,48,71.154z"/>
<g opacity="0.1">
	<path d="M43.48,48.893c-1.088-0.45-2.329-0.754-3.235-0.977c0,0-0.66-0.168-0.823-0.214c-0.532-0.142-1.072-0.211-1.622-0.211
		c-1.334,0-2.596,0.411-3.538,1.128c-0.146-1.358-1.291-2.373-2.232-3.208c-0.152-0.136-0.427-0.379-0.663-0.61
		c0.38-0.143,0.851-0.221,1.346-0.303c0.946-0.148,2.25-0.352,3.403-1.253c1.008-0.783,1.717-1.667,2.402-2.521
		c1.022-1.277,1.736-2.17,3.089-2.514c0.168-0.039,0.531-0.08,0.985-0.133c2.751-0.341,5.103-0.739,6.086-2.167
		c0.416-0.599,0.547-1.322,0.368-2.031c-0.539-2.204-4.543-2.84-7.807-2.985l-0.278-0.003c-1.042,0-1.933,0.206-2.794,0.404
		l-0.191,0.045c-0.232,0.055-0.469,0.112-0.711,0.159c-0.485,0.098-0.979,0.151-1.396,0.151c-0.877,0-1.253-0.213-1.315-0.287
		c-0.318-0.373-0.771-0.595-1.244-0.615c-0.015,0-0.074-0.001-0.089-0.001c-0.443,0-0.866,0.167-1.191,0.47
		c-4.66,4.441-7.223,10.399-7.223,16.783c0,0.358,0.019,0.707,0.042,1.056l0.024,0.329c0.04,0.647,0.449,1.223,1.05,1.482
		l0.37,0.206c0.778,0.48,1.478,0.91,2.838,0.91c0.264,0,0.573-0.015,0.932-0.05c0.623-0.063,1.668-0.167,2.562-0.582
		c-0.063,0.444-0.056,0.91,0.022,1.392c0.271,1.741,1.464,2.72,2.336,3.434c0.592,0.486,1.035,0.85,1.157,1.262
		c0.257,0.865,0.065,1.943-0.119,2.985c-0.062,0.35-0.114,0.651-0.153,0.94c-0.235,1.547,0.072,3.471,0.275,4.743
		c0.11,0.69,0.394,1.657,1.115,2.345c0.148,0.127,0.256,0.201,0.373,0.267l0.548,0.267c0.147,0.076,0.332,0.131,0.541,0.155
		c0.021,0.004,0.274,0.021,0.326,0.021c0.421,0,0.841-0.1,1.247-0.295c1.374-0.674,1.392-1.813,1.397-2.187
		c0.111-0.503,0.111-0.946,0.111-1.302c-0.003-0.197-0.012-0.336,0.002-0.435c0.022-0.069,0.082-0.182,0.141-0.3
		c0.12-0.252,0.238-0.503,0.332-0.785l0.122-0.358c0.198-0.612,0.52-1.611,0.875-1.962c0.071-0.07,0.3-0.197,0.397-0.252
		c0.582-0.329,1.543-0.874,1.96-2.137c0.177-0.534,0.184-1.025,0.189-1.385c0-0.146-0.008-0.256,0.01-0.348
		c0.075-0.182,0.167-0.382,0.259-0.583l0.094-0.204c0.717-1.564,1.916-4.178-0.644-6.504C45.03,49.66,44.355,49.256,43.48,48.893z
		 M29.966,50.938c-0.321,0.031-0.598,0.045-0.835,0.045c-1.081,0-1.586-0.312-2.35-0.782l-0.424-0.237
		c-0.277-0.103-0.469-0.358-0.487-0.652l-0.023-0.326c-0.023-0.326-0.04-0.652-0.04-0.987c0-6.106,2.453-11.809,6.905-16.052
		c0.138-0.129,0.321-0.201,0.509-0.201h0.045c0.201,0.009,0.393,0.107,0.523,0.26c0.349,0.415,1.09,0.644,2.081,0.644
		c0.501,0,1.059-0.063,1.586-0.169c0.3-0.058,0.59-0.129,0.876-0.197c0.831-0.192,1.68-0.393,2.631-0.393h0.192
		c0.263,0.014,6.432,0.223,6.923,2.233c0.107,0.429,0.031,0.853-0.223,1.219c-0.75,1.09-2.97,1.443-5.377,1.741
		c-0.504,0.058-0.907,0.107-1.117,0.157c-1.684,0.429-2.573,1.546-3.604,2.836c-0.656,0.818-1.331,1.661-2.256,2.38
		c-0.938,0.733-2.005,0.907-2.948,1.054c-0.652,0.107-1.277,0.21-1.827,0.478c-0.549,0.277-0.715,0.496-0.724,0.581
		c-0.049,0.335,0.835,1.117,1.362,1.586c0.991,0.88,2.019,1.791,1.907,2.93C33.113,50.631,31.077,50.828,29.966,50.938z
		 M45.271,56.219c-0.129,0.286-0.263,0.567-0.375,0.853c-0.076,0.169-0.076,0.402-0.076,0.665c-0.005,0.33-0.009,0.705-0.138,1.099
		c-0.295,0.893-0.96,1.273-1.497,1.577c-0.241,0.134-0.469,0.263-0.616,0.415c-0.518,0.513-0.853,1.532-1.117,2.35l-0.125,0.366
		c-0.08,0.241-0.183,0.455-0.281,0.661c-0.085,0.174-0.166,0.34-0.218,0.527c-0.035,0.138-0.031,0.375-0.026,0.607
		c0,0.33,0.005,0.701-0.085,1.054c-0.023,0.089-0.023,0.169-0.026,0.272c-0.005,0.317-0.018,0.902-0.831,1.3
		c-0.268,0.129-0.541,0.197-0.813,0.197c-0.031,0-0.178-0.009-0.21-0.014c-0.075-0.009-0.152-0.026-0.223-0.063l-0.492-0.237
		c-0.063-0.035-0.12-0.076-0.174-0.12c-0.549-0.523-0.745-1.326-0.818-1.778c-0.206-1.291-0.483-3.064-0.272-4.449
		c0.04-0.29,0.094-0.595,0.148-0.902c0.206-1.162,0.415-2.362,0.094-3.444c-0.21-0.71-0.79-1.183-1.46-1.733
		c-0.835-0.684-1.791-1.456-2.005-2.84c-0.166-1.014,0.075-1.933,0.696-2.662c0.764-0.893,2.059-1.429,3.47-1.429
		c0.464,0,0.916,0.058,1.349,0.174c0.255,0.072,0.549,0.143,0.858,0.223c0.93,0.228,2.086,0.513,3.091,0.93
		c0.755,0.312,1.335,0.652,1.769,1.05C46.888,52.703,45.99,54.65,45.271,56.219z"/>
	<path d="M48,22.846c-13.873,0-25.154,11.286-25.154,25.154c0,13.873,11.282,25.154,25.154,25.154
		c13.868,0,25.154-11.282,25.154-25.154C73.154,34.132,61.868,22.846,48,22.846z M48,72.154c-13.318,0-24.154-10.836-24.154-24.154
		c0-13.319,10.836-24.154,24.154-24.154S72.154,34.681,72.154,48C72.154,61.318,61.318,72.154,48,72.154z"/>
	<path d="M69.176,38.585c-2.4-5.387-6.705-9.628-12.117-11.934c-0.233-0.095-0.453-0.138-0.687-0.138
		c-0.414,0-0.811,0.146-1.115,0.41l-0.155,0.125c-0.529,0.497-0.779,1.007-0.961,1.38c-0.007,0.014-0.013,0.027-0.02,0.041
		c-0.942,0.141-2.418,0.54-2.668,1.991c-0.299,1.856,1.776,2.824,3.016,3.403c0.441,0.21,0.848,0.343,1.174,0.45l0.098,0.032
		c0.131,0.042,0.274,0.086,0.366,0.12c0.017,0.064,0.041,0.176,0.07,0.369c0.012,0.08,0.019,0.149,0.022,0.207
		c-0.098,0.012-0.232,0.021-0.414,0.021c-0.414,0-0.883-0.044-1.378-0.091l-1.327-0.115c-0.319-0.029-0.605-0.054-0.877-0.054
		c-1.196,0-2.145,0.391-3.171,1.309c-1.104,0.995-2.428,2.51-2.486,4.089c-0.107,3.025,2.191,4.16,3.713,4.911
		c0.609,0.3,1.113,0.548,1.408,0.808c0.117,0.108,0.333,0.551,0.477,0.844c0.19,0.4,0.396,0.834,0.689,1.23
		c0.413,0.597,0.831,1.157,1.576,1.721c0.382,0.282,0.752,0.453,1.068,0.592c0.066,0.029,0.124,0.055,0.176,0.078
		c-0.035,0.363-0.328,1.127-0.463,1.476c-0.087,0.222-0.157,0.411-0.215,0.574c-0.497,1.444-0.354,2.72-0.238,3.745l0.023,0.194
		c0.008,0.078,0.028,0.227,0.09,0.389c0.67,2.041,2.167,2.266,2.779,2.266c2.039,0,3.883-2.281,4.854-4.255
		c0.036-0.063,0.066-0.124,0.094-0.183c0.359-0.821,0.704-1.157,1.181-1.621l0.102-0.101c0.208-0.208,0.419-0.419,0.63-0.655
		c1.746-1.959,2.369-3.603,2.38-6.285l0.009-0.432c0.024-0.77,0.055-1.742-0.979-2.807c-0.61-0.622-1.342-0.935-1.929-1.187
		c-0.312-0.128-0.717-0.295-0.87-0.458c-0.582-0.608-0.708-1.634-0.735-2.107c0.069,0.031,0.145,0.064,0.225,0.102
		c0.17,0.073,0.306,0.139,0.439,0.204l0.357,0.172c0.425,0.206,0.864,0.418,1.36,0.603c0.233,0.08,0.454,0.15,0.688,0.221
		c0.307,0.094,0.87,0.266,1.018,0.377c0.332,0.277,0.73,0.42,1.14,0.42c0.363,0,0.715-0.113,1.018-0.326
		C69.284,40.221,69.517,39.331,69.176,38.585z M68.034,39.893c-0.133,0.094-0.285,0.143-0.44,0.143
		c-0.174,0-0.344-0.058-0.482-0.174c-0.277-0.246-0.888-0.429-1.385-0.581c-0.223-0.067-0.433-0.134-0.63-0.201
		c-0.504-0.188-0.96-0.415-1.416-0.635c-0.218-0.103-0.438-0.215-0.665-0.312c-0.639-0.3-1.108-0.455-1.469-0.455
		c-0.014,0-0.026,0-0.04,0.005c0,0-0.192,0.178-0.143,1.237c0.031,0.684,0.201,1.965,1.01,2.809
		c0.286,0.304,0.728,0.496,1.202,0.692c0.532,0.228,1.139,0.487,1.608,0.965c0.737,0.759,0.719,1.375,0.696,2.09l-0.009,0.447
		c-0.009,2.434-0.549,3.854-2.125,5.623c-0.228,0.255-0.455,0.478-0.679,0.701c-0.513,0.501-0.965,0.938-1.389,1.912
		c-0.031,0.063-0.063,0.125-0.067,0.129c-0.876,1.8-2.488,3.739-3.979,3.739c-0.492,0-1.38-0.21-1.844-1.621
		c-0.018-0.049-0.026-0.103-0.031-0.152l-0.023-0.188c-0.117-1.031-0.228-2.095,0.188-3.301c0.054-0.152,0.12-0.33,0.192-0.513
		c0.281-0.733,0.67-1.729,0.496-2.287c-0.085-0.272-0.25-0.361-0.728-0.576c-0.268-0.117-0.572-0.255-0.867-0.473
		c-0.625-0.473-0.97-0.933-1.375-1.518c-0.241-0.326-0.42-0.706-0.595-1.073c-0.218-0.447-0.443-0.907-0.715-1.157
		c-0.406-0.358-0.987-0.639-1.603-0.942c-1.448-0.715-3.264-1.598-3.18-3.988c0.049-1.305,1.371-2.675,2.153-3.381
		c0.835-0.745,1.563-1.054,2.505-1.054c0.3,0,0.621,0.035,0.991,0.068l1.09,0.094c0.518,0.049,1.031,0.098,1.501,0.098
		c0.656,0,1.08-0.103,1.255-0.304c0.201-0.237,0.178-0.719,0.125-1.076c-0.152-0.987-0.312-1.036-1.112-1.286
		c-0.34-0.112-0.728-0.232-1.162-0.438c-1.626-0.759-2.599-1.415-2.453-2.327c0.152-0.884,1.237-1.117,2.287-1.228
		c0.085-0.049,0.228-0.349,0.312-0.532c0.166-0.34,0.353-0.724,0.692-1.045l0.183-0.147c0.129-0.112,0.295-0.166,0.46-0.166
		c0.103,0,0.197,0.018,0.295,0.058c5.181,2.207,9.299,6.266,11.6,11.429C68.409,39.313,68.316,39.689,68.034,39.893z"/>
</g>
<g>
	<path opacity="0.04" d="M65.097,39.081c-0.504-0.188-0.96-0.415-1.416-0.635c-0.218-0.103-0.438-0.215-0.665-0.312
		c-0.639-0.3-1.108-0.455-1.469-0.455c-0.014,0-0.026,0-0.04,0.005c0,0-0.192,0.178-0.143,1.237c0.031,0.684,0.201,1.965,1.01,2.809
		c0.098,0.104,0.219,0.192,0.348,0.274c0.096,0.041,0.19,0.081,0.294,0.13c0.228,0.097,0.447,0.209,0.665,0.312
		c0.455,0.22,0.911,0.447,1.416,0.635c0.197,0.067,0.407,0.134,0.63,0.201c0.496,0.152,1.108,0.335,1.385,0.581
		c0.138,0.115,0.309,0.174,0.482,0.174c0.156,0,0.308-0.049,0.44-0.143c0.281-0.205,0.375-0.581,0.232-0.893
		c-0.557-1.249-1.224-2.43-1.983-3.539c-0.187-0.064-0.378-0.125-0.557-0.179C65.504,39.214,65.294,39.148,65.097,39.081z"/>
	<path opacity="0.04" d="M32.267,32.394c0.148-0.149,0.292-0.3,0.445-0.446c0.098-0.091,0.22-0.141,0.348-0.171
		c4.18-3.097,9.349-4.932,14.94-4.932c2.64,0,5.186,0.411,7.579,1.169c0.053-0.062,0.088-0.13,0.15-0.189l0.183-0.147
		c0.129-0.112,0.295-0.166,0.46-0.166c0.103,0,0.197,0.018,0.295,0.058c2.702,1.151,5.105,2.815,7.122,4.868
		c5.22,4.222,8.719,10.484,9.279,17.561c0.052-0.661,0.087-1.326,0.087-2c0-13.868-11.286-25.154-25.154-25.154
		c-13.873,0-25.154,11.286-25.154,25.154c0,0.674,0.034,1.34,0.087,2C23.494,42.897,27.016,36.616,32.267,32.394z"/>
	<path opacity="0.04" d="M54.284,35.964c0.518,0.049,1.031,0.098,1.501,0.098c0.656,0,1.08-0.103,1.255-0.304
		c0.201-0.237,0.178-0.719,0.125-1.076c-0.152-0.987-0.312-1.036-1.112-1.286c-0.315-0.104-0.677-0.222-1.073-0.402
		c-0.083,0.172-0.186,0.37-0.254,0.409c-1.05,0.111-2.135,0.344-2.287,1.228c-0.073,0.456,0.134,0.849,0.564,1.222
		c0.065,0.006,0.124,0.011,0.192,0.017L54.284,35.964z"/>
	<path opacity="0.04" d="M50.725,48.226c0.616,0.303,1.197,0.584,1.603,0.942c0.272,0.25,0.496,0.71,0.715,1.157
		c0.175,0.367,0.353,0.747,0.595,1.073c0.406,0.585,0.75,1.045,1.375,1.518c0.259,0.191,0.521,0.317,0.762,0.424
		c0.042-0.19,0.076-0.378,0.144-0.575c0.054-0.152,0.12-0.33,0.192-0.513c0.281-0.733,0.67-1.729,0.496-2.287
		c-0.085-0.272-0.25-0.361-0.728-0.576c-0.268-0.117-0.572-0.255-0.867-0.473c-0.625-0.473-0.97-0.933-1.375-1.518
		c-0.241-0.326-0.42-0.706-0.595-1.073c-0.218-0.447-0.443-0.907-0.715-1.157c-0.406-0.358-0.987-0.639-1.603-0.942
		c-0.86-0.424-1.842-0.917-2.486-1.741c-0.379,0.553-0.671,1.158-0.693,1.753C47.46,46.627,49.277,47.511,50.725,48.226z"/>
	<path opacity="0.04" d="M25.847,52.987l0.023,0.326c0.018,0.294,0.21,0.549,0.487,0.652l0.424,0.237
		c0.764,0.47,1.269,0.782,2.35,0.782c0.237,0,0.513-0.014,0.835-0.045c1.111-0.111,3.148-0.308,3.304-1.852
		c0.094-0.954-0.612-1.746-1.426-2.495c-0.638,0.219-1.358,0.296-1.879,0.348c-0.321,0.031-0.598,0.045-0.835,0.045
		c-1.081,0-1.586-0.312-2.35-0.782l-0.424-0.237c-0.19-0.07-0.334-0.215-0.416-0.392c-0.087,0.801-0.134,1.61-0.134,2.428
		C25.807,52.335,25.824,52.661,25.847,52.987z"/>
	<path opacity="0.04" d="M37.099,57.155c-0.21-0.71-0.79-1.183-1.46-1.733c-0.481-0.394-0.999-0.822-1.395-1.375
		c-0.548,0.708-0.767,1.576-0.61,2.535c0.215,1.385,1.171,2.156,2.005,2.84c0.568,0.466,1.056,0.886,1.324,1.433
		c0.015-0.086,0.027-0.169,0.042-0.256C37.211,59.437,37.42,58.237,37.099,57.155z"/>
	<path opacity="0.04" d="M55.754,60.254c0.005,0.049,0.013,0.103,0.031,0.152c0.464,1.411,1.353,1.621,1.844,1.621
		c1.491,0,3.103-1.939,3.979-3.739c0.005-0.005,0.037-0.066,0.067-0.129c0.424-0.974,0.876-1.411,1.389-1.912
		c0.224-0.223,0.452-0.446,0.679-0.701c1.577-1.769,2.116-3.189,2.125-5.623l0.009-0.447c0.016-0.497,0.024-0.947-0.218-1.43
		c-0.278,1.281-0.861,2.316-1.917,3.5c-0.228,0.255-0.455,0.478-0.679,0.701c-0.513,0.501-0.965,0.938-1.389,1.912
		c-0.031,0.063-0.063,0.125-0.067,0.129c-0.876,1.8-2.488,3.739-3.979,3.739c-0.447,0-1.219-0.185-1.705-1.277
		c-0.002,0.005-0.004,0.011-0.006,0.015c-0.415,1.206-0.304,2.27-0.188,3.301L55.754,60.254z"/>
	<path opacity="0.04" d="M40.69,70.664c0.003-0.103,0.003-0.183,0.026-0.272c0.089-0.353,0.085-0.724,0.085-1.054
		c-0.005-0.232-0.009-0.469,0.026-0.607c0.053-0.188,0.134-0.353,0.218-0.527c0.098-0.206,0.201-0.42,0.281-0.661l0.125-0.366
		c0.264-0.818,0.599-1.836,1.117-2.35c0.147-0.152,0.375-0.281,0.616-0.415c0.536-0.304,1.202-0.684,1.497-1.577
		c0.129-0.393,0.134-0.768,0.138-1.099c0-0.263,0-0.496,0.076-0.665c0.112-0.286,0.246-0.567,0.375-0.853
		c0.62-1.353,1.369-2.989,0.266-4.591c-0.088,0.202-0.178,0.4-0.266,0.591c-0.129,0.286-0.263,0.567-0.375,0.853
		c-0.076,0.169-0.076,0.402-0.076,0.665c-0.005,0.33-0.009,0.705-0.138,1.099c-0.295,0.893-0.96,1.273-1.497,1.577
		c-0.241,0.134-0.469,0.263-0.616,0.415c-0.518,0.513-0.853,1.532-1.117,2.35l-0.125,0.366c-0.08,0.241-0.183,0.455-0.281,0.661
		c-0.085,0.174-0.166,0.34-0.218,0.527c-0.035,0.138-0.031,0.375-0.026,0.607c0,0.33,0.005,0.701-0.085,1.054
		c-0.023,0.089-0.023,0.169-0.026,0.272c-0.005,0.317-0.018,0.902-0.831,1.3c-0.268,0.129-0.541,0.197-0.813,0.197
		c-0.031,0-0.178-0.009-0.21-0.014c-0.075-0.009-0.152-0.026-0.223-0.063l-0.492-0.237c-0.063-0.035-0.12-0.076-0.174-0.12
		c-0.549-0.523-0.745-1.326-0.818-1.778c-0.054-0.339-0.112-0.712-0.165-1.101c-0.038,0.22-0.078,0.442-0.107,0.652
		c-0.21,1.385,0.066,3.158,0.272,4.449c0.035,0.219,0.101,0.521,0.22,0.833c0.871,0.409,1.77,0.767,2.692,1.075
		C40.667,71.467,40.686,70.954,40.69,70.664z"/>
	<path opacity="0.04" d="M48.077,38.124c-0.186-0.761-1.186-1.263-2.37-1.595c-0.935,0.25-2.059,0.41-3.23,0.555
		c-0.504,0.058-0.907,0.107-1.117,0.157c-1.684,0.429-2.573,1.546-3.604,2.836c-0.656,0.818-1.331,1.661-2.256,2.38
		c-0.938,0.733-2.005,0.907-2.948,1.054c-0.652,0.107-1.277,0.21-1.827,0.478c-0.549,0.277-0.715,0.496-0.724,0.581
		c-0.049,0.335,0.835,1.117,1.362,1.586c0.483,0.429,0.972,0.865,1.336,1.33c0.906-0.144,1.911-0.333,2.801-1.029
		c0.925-0.719,1.6-1.563,2.256-2.38c1.031-1.29,1.92-2.407,3.604-2.836c0.21-0.049,0.613-0.098,1.117-0.157
		c2.279-0.283,4.375-0.622,5.229-1.582c0.099-0.279,0.233-0.553,0.4-0.818C48.13,38.501,48.124,38.313,48.077,38.124z"/>
</g>
<g>
	<path opacity="0.06" d="M33.633,55.581c0.215,1.385,1.171,2.156,2.005,2.84c0.659,0.541,1.227,1.01,1.446,1.702
		c0.17-1.011,0.292-2.034,0.014-2.969c-0.21-0.71-0.79-1.183-1.46-1.733c-0.623-0.51-1.313-1.07-1.713-1.897
		C33.614,54.132,33.511,54.83,33.633,55.581z"/>
	<path opacity="0.06" d="M50.725,47.226c0.616,0.303,1.197,0.584,1.603,0.942c0.272,0.25,0.496,0.71,0.715,1.157
		c0.175,0.367,0.353,0.747,0.595,1.073c0.406,0.585,0.75,1.045,1.375,1.518c0.295,0.218,0.599,0.357,0.867,0.473
		c0.061,0.027,0.103,0.048,0.154,0.072c0.027-0.072,0.049-0.135,0.078-0.209c0.281-0.733,0.67-1.729,0.496-2.287
		c-0.085-0.272-0.25-0.361-0.728-0.576c-0.268-0.117-0.572-0.255-0.867-0.473c-0.625-0.473-0.97-0.933-1.375-1.518
		c-0.241-0.326-0.42-0.706-0.595-1.073c-0.218-0.447-0.443-0.907-0.715-1.157c-0.406-0.358-0.987-0.639-1.603-0.942
		c-1.016-0.502-2.201-1.099-2.796-2.23c-0.215,0.405-0.368,0.826-0.384,1.242C47.46,45.627,49.277,46.511,50.725,47.226z"/>
	<path opacity="0.06" d="M48,25.846c13.364,0,24.326,10.482,25.106,23.655c0.029-0.497,0.049-0.996,0.049-1.5
		c0-13.868-11.286-25.154-25.154-25.154c-13.873,0-25.154,11.286-25.154,25.154c0,0.504,0.019,1.003,0.049,1.5
		C23.673,36.328,34.631,25.846,48,25.846z"/>
	<path opacity="0.06" d="M44.896,57.072c-0.076,0.169-0.076,0.402-0.076,0.665c-0.005,0.33-0.009,0.705-0.138,1.099
		c-0.295,0.893-0.96,1.273-1.497,1.577c-0.241,0.134-0.469,0.263-0.616,0.415c-0.518,0.513-0.853,1.532-1.117,2.35l-0.125,0.366
		c-0.08,0.241-0.183,0.455-0.281,0.661c-0.085,0.174-0.166,0.34-0.218,0.527c-0.035,0.138-0.031,0.375-0.026,0.607
		c0,0.33,0.005,0.701-0.085,1.054c-0.023,0.089-0.023,0.169-0.026,0.272c-0.005,0.317-0.018,0.902-0.831,1.3
		c-0.268,0.129-0.541,0.197-0.813,0.197c-0.031,0-0.178-0.009-0.21-0.014c-0.075-0.009-0.152-0.026-0.223-0.063l-0.492-0.237
		c-0.063-0.035-0.12-0.076-0.174-0.12c-0.549-0.523-0.745-1.326-0.818-1.778c-0.08-0.503-0.165-1.087-0.234-1.685
		c-0.012,0.078-0.028,0.16-0.039,0.236c-0.21,1.385,0.066,3.158,0.272,4.449c0.072,0.452,0.269,1.255,0.818,1.778
		c0.054,0.045,0.111,0.085,0.174,0.12l0.492,0.237c0.071,0.037,0.148,0.054,0.223,0.063c0.032,0.005,0.18,0.014,0.21,0.014
		c0.272,0,0.545-0.067,0.813-0.197c0.813-0.398,0.827-0.983,0.831-1.3c0.003-0.103,0.003-0.183,0.026-0.272
		c0.089-0.353,0.085-0.724,0.085-1.054c-0.005-0.232-0.009-0.469,0.026-0.607c0.053-0.188,0.134-0.353,0.218-0.527
		c0.098-0.206,0.201-0.42,0.281-0.661l0.125-0.366c0.264-0.818,0.599-1.836,1.117-2.35c0.147-0.152,0.375-0.281,0.616-0.415
		c0.536-0.304,1.202-0.684,1.497-1.577c0.129-0.393,0.134-0.768,0.138-1.099c0-0.263,0-0.496,0.076-0.665
		c0.112-0.286,0.246-0.567,0.375-0.853c0.568-1.24,1.242-2.716,0.504-4.187c-0.15,0.413-0.332,0.811-0.504,1.187
		C45.142,56.504,45.008,56.786,44.896,57.072z"/>
	<path opacity="0.06" d="M47.854,38.343c0.254-0.366,0.33-0.79,0.223-1.219c-0.109-0.447-0.508-0.8-1.051-1.087
		c-1.054,0.57-2.749,0.824-4.549,1.047c-0.504,0.058-0.907,0.107-1.117,0.157c-1.684,0.429-2.573,1.546-3.604,2.836
		c-0.656,0.818-1.331,1.661-2.256,2.38c-0.938,0.733-2.005,0.907-2.948,1.054c-0.652,0.107-1.277,0.21-1.827,0.478
		c-0.549,0.277-0.715,0.496-0.724,0.581c-0.049,0.335,0.835,1.117,1.362,1.586c0.177,0.157,0.352,0.315,0.524,0.475
		c0.218-0.043,0.439-0.083,0.665-0.12c0.942-0.148,2.01-0.321,2.948-1.054c0.925-0.719,1.6-1.563,2.256-2.38
		c1.031-1.29,1.92-2.407,3.604-2.836c0.21-0.049,0.613-0.098,1.117-0.157C44.883,39.786,47.104,39.432,47.854,38.343z"/>
	<path opacity="0.06" d="M25.847,51.987l0.023,0.326c0.018,0.294,0.21,0.549,0.487,0.652l0.424,0.237
		c0.764,0.47,1.269,0.782,2.35,0.782c0.237,0,0.513-0.014,0.835-0.045c1.111-0.111,3.148-0.308,3.304-1.852
		c0.066-0.672-0.269-1.264-0.754-1.817c-0.734,0.484-1.832,0.598-2.55,0.669c-0.321,0.031-0.598,0.045-0.835,0.045
		c-1.081,0-1.586-0.312-2.35-0.782l-0.424-0.237c-0.268-0.1-0.454-0.344-0.482-0.627c-0.041,0.551-0.068,1.104-0.068,1.662
		C25.807,51.335,25.824,51.661,25.847,51.987z"/>
	<path opacity="0.06" d="M55.754,59.254c0.005,0.049,0.013,0.103,0.031,0.152c0.464,1.411,1.353,1.621,1.844,1.621
		c1.491,0,3.103-1.939,3.979-3.739c0.005-0.005,0.037-0.066,0.067-0.129c0.424-0.974,0.876-1.411,1.389-1.912
		c0.224-0.223,0.452-0.446,0.679-0.701c1.577-1.769,2.116-3.189,2.125-5.623l0.009-0.447c0.013-0.395,0.019-0.76-0.098-1.135
		c-0.202,1.627-0.795,2.812-2.037,4.205c-0.228,0.255-0.455,0.478-0.679,0.701c-0.513,0.501-0.965,0.938-1.389,1.912
		c-0.031,0.063-0.063,0.125-0.067,0.129c-0.876,1.8-2.488,3.739-3.979,3.739c-0.492,0-1.38-0.21-1.844-1.621
		c-0.007-0.019-0.008-0.039-0.012-0.06c-0.213,0.97-0.139,1.859-0.042,2.72L55.754,59.254z"/>
	<path opacity="0.06" d="M54.891,35.958c0.063,0.03,0.119,0.048,0.18,0.074c0.245,0.018,0.485,0.03,0.714,0.03
		c0.656,0,1.08-0.103,1.255-0.304c0.201-0.237,0.178-0.719,0.125-1.076c-0.152-0.987-0.312-1.036-1.112-1.286
		c-0.34-0.112-0.728-0.232-1.162-0.438c-0.328-0.153-0.621-0.302-0.892-0.449c-0.777,0.151-1.444,0.445-1.56,1.123
		C52.292,34.542,53.265,35.199,54.891,35.958z"/>
	<path opacity="0.06" d="M67.594,43.036c0.156,0,0.308-0.049,0.44-0.143c0.281-0.205,0.375-0.581,0.232-0.893
		c-0.322-0.722-0.688-1.417-1.079-2.094c-0.025-0.016-0.053-0.024-0.076-0.044c-0.277-0.246-0.888-0.429-1.385-0.581
		c-0.223-0.067-0.433-0.134-0.63-0.201c-0.504-0.188-0.96-0.415-1.416-0.635c-0.218-0.103-0.438-0.215-0.665-0.312
		c-0.639-0.3-1.108-0.455-1.469-0.455c-0.014,0-0.026,0-0.04,0.005c0,0-0.192,0.178-0.143,1.237c0.02,0.438,0.099,1.12,0.364,1.776
		c0.335,0.041,0.748,0.184,1.288,0.437c0.228,0.097,0.447,0.209,0.665,0.312c0.455,0.22,0.911,0.447,1.416,0.635
		c0.197,0.067,0.407,0.134,0.63,0.201c0.496,0.152,1.108,0.335,1.385,0.581C67.25,42.978,67.42,43.036,67.594,43.036z"/>
</g>
<g>
	<path opacity="0.08" d="M33.633,54.581c0.215,1.385,1.171,2.156,2.005,2.84c0.67,0.55,1.25,1.023,1.46,1.733
		c0.039,0.13,0.048,0.266,0.072,0.398c0.112-0.822,0.154-1.64-0.072-2.398c-0.21-0.71-0.79-1.183-1.46-1.733
		c-0.742-0.608-1.576-1.287-1.904-2.402C33.585,53.502,33.543,54.025,33.633,54.581z"/>
	<path opacity="0.08" d="M47.854,37.343c0.254-0.366,0.33-0.79,0.223-1.219c-0.056-0.228-0.193-0.43-0.378-0.614
		c-0.859,0.954-2.95,1.293-5.223,1.574c-0.504,0.058-0.907,0.107-1.117,0.157c-1.684,0.429-2.573,1.546-3.604,2.836
		c-0.656,0.818-1.331,1.661-2.256,2.38c-0.938,0.733-2.005,0.907-2.948,1.054c-0.652,0.107-1.277,0.21-1.827,0.478
		c-0.549,0.277-0.715,0.496-0.724,0.581c-0.04,0.272,0.535,0.838,1.036,1.293c0.471-0.174,0.983-0.264,1.515-0.352
		c0.942-0.148,2.01-0.321,2.948-1.054c0.925-0.719,1.6-1.563,2.256-2.38c1.031-1.29,1.92-2.407,3.604-2.836
		c0.21-0.049,0.613-0.098,1.117-0.157C44.883,38.786,47.104,38.432,47.854,37.343z"/>
	<path opacity="0.08" d="M48,24.846c13.533,0,24.601,10.749,25.129,24.154c0.013-0.332,0.025-0.665,0.025-1
		c0-13.868-11.286-25.154-25.154-25.154c-13.873,0-25.154,11.286-25.154,25.154c0,0.335,0.012,0.668,0.025,1
		C23.398,35.594,34.463,24.846,48,24.846z"/>
	<path opacity="0.08" d="M44.896,57.072c-0.076,0.169-0.076,0.402-0.076,0.665c-0.005,0.33-0.009,0.705-0.138,1.099
		c-0.295,0.893-0.96,1.273-1.497,1.577c-0.241,0.134-0.469,0.263-0.616,0.415c-0.518,0.513-0.853,1.532-1.117,2.35l-0.125,0.366
		c-0.08,0.241-0.183,0.455-0.281,0.661c-0.085,0.174-0.166,0.34-0.218,0.527c-0.035,0.138-0.031,0.375-0.026,0.607
		c0,0.33,0.005,0.701-0.085,1.054c-0.023,0.089-0.023,0.169-0.026,0.272c-0.005,0.317-0.018,0.902-0.831,1.3
		c-0.268,0.129-0.541,0.197-0.813,0.197c-0.031,0-0.178-0.009-0.21-0.014c-0.075-0.009-0.152-0.026-0.223-0.063l-0.492-0.237
		c-0.063-0.035-0.12-0.076-0.174-0.12c-0.549-0.523-0.745-1.326-0.818-1.778c-0.102-0.642-0.222-1.404-0.291-2.177
		c-0.143,1.341,0.098,2.966,0.291,4.177c0.072,0.452,0.269,1.255,0.818,1.778c0.054,0.045,0.111,0.085,0.174,0.12l0.492,0.237
		c0.071,0.037,0.148,0.054,0.223,0.063c0.032,0.005,0.18,0.014,0.21,0.014c0.272,0,0.545-0.067,0.813-0.197
		c0.813-0.398,0.827-0.983,0.831-1.3c0.003-0.103,0.003-0.183,0.026-0.272c0.089-0.353,0.085-0.724,0.085-1.054
		c-0.005-0.232-0.009-0.469,0.026-0.607c0.053-0.188,0.134-0.353,0.218-0.527c0.098-0.206,0.201-0.42,0.281-0.661l0.125-0.366
		c0.264-0.818,0.599-1.836,1.117-2.35c0.147-0.152,0.375-0.281,0.616-0.415c0.536-0.304,1.202-0.684,1.497-1.577
		c0.129-0.393,0.134-0.768,0.138-1.099c0-0.263,0-0.496,0.076-0.665c0.112-0.286,0.246-0.567,0.375-0.853
		c0.513-1.118,1.11-2.429,0.682-3.754c-0.163,0.617-0.432,1.209-0.682,1.754C45.142,56.504,45.008,56.786,44.896,57.072z"/>
	<path opacity="0.08" d="M55.754,58.254c0.005,0.049,0.013,0.103,0.031,0.152c0.464,1.411,1.353,1.621,1.844,1.621
		c1.491,0,3.103-1.939,3.979-3.739c0.005-0.005,0.037-0.066,0.067-0.129c0.424-0.974,0.876-1.411,1.389-1.912
		c0.224-0.223,0.452-0.446,0.679-0.701c1.577-1.769,2.116-3.189,2.125-5.623l0.009-0.447c0.01-0.299,0.015-0.582-0.032-0.864
		c-0.107,2.024-0.682,3.341-2.102,4.934c-0.228,0.255-0.455,0.478-0.679,0.701c-0.513,0.501-0.965,0.938-1.389,1.912
		c-0.031,0.063-0.063,0.125-0.067,0.129c-0.876,1.8-2.488,3.739-3.979,3.739c-0.492,0-1.38-0.21-1.844-1.621
		c-0.018-0.049-0.026-0.103-0.031-0.152l-0.023-0.188c-0.014-0.123-0.025-0.249-0.037-0.373c-0.128,0.838-0.048,1.615,0.037,2.373
		L55.754,58.254z"/>
	<path opacity="0.08" d="M54.891,34.958c0.433,0.206,0.822,0.326,1.162,0.438c0.461,0.144,0.706,0.227,0.863,0.455
		c0.046-0.029,0.094-0.058,0.124-0.093c0.201-0.237,0.178-0.719,0.125-1.076c-0.152-0.987-0.312-1.036-1.112-1.286
		c-0.34-0.112-0.728-0.232-1.162-0.438c-0.81-0.378-1.458-0.731-1.886-1.103c-0.295,0.179-0.506,0.425-0.567,0.776
		C52.292,33.542,53.265,34.199,54.891,34.958z"/>
	<path opacity="0.08" d="M25.847,50.987l0.023,0.326c0.018,0.294,0.21,0.549,0.487,0.652l0.424,0.237
		c0.764,0.47,1.269,0.782,2.35,0.782c0.237,0,0.513-0.014,0.835-0.045c1.111-0.111,3.148-0.308,3.304-1.852
		c0.043-0.441-0.087-0.847-0.317-1.231c-0.64,0.84-2.101,0.995-2.988,1.083c-0.321,0.031-0.598,0.045-0.835,0.045
		c-1.081,0-1.586-0.312-2.35-0.782l-0.424-0.237c-0.277-0.103-0.469-0.358-0.487-0.652l-0.023-0.326
		c-0.004-0.06-0.004-0.121-0.007-0.18C25.819,49.203,25.807,49.6,25.807,50C25.807,50.335,25.824,50.661,25.847,50.987z"/>
	<path opacity="0.08" d="M67.594,42.036c0.156,0,0.308-0.049,0.44-0.143c0.281-0.205,0.375-0.581,0.232-0.893
		c-0.151-0.34-0.331-0.662-0.498-0.992c-0.057,0.014-0.115,0.028-0.174,0.028c-0.174,0-0.344-0.058-0.482-0.174
		c-0.277-0.246-0.888-0.429-1.385-0.581c-0.223-0.067-0.433-0.134-0.63-0.201c-0.504-0.188-0.96-0.415-1.416-0.635
		c-0.218-0.103-0.438-0.215-0.665-0.312c-0.639-0.3-1.108-0.455-1.469-0.455c-0.014,0-0.026,0-0.04,0.005
		c0,0-0.192,0.178-0.143,1.237c0.01,0.227,0.039,0.523,0.098,0.844c0.025-0.058,0.045-0.081,0.045-0.081
		c0.014-0.005,0.026-0.005,0.04-0.005c0.361,0,0.83,0.156,1.469,0.455c0.228,0.097,0.447,0.209,0.665,0.312
		c0.455,0.22,0.911,0.447,1.416,0.635c0.197,0.067,0.407,0.134,0.63,0.201c0.496,0.152,1.108,0.335,1.385,0.581
		C67.25,41.978,67.42,42.036,67.594,42.036z"/>
	<path opacity="0.08" d="M50.725,46.226c0.616,0.303,1.197,0.584,1.603,0.942c0.272,0.25,0.496,0.71,0.715,1.157
		c0.175,0.367,0.353,0.747,0.595,1.073c0.406,0.585,0.75,1.045,1.375,1.518c0.295,0.218,0.599,0.357,0.867,0.473
		c0.212,0.095,0.355,0.166,0.464,0.238c0.214-0.605,0.392-1.252,0.264-1.662c-0.085-0.272-0.25-0.361-0.728-0.576
		c-0.268-0.117-0.572-0.255-0.867-0.473c-0.625-0.473-0.97-0.933-1.375-1.518c-0.241-0.326-0.42-0.706-0.595-1.073
		c-0.218-0.447-0.443-0.907-0.715-1.157c-0.406-0.358-0.987-0.639-1.603-0.942c-1.162-0.574-2.545-1.271-3.008-2.753
		c-0.093,0.254-0.162,0.51-0.171,0.765C47.46,44.627,49.277,45.511,50.725,46.226z"/>
</g>
<path opacity="0.12" d="M42.476,38.084c-0.504,0.058-0.907,0.107-1.117,0.157c-1.684,0.429-2.573,1.546-3.604,2.836
	c-0.656,0.818-1.331,1.661-2.256,2.38c-0.938,0.733-2.005,0.907-2.948,1.054c-0.652,0.107-1.277,0.21-1.827,0.478
	c-0.148,0.075-0.264,0.144-0.361,0.209c-0.225-0.252-0.384-0.483-0.362-0.628c0.009-0.085,0.175-0.304,0.724-0.581
	c0.55-0.268,1.175-0.37,1.827-0.478c0.942-0.148,2.01-0.321,2.948-1.054c0.925-0.719,1.6-1.563,2.256-2.38
	c1.031-1.29,1.92-2.407,3.604-2.836c0.21-0.049,0.613-0.098,1.117-0.157c2.407-0.298,4.627-0.652,5.377-1.741
	c0.074-0.107,0.128-0.22,0.172-0.335c0.015,0.039,0.041,0.075,0.051,0.116c0.107,0.429,0.031,0.853-0.223,1.219
	C47.104,37.432,44.883,37.786,42.476,38.084z M33.633,53.581c0.215,1.385,1.171,2.156,2.005,2.84c0.67,0.55,1.25,1.023,1.46,1.733
	c0.076,0.254,0.117,0.516,0.141,0.781c0.047-0.611,0.028-1.213-0.141-1.781c-0.21-0.71-0.79-1.183-1.46-1.733
	c-0.835-0.684-1.791-1.456-2.005-2.84c-0.003-0.017-0.001-0.033-0.003-0.051C33.585,52.868,33.574,53.215,33.633,53.581z M48,23.846
	c13.7,0,24.873,11.017,25.142,24.654c0.003-0.167,0.013-0.332,0.013-0.5c0-13.868-11.286-25.154-25.154-25.154
	c-13.873,0-25.154,11.286-25.154,25.154c0,0.168,0.009,0.333,0.013,0.5C23.127,34.863,34.295,23.846,48,23.846z M67.594,40.036
	c-0.174,0-0.344-0.058-0.482-0.174c-0.277-0.246-0.888-0.429-1.385-0.581c-0.223-0.067-0.433-0.134-0.63-0.201
	c-0.504-0.188-0.96-0.415-1.416-0.635c-0.218-0.103-0.438-0.215-0.665-0.312c-0.639-0.3-1.108-0.455-1.469-0.455
	c-0.014,0-0.026,0-0.04,0.005c0,0-0.192,0.178-0.143,1.237c0.003,0.068,0.009,0.146,0.015,0.226
	c0.042-0.375,0.128-0.463,0.128-0.463c0.014-0.005,0.026-0.005,0.04-0.005c0.361,0,0.83,0.156,1.469,0.455
	c0.228,0.097,0.447,0.209,0.665,0.312c0.455,0.22,0.911,0.447,1.416,0.635c0.197,0.067,0.407,0.134,0.63,0.201
	c0.496,0.152,1.108,0.335,1.385,0.581c0.138,0.115,0.309,0.174,0.482,0.174c0.156,0,0.308-0.049,0.44-0.143
	c0.281-0.205,0.375-0.581,0.232-0.893c-0.035-0.078-0.079-0.151-0.115-0.229c-0.036,0.043-0.07,0.088-0.117,0.122
	C67.902,39.987,67.75,40.036,67.594,40.036z M44.896,57.072c-0.076,0.169-0.076,0.402-0.076,0.665
	c-0.005,0.33-0.009,0.705-0.138,1.099c-0.295,0.893-0.96,1.273-1.497,1.577c-0.241,0.134-0.469,0.263-0.616,0.415
	c-0.518,0.513-0.853,1.532-1.117,2.35l-0.125,0.366c-0.08,0.241-0.183,0.455-0.281,0.661c-0.085,0.174-0.166,0.34-0.218,0.527
	c-0.035,0.138-0.031,0.375-0.026,0.607c0,0.33,0.005,0.701-0.085,1.054c-0.023,0.089-0.023,0.169-0.026,0.272
	c-0.005,0.317-0.018,0.902-0.831,1.3c-0.268,0.129-0.541,0.197-0.813,0.197c-0.031,0-0.178-0.009-0.21-0.014
	c-0.075-0.009-0.152-0.026-0.223-0.063l-0.492-0.237c-0.063-0.035-0.12-0.076-0.174-0.12c-0.549-0.523-0.745-1.326-0.818-1.778
	c-0.128-0.804-0.271-1.793-0.319-2.761c-0.06,1.252,0.146,2.672,0.319,3.761c0.072,0.452,0.269,1.255,0.818,1.778
	c0.054,0.045,0.111,0.085,0.174,0.12l0.492,0.237c0.071,0.037,0.148,0.054,0.223,0.063c0.032,0.005,0.18,0.014,0.21,0.014
	c0.272,0,0.545-0.067,0.813-0.197c0.813-0.398,0.827-0.983,0.831-1.3c0.003-0.103,0.003-0.183,0.026-0.272
	c0.089-0.353,0.085-0.724,0.085-1.054c-0.005-0.232-0.009-0.469,0.026-0.607c0.053-0.188,0.134-0.353,0.218-0.527
	c0.098-0.206,0.201-0.42,0.281-0.661l0.125-0.366c0.264-0.818,0.599-1.836,1.117-2.35c0.147-0.152,0.375-0.281,0.616-0.415
	c0.536-0.304,1.202-0.684,1.497-1.577c0.129-0.393,0.134-0.768,0.138-1.099c0-0.263,0-0.496,0.076-0.665
	c0.112-0.286,0.246-0.567,0.375-0.853c0.454-0.99,0.977-2.131,0.794-3.3c-0.114,0.813-0.471,1.595-0.794,2.3
	C45.142,56.504,45.008,56.786,44.896,57.072z M54.891,33.958c0.433,0.206,0.822,0.326,1.162,0.438
	c0.763,0.239,0.943,0.304,1.09,1.163c0.084-0.254,0.064-0.601,0.022-0.877c-0.152-0.987-0.312-1.036-1.112-1.286
	c-0.34-0.112-0.728-0.232-1.162-0.438c-1.196-0.558-2.034-1.062-2.338-1.651c-0.053,0.098-0.094,0.204-0.115,0.325
	C52.292,32.542,53.265,33.199,54.891,33.958z M50.725,45.226c0.616,0.303,1.197,0.584,1.603,0.942
	c0.272,0.25,0.496,0.71,0.715,1.157c0.175,0.367,0.353,0.747,0.595,1.073c0.406,0.585,0.75,1.045,1.375,1.518
	c0.295,0.218,0.599,0.357,0.867,0.473c0.413,0.186,0.588,0.284,0.684,0.482c0.079-0.343,0.119-0.668,0.044-0.906
	c-0.085-0.272-0.25-0.361-0.728-0.576c-0.268-0.117-0.572-0.255-0.867-0.473c-0.625-0.473-0.97-0.933-1.375-1.518
	c-0.241-0.326-0.42-0.706-0.595-1.073c-0.218-0.447-0.443-0.907-0.715-1.157c-0.406-0.358-0.987-0.639-1.603-0.942
	c-1.294-0.639-2.872-1.421-3.135-3.284c-0.017,0.099-0.041,0.198-0.045,0.296C47.46,43.627,49.277,44.511,50.725,45.226z
	 M25.847,49.987l0.023,0.326c0.018,0.294,0.21,0.549,0.487,0.652l0.424,0.237c0.764,0.47,1.269,0.782,2.35,0.782
	c0.237,0,0.513-0.014,0.835-0.045c1.111-0.111,3.148-0.308,3.304-1.852c0.024-0.244-0.013-0.475-0.082-0.7
	c-0.384,1.258-2.192,1.449-3.223,1.552c-0.321,0.031-0.598,0.045-0.835,0.045c-1.081,0-1.586-0.312-2.35-0.782l-0.424-0.237
	c-0.277-0.103-0.469-0.358-0.487-0.652l-0.023-0.326c-0.014-0.2-0.017-0.403-0.024-0.604c-0.006,0.206-0.016,0.411-0.016,0.617
	C25.807,49.335,25.824,49.661,25.847,49.987z M55.754,57.254c0.005,0.049,0.013,0.103,0.031,0.152
	c0.464,1.411,1.353,1.621,1.844,1.621c1.491,0,3.103-1.939,3.979-3.739c0.005-0.005,0.037-0.066,0.067-0.129
	c0.424-0.974,0.876-1.411,1.389-1.912c0.224-0.223,0.452-0.446,0.679-0.701c1.577-1.769,2.116-3.189,2.125-5.623l0.009-0.447
	c0.007-0.229,0.011-0.447-0.007-0.664l-0.002,0.111c-0.009,2.434-0.549,3.854-2.125,5.623c-0.228,0.255-0.455,0.478-0.679,0.701
	c-0.513,0.501-0.965,0.938-1.389,1.912c-0.031,0.063-0.063,0.125-0.067,0.129c-0.876,1.8-2.488,3.739-3.979,3.739
	c-0.492,0-1.38-0.21-1.844-1.621c-0.018-0.049-0.026-0.103-0.031-0.152l-0.023-0.188c-0.032-0.286-0.061-0.575-0.081-0.867
	c-0.04,0.647,0.013,1.265,0.081,1.867L55.754,57.254z"/>
</svg>
