<?xml version="1.0" encoding="utf-8"?>
<!-- Generator: Adobe Illustrator 17.1.0, SVG Export Plug-In . SVG Version: 6.00 Build 0)  -->
<!DOCTYPE svg PUBLIC "-//W3C//DTD SVG 1.1//EN" "http://www.w3.org/Graphics/SVG/1.1/DTD/svg11.dtd">
<svg version="1.1" id="图层_1" xmlns="http://www.w3.org/2000/svg" xmlns:xlink="http://www.w3.org/1999/xlink" x="0px" y="0px"
	 width="30px" height="30px" viewBox="0 0 30 30" enable-background="new 0 0 30 30" xml:space="preserve">
<rect fill="none" width="30" height="30"/>
<path fill-opacity="0.3" d="M19.768,12.23v5.292c0,1.609-1.382,3.088-3.086,3.088H5.655l-2.647,2.647V12.23
	c0-1.611,1.382-3.088,3.087-3.088H16.68C18.385,9.142,19.767,10.621,19.768,12.23z M22.942,4.744H9.058
	C7,4.744,5.319,6.39,5.061,8.298c0.334-0.091,0.677-0.156,1.035-0.156h10.585c2.214,0,4.086,1.871,4.087,4.086v5.293
	c0,0.829-0.262,1.61-0.706,2.263h3.458l3.472,3.472V8.794C26.992,6.681,25.178,4.744,22.942,4.744z"/>
<path fill-opacity="0.15" d="M3.008,25.257c-0.129,0-0.259-0.024-0.383-0.076c-0.374-0.154-0.617-0.52-0.617-0.924V13.23
	c0-1.509,0.869-2.859,2.123-3.566c-0.062-0.156-0.083-0.328-0.061-0.5c0.335-2.479,2.526-4.42,4.988-4.42h13.884
	c2.737,0,5.05,2.313,5.05,5.05v14.462c0,0.404-0.243,0.77-0.617,0.924c-0.124,0.052-0.254,0.076-0.383,0.076
	c-0.26,0-0.516-0.102-0.707-0.293l-3.18-3.179h-3.044c-0.245,0-0.477-0.09-0.655-0.245c-0.729,0.662-1.689,1.071-2.725,1.071H6.069
	l-2.354,2.354C3.523,25.155,3.268,25.257,3.008,25.257z"/>
<path fill="#F5F5F5" d="M19.768,13.23v5.292c0,1.609-1.382,3.088-3.086,3.088H5.655l-2.647,2.647V13.23
	c0-1.611,1.382-3.088,3.087-3.088H16.68C18.385,10.142,19.767,11.621,19.768,13.23z M22.942,5.744H9.058
	C7,5.744,5.319,7.39,5.061,9.298c0.334-0.091,0.677-0.156,1.035-0.156h10.585c2.214,0,4.086,1.871,4.087,4.086v5.293
	c0,0.829-0.262,1.61-0.706,2.263h3.458l3.472,3.472V9.794C26.992,7.681,25.178,5.744,22.942,5.744z"/>
</svg>
