<?xml version="1.0" encoding="utf-8"?>
<!-- Generator: Adobe Illustrator 17.1.0, SVG Export Plug-In . SVG Version: 6.00 Build 0)  -->
<!DOCTYPE svg PUBLIC "-//W3C//DTD SVG 1.1//EN" "http://www.w3.org/Graphics/SVG/1.1/DTD/svg11.dtd">
<svg version="1.1" id="图层_1" xmlns="http://www.w3.org/2000/svg" xmlns:xlink="http://www.w3.org/1999/xlink" x="0px" y="0px"
	 width="40px" height="40px" viewBox="0 0 40 40" enable-background="new 0 0 40 40" xml:space="preserve">
<g>
	<rect x="2" y="2" fill="none" width="36" height="36"/>
	<path fill="#FFFFFF" d="M25.722,19.076v6.35c0,1.931-1.658,3.706-3.703,3.706H8.786L5.61,32.308V19.076
		c0-1.933,1.658-3.706,3.704-3.706h12.702C24.062,15.37,25.72,17.145,25.722,19.076z M29.53,10.093H12.87
		c-2.47,0-4.487,1.975-4.796,4.265c0.401-0.109,0.812-0.187,1.242-0.187h12.702c2.657,0,4.903,2.245,4.904,4.903v6.352
		c0,0.995-0.314,1.932-0.847,2.716h4.15l4.166,4.166V14.953C34.39,12.417,32.214,10.093,29.53,10.093z"/>
	
		<linearGradient id="SVGID_1_" gradientUnits="userSpaceOnUse" x1="20" y1="33.1072" x2="20" y2="10.8916" gradientTransform="matrix(1 0 0 -1 0 42)">
		<stop  offset="0" style="stop-color:#000000"/>
		<stop  offset="1" style="stop-color:#636363"/>
	</linearGradient>
	<path fill="url(#SVGID_1_)" d="M25.722,17.876v6.35c0,1.931-1.658,3.706-3.703,3.706H8.786L5.61,31.108V17.876
		c0-1.933,1.658-3.706,3.704-3.706h12.702C24.062,14.17,25.72,15.945,25.722,17.876z M29.53,8.893H12.87
		c-2.47,0-4.487,1.975-4.796,4.265c0.401-0.109,0.812-0.187,1.242-0.187h12.702c2.657,0,4.903,2.245,4.904,4.903v6.352
		c0,0.995-0.314,1.932-0.847,2.716h4.15l4.166,4.166V13.753C34.39,11.217,32.214,8.893,29.53,8.893z"/>
</g>
</svg>
