<?xml version="1.0" encoding="utf-8"?>
<!-- Generator: Adobe Illustrator 17.1.0, SVG Export Plug-In . SVG Version: 6.00 Build 0)  -->
<!DOCTYPE svg PUBLIC "-//W3C//DTD SVG 1.1//EN" "http://www.w3.org/Graphics/SVG/1.1/DTD/svg11.dtd">
<svg version="1.1" id="图层_1" xmlns="http://www.w3.org/2000/svg" xmlns:xlink="http://www.w3.org/1999/xlink" x="0px" y="0px"
	 width="40px" height="40px" viewBox="0 0 40 40" enable-background="new 0 0 40 40" xml:space="preserve">
<g>
	<rect x="2" y="2" fill="none" width="36" height="36"/>
	<path fill-opacity="0.3" d="M25.722,16.676v6.35c0,1.931-1.658,3.706-3.703,3.706H8.786L5.61,29.908V16.676
		c0-1.933,1.658-3.706,3.704-3.706h12.702C24.062,12.97,25.72,14.745,25.722,16.676z M29.53,7.693H12.87
		c-2.47,0-4.487,1.975-4.796,4.265c0.401-0.109,0.812-0.187,1.242-0.187h12.702c2.657,0,4.903,2.245,4.904,4.903v6.352
		c0,0.995-0.314,1.932-0.847,2.716h4.15l4.166,4.166V12.553C34.39,10.017,32.214,7.693,29.53,7.693z"/>
	<path fill-opacity="0.15" d="M5.61,32.308c-0.155,0-0.311-0.029-0.46-0.091c-0.449-0.185-0.74-0.624-0.74-1.109V17.876
		c0-1.811,1.043-3.431,2.548-4.279c-0.074-0.187-0.1-0.394-0.073-0.6c0.402-2.975,3.031-5.304,5.986-5.304H29.53
		c3.284,0,6.06,2.776,6.06,6.06v17.354c0,0.485-0.292,0.924-0.74,1.109c-0.149,0.062-0.305,0.091-0.46,0.091
		c-0.312,0-0.619-0.122-0.848-0.352l-3.816-3.815h-3.653c-0.294,0-0.572-0.108-0.786-0.294c-0.875,0.794-2.027,1.285-3.27,1.285
		H9.283l-2.825,2.825C6.228,32.186,5.922,32.308,5.61,32.308z"/>
	<path fill="#F5F5F5" d="M25.722,17.876v6.35c0,1.931-1.658,3.706-3.703,3.706H8.786L5.61,31.108V17.876
		c0-1.933,1.658-3.706,3.704-3.706h12.702C24.062,14.17,25.72,15.945,25.722,17.876z M29.53,8.893H12.87
		c-2.47,0-4.487,1.975-4.796,4.265c0.401-0.109,0.812-0.187,1.242-0.187h12.702c2.657,0,4.903,2.245,4.904,4.903v6.352
		c0,0.995-0.314,1.932-0.847,2.716h4.15l4.166,4.166V13.753C34.39,11.217,32.214,8.893,29.53,8.893z"/>
</g>
</svg>
