<?xml version="1.0" encoding="utf-8"?>
<!-- Generator: Adobe Illustrator 17.1.0, SVG Export Plug-In . SVG Version: 6.00 Build 0)  -->
<!DOCTYPE svg PUBLIC "-//W3C//DTD SVG 1.1//EN" "http://www.w3.org/Graphics/SVG/1.1/DTD/svg11.dtd">
<svg version="1.1" id="图层_1" xmlns="http://www.w3.org/2000/svg" xmlns:xlink="http://www.w3.org/1999/xlink" x="0px" y="0px"
	 width="30px" height="30px" viewBox="0 0 30 30" enable-background="new 0 0 30 30" xml:space="preserve">
<rect fill="none" width="30" height="30"/>
<path fill="#FFFFFF" d="M19.768,14.23v5.292c0,1.609-1.382,3.088-3.086,3.088H5.655l-2.647,2.647V14.23
	c0-1.611,1.382-3.088,3.087-3.088h10.585C18.385,11.142,19.767,12.621,19.768,14.23z M22.942,6.744H9.058
	C7,6.744,5.319,8.39,5.061,10.298c0.334-0.091,0.677-0.156,1.035-0.156h10.585c2.214,0,4.086,1.871,4.087,4.086v5.293
	c0,0.829-0.262,1.61-0.706,2.263h3.458l3.472,3.472V10.794C26.992,8.681,25.178,6.744,22.942,6.744z"/>
<linearGradient id="SVGID_1_" gradientUnits="userSpaceOnUse" x1="15" y1="5.7438" x2="15" y2="24.2562">
	<stop  offset="0" style="stop-color:#000000"/>
	<stop  offset="1" style="stop-color:#636363"/>
</linearGradient>
<path fill="url(#SVGID_1_)" d="M19.768,13.23v5.292c0,1.609-1.382,3.088-3.086,3.088H5.655l-2.647,2.647V13.23
	c0-1.611,1.382-3.088,3.087-3.088h10.585C18.385,10.142,19.767,11.621,19.768,13.23z M22.942,5.744H9.058
	C7,5.744,5.319,7.39,5.061,9.298c0.334-0.091,0.677-0.156,1.035-0.156h10.585c2.214,0,4.086,1.871,4.087,4.086v5.293
	c0,0.829-0.262,1.61-0.706,2.263h3.458l3.472,3.472V9.794C26.992,7.681,25.178,5.744,22.942,5.744z"/>
</svg>
