<?xml version="1.0" encoding="utf-8"?>
<!-- Generator: Adobe Illustrator 17.1.0, SVG Export Plug-In . SVG Version: 6.00 Build 0)  -->
<!DOCTYPE svg PUBLIC "-//W3C//DTD SVG 1.1//EN" "http://www.w3.org/Graphics/SVG/1.1/DTD/svg11.dtd">
<svg version="1.1" id="图层_1" xmlns="http://www.w3.org/2000/svg" xmlns:xlink="http://www.w3.org/1999/xlink" x="0px" y="0px"
	 width="96px" height="96px" viewBox="0 0 96 96" enable-background="new 0 0 96 96" xml:space="preserve">
<rect fill="none" width="96" height="96"/>
<path fill-opacity="0.4" d="M88,49c0,29.6-10.4,40-40,40S8,78.6,8,49S18.4,9,48,9C77.7,9,88,19.4,88,49z"/>
<linearGradient id="SVGID_1_" gradientUnits="userSpaceOnUse" x1="25.6602" y1="-13.96" x2="25.6602" y2="-93.96" gradientTransform="matrix(1 0 0 -1 22.3398 -5.96)">
	<stop  offset="0" style="stop-color:#FAFAFA"/>
	<stop  offset="0.3317" style="stop-color:#F1F1F1"/>
	<stop  offset="0.8711" style="stop-color:#D9D9D9"/>
	<stop  offset="1" style="stop-color:#D2D2D2"/>
</linearGradient>
<path fill="url(#SVGID_1_)" d="M8,48c0,29.6,10.4,40,40,40s40-10.4,40-40c0-29-9.9-39.5-38.1-40h-3.8C17.9,8.5,8,19,8,48z"/>
<path opacity="0.5" fill="#FFFFFF" d="M43.555,70.917c-1.361,0-2.467-1.107-2.467-2.467v-8.694
	c-0.165,0.166-0.394,0.269-0.647,0.269H29.549c-1.361,0-2.467-1.107-2.467-2.468V29.55c0-1.361,1.107-2.467,2.467-2.467h18.672
	c0.242,0,0.473,0.096,0.644,0.267l7.78,7.78c0.171,0.171,0.267,0.403,0.267,0.644v1.556c0,0.252-0.102,0.48-0.267,0.645h5.582
	c0.242,0,0.473,0.096,0.644,0.267l7.78,7.78c0.171,0.171,0.267,0.403,0.267,0.644v21.784c0,1.36-1.107,2.467-2.467,2.467H43.555z
	 M48.07,59.98c-0.356,0-0.645,0.289-0.645,0.645c0,0.355,0.289,0.644,0.645,0.644h15.862c0.355,0,0.643-0.289,0.643-0.644
	c0-0.356-0.289-0.645-0.645-0.645H48.07z M48.07,53.759c-0.362,0-0.645,0.283-0.645,0.644c0,0.356,0.289,0.645,0.645,0.645h15.862
	c0.171,0,0.332-0.068,0.454-0.19c0.123-0.122,0.19-0.284,0.19-0.455c0-0.362-0.283-0.645-0.645-0.645H48.07z M34.066,49.088
	c-0.355,0-0.644,0.289-0.644,0.645c0,0.355,0.289,0.644,0.644,0.644h6.375c0.253,0,0.481,0.103,0.647,0.269v-1.825
	c-0.165,0.165-0.393,0.267-0.645,0.267H34.066z M48.07,47.532c-0.356,0-0.645,0.289-0.645,0.645c0,0.356,0.289,0.645,0.645,0.645
	h15.862c0.355,0,0.643-0.289,0.643-0.645c0-0.356-0.289-0.645-0.645-0.645H48.07z M34.066,42.864c-0.355,0-0.644,0.289-0.644,0.644
	c0,0.356,0.289,0.645,0.644,0.645h6.377c0.252,0,0.48,0.102,0.645,0.267v-1.824c-0.165,0.165-0.393,0.267-0.645,0.267H34.066z
	 M34.066,36.64c-0.355,0-0.644,0.289-0.644,0.645s0.289,0.645,0.644,0.645H40.9c0.329,0,0.633,0.178,0.794,0.464
	c0.056,0.099,0.092,0.205,0.108,0.314c0.448-0.452,1.068-0.733,1.753-0.733h7.272c-0.165-0.165-0.267-0.393-0.267-0.645
	c0-0.036,0.003-0.075,0.008-0.114c-0.035-0.323-0.309-0.576-0.642-0.576H34.066z"/>
<path opacity="0.5" fill="#FFFFFF" d="M34.066,51.289c-0.86,0-1.556-0.696-1.556-1.556s0.696-1.556,1.556-1.556h6.377v-3.112h-6.377
	c-0.86,0-1.556-0.696-1.556-1.556c0-0.86,0.696-1.556,1.556-1.556h6.377v-1.511c0-0.587,0.173-1.131,0.457-1.601h-6.834
	c-0.86,0-1.556-0.696-1.556-1.556c0-0.86,0.696-1.556,1.556-1.556h15.86c0.86,0,1.556,0.696,1.556,1.556
	c0,0.016-0.011,0.031-0.011,0.045h4.53v-1.556l-7.78-7.78H29.549c-0.854,0-1.556,0.7-1.556,1.556v28.008
	c0,0.856,0.702,1.556,1.556,1.556h10.892v-7.825H34.066z M62.227,38.886H43.555c-0.854,0-1.556,0.7-1.556,1.556V68.45
	c0,0.856,0.702,1.556,1.556,1.556h24.896c0.857,0,1.556-0.7,1.556-1.556V46.666L62.227,38.886z M63.932,62.181H48.07
	c-0.86,0-1.556-0.696-1.556-1.556s0.696-1.556,1.556-1.556h15.861c0.86,0,1.556,0.696,1.556,1.556S64.791,62.181,63.932,62.181z
	 M63.932,55.96H48.07c-0.86,0-1.556-0.696-1.556-1.556c0-0.864,0.696-1.556,1.556-1.556h15.861c0.86,0,1.556,0.692,1.556,1.556
	C65.488,55.26,64.791,55.96,63.932,55.96z M63.932,49.733H48.07c-0.86,0-1.556-0.696-1.556-1.556s0.696-1.556,1.556-1.556h15.861
	c0.86,0,1.556,0.696,1.556,1.556S64.791,49.733,63.932,49.733z"/>
<linearGradient id="SVGID_2_" gradientUnits="userSpaceOnUse" x1="25.6602" y1="-13.96" x2="25.6602" y2="-93.96" gradientTransform="matrix(1 0 0 -1 22.3398 -5.96)">
	<stop  offset="0" style="stop-color:#FFFFFF"/>
	<stop  offset="0.2292" style="stop-color:#FBFBFB"/>
	<stop  offset="0.4667" style="stop-color:#F0EFEE"/>
	<stop  offset="0.7079" style="stop-color:#DCDBDA"/>
	<stop  offset="0.9504" style="stop-color:#C1C0BD"/>
	<stop  offset="1" style="stop-color:#BBB9B6"/>
</linearGradient>
<path fill="url(#SVGID_2_)" fill-opacity="0.8" d="M48,8C18.4,8,8,18.4,8,48s10.4,40,40,40s40-10.4,40-40S77.6,8,48,8z M48,87
	C18.8,87,9,77.2,9,48S18.8,9,48,9s39,9.8,39,39S77.2,87,48,87z"/>
<linearGradient id="SVGID_3_" gradientUnits="userSpaceOnUse" x1="49" y1="27.0824" x2="49" y2="69.0949">
	<stop  offset="0" style="stop-color:#414141"/>
	<stop  offset="1" style="stop-color:#6E6E6E"/>
</linearGradient>
<path fill="url(#SVGID_3_)" d="M34.066,50.378c-0.86,0-1.556-0.696-1.556-1.556s0.696-1.556,1.556-1.556h6.377v-3.112h-6.377
	c-0.86,0-1.556-0.696-1.556-1.556s0.696-1.556,1.556-1.556h6.377v-1.511c0-0.587,0.173-1.131,0.457-1.601h-6.834
	c-0.86,0-1.556-0.696-1.556-1.556s0.696-1.556,1.556-1.556h15.86c0.86,0,1.556,0.696,1.556,1.556c0,0.016-0.011,0.031-0.011,0.045
	h4.53v-1.556l-7.78-7.78H29.549c-0.854,0-1.556,0.7-1.556,1.556v28.008c0,0.856,0.702,1.556,1.556,1.556h10.892v-7.825H34.066z
	 M62.227,37.975H43.555c-0.854,0-1.556,0.7-1.556,1.556v28.008c0,0.856,0.702,1.556,1.556,1.556h24.896
	c0.857,0,1.556-0.7,1.556-1.556V45.755L62.227,37.975z M63.932,61.27H48.07c-0.86,0-1.556-0.696-1.556-1.556
	s0.696-1.556,1.556-1.556h15.861c0.86,0,1.556,0.696,1.556,1.556S64.791,61.27,63.932,61.27z M63.932,55.049H48.07
	c-0.86,0-1.556-0.696-1.556-1.556c0-0.864,0.696-1.556,1.556-1.556h15.861c0.86,0,1.556,0.692,1.556,1.556
	C65.488,54.349,64.791,55.049,63.932,55.049z M63.932,48.822H48.07c-0.86,0-1.556-0.696-1.556-1.556c0-0.86,0.696-1.556,1.556-1.556
	h15.861c0.86,0,1.556,0.696,1.556,1.556C65.487,48.126,64.791,48.822,63.932,48.822z"/>
<g opacity="0.1">
	<path d="M63.931,57.246H48.07c-1.36,0-2.467,1.107-2.467,2.468c0,1.36,1.107,2.467,2.467,2.467h15.862
		c1.36,0,2.466-1.107,2.466-2.467C66.398,58.353,65.291,57.246,63.931,57.246z M63.932,61.27H48.07c-0.86,0-1.556-0.696-1.556-1.556
		c0-0.86,0.695-1.556,1.556-1.556h15.86c0.861,0,1.556,0.696,1.556,1.556C65.487,60.574,64.791,61.27,63.932,61.27z"/>
	<path d="M32.51,36.373c0-0.86,0.696-1.556,1.556-1.556h15.86c0.861,0,1.556,0.696,1.556,1.556c0,0.016-0.011,0.031-0.011,0.045
		h4.53v-1.556l-7.78-7.78H29.549c-0.854,0-1.556,0.7-1.556,1.556v28.008c0,0.856,0.702,1.556,1.556,1.556h10.892v-7.825h-6.375
		c-0.861,0-1.556-0.696-1.556-1.556c0-0.86,0.696-1.556,1.556-1.556h6.377v-3.112h-6.377c-0.861,0-1.556-0.696-1.556-1.556
		c0-0.86,0.696-1.556,1.556-1.556h6.377v-1.511c0-0.587,0.173-1.131,0.457-1.601h-6.834C33.206,37.929,32.51,37.234,32.51,36.373z
		 M39.531,39.531v0.6h-5.465c-1.36,0-2.467,1.107-2.467,2.467c0,1.361,1.107,2.467,2.467,2.467h5.465v1.29h-5.465
		c-1.36,0-2.467,1.107-2.467,2.468c0,1.36,1.107,2.467,2.467,2.467h5.464v6.003h-9.982c-0.349,0-0.644-0.295-0.644-0.645V28.639
		c0-0.349,0.295-0.645,0.644-0.645h18.295l7.246,7.246v0.267h-2.852c-0.352-0.934-1.255-1.601-2.311-1.601H34.066
		c-1.36,0-2.467,1.107-2.467,2.467c0,1.361,1.107,2.467,2.467,2.467h5.527C39.552,39.069,39.531,39.3,39.531,39.531z"/>
	<path d="M62.227,37.975H43.555c-0.854,0-1.556,0.7-1.556,1.556v28.008c0,0.856,0.702,1.556,1.556,1.556h24.896
		c0.857,0,1.556-0.7,1.556-1.556V45.755L62.227,37.975z M69.096,67.539c0,0.355-0.289,0.644-0.644,0.644H43.554
		c-0.349,0-0.644-0.295-0.644-0.644V39.531c0-0.349,0.295-0.645,0.644-0.645H61.85l7.246,7.246V67.539z"/>
	<path d="M45.603,47.265c0,1.361,1.107,2.468,2.467,2.468h15.862c1.36,0,2.466-1.107,2.466-2.468c0-1.361-1.107-2.467-2.468-2.467
		H48.07C46.71,44.798,45.603,45.905,45.603,47.265z M63.931,45.71c0.861,0,1.556,0.696,1.556,1.556s-0.696,1.556-1.555,1.556H48.07
		c-0.86,0-1.556-0.696-1.556-1.556s0.695-1.556,1.556-1.556H63.931z"/>
	<path d="M63.931,51.025H48.07c-1.36,0-2.467,1.107-2.467,2.467c0,1.361,1.107,2.468,2.467,2.468h15.862
		c0.659,0,1.278-0.257,1.743-0.724c0.467-0.467,0.724-1.087,0.723-1.745C66.398,52.133,65.291,51.025,63.931,51.025z M63.932,55.049
		H48.07c-0.86,0-1.556-0.696-1.556-1.556c0-0.864,0.695-1.556,1.556-1.556h15.86c0.861,0,1.556,0.692,1.556,1.556
		C65.488,54.349,64.791,55.049,63.932,55.049z"/>
</g>
<g opacity="0.05">
	<path d="M32.51,36.373c0-0.86,0.696-1.556,1.556-1.556h15.86c0.861,0,1.556,0.696,1.556,1.556c0,0.016-0.011,0.031-0.011,0.045
		h4.53v-1.556l-7.78-7.78H29.549c-0.854,0-1.556,0.7-1.556,1.556v28.008c0,0.856,0.702,1.556,1.556,1.556h10.892v-7.825h-6.375
		c-0.861,0-1.556-0.696-1.556-1.556c0-0.86,0.696-1.556,1.556-1.556h6.377v-3.112h-6.377c-0.861,0-1.556-0.696-1.556-1.556
		c0-0.86,0.696-1.556,1.556-1.556h6.377v-1.511c0-0.587,0.173-1.131,0.457-1.601h-6.834C33.206,37.929,32.51,37.234,32.51,36.373z
		 M30.688,42.597c0,1.397,0.852,2.598,2.063,3.112c-1.211,0.514-2.063,1.716-2.063,3.113c0,1.863,1.516,3.378,3.378,3.378h4.553
		v4.18h-8.803V28.905h17.651l5.69,5.691h-0.358c-0.609-0.978-1.695-1.601-2.873-1.601H34.066c-1.863,0-3.378,1.516-3.378,3.379
		c0,1.397,0.852,2.598,2.063,3.112C31.539,40,30.688,41.201,30.688,42.597z"/>
	<path d="M62.227,37.975H43.555c-0.854,0-1.556,0.7-1.556,1.556v28.008c0,0.856,0.702,1.556,1.556,1.556h24.896
		c0.857,0,1.556-0.7,1.556-1.556V45.755L62.227,37.975z M68.184,67.272H43.821V39.797h17.651l6.712,6.712V67.272z"/>
	<path d="M44.692,47.265c0,1.398,0.853,2.6,2.066,3.114c-1.213,0.513-2.066,1.715-2.066,3.113c0,1.395,0.85,2.596,2.059,3.111
		c-1.209,0.514-2.059,1.715-2.059,3.11c0,1.863,1.516,3.378,3.378,3.378h15.862c1.863,0,3.377-1.516,3.377-3.378
		c0-1.395-0.849-2.594-2.057-3.109c0.393-0.168,0.756-0.412,1.068-0.724c0.638-0.638,0.99-1.487,0.989-2.389
		c0-1.396-0.853-2.598-2.066-3.111c1.213-0.513,2.066-1.716,2.066-3.114c0-1.863-1.516-3.379-3.379-3.379H48.07
		C46.207,43.887,44.692,45.402,44.692,47.265z M65.487,59.714c0,0.86-0.696,1.556-1.555,1.556H48.07
		c-0.86,0-1.556-0.696-1.556-1.556c0-0.86,0.695-1.556,1.556-1.556h15.86C64.791,58.158,65.487,58.853,65.487,59.714z
		 M65.487,53.493c0.002,0.856-0.696,1.556-1.555,1.556H48.07c-0.86,0-1.556-0.696-1.556-1.556c0-0.864,0.695-1.556,1.556-1.556
		h15.86C64.791,51.937,65.487,52.629,65.487,53.493z M63.931,45.71c0.861,0,1.556,0.696,1.556,1.556s-0.696,1.556-1.555,1.556H48.07
		c-0.86,0-1.556-0.696-1.556-1.556s0.695-1.556,1.556-1.556H63.931z"/>
</g>
<g opacity="0.04">
	<path d="M47.197,58.426c0.249-0.169,0.55-0.268,0.874-0.268h15.86c0.324,0,0.625,0.099,0.873,0.268
		c0.412-0.281,0.684-0.754,0.683-1.288c0-0.864-0.696-1.556-1.556-1.556H48.07c-0.861,0-1.556,0.692-1.556,1.556
		C46.514,57.674,46.785,58.146,47.197,58.426z"/>
	<path d="M29.549,30.728h18.672l5.691,5.691h2.089v-1.556l-7.78-7.78H29.549c-0.854,0-1.556,0.7-1.556,1.556v3.645
		C27.993,31.428,28.695,30.728,29.549,30.728z"/>
	<path d="M48.07,64.915h15.862c0.859,0,1.555-0.696,1.555-1.556c0-0.86-0.696-1.556-1.556-1.556H48.07
		c-0.861,0-1.556,0.696-1.556,1.556C46.514,64.219,47.21,64.915,48.07,64.915z"/>
	<path d="M47.2,52.201c0.248-0.167,0.548-0.265,0.87-0.265h15.86c0.323,0,0.622,0.097,0.871,0.265
		c0.414-0.279,0.685-0.753,0.685-1.291c0-0.86-0.696-1.556-1.556-1.556H48.07c-0.861,0-1.556,0.696-1.556,1.556
		C46.514,51.449,46.786,51.922,47.2,52.201z"/>
	<path d="M62.227,37.975h-6.759l0.533,0.533v1.556h-4.53c0-0.014,0.011-0.03,0.011-0.045c0-0.86-0.696-1.556-1.556-1.556h-7.496
		c-0.266,0.279-0.432,0.654-0.432,1.068v3.645c0-0.856,0.702-1.556,1.556-1.556h18.672l7.78,7.78v-3.645L62.227,37.975z"/>
	<path d="M32.51,46.243c0,0.537,0.271,1.01,0.684,1.289c0.249-0.168,0.549-0.267,0.872-0.267h6.377v-2.579h-6.377
		C33.206,44.687,32.51,45.382,32.51,46.243z"/>
	<path d="M34.066,38.463c-0.861,0-1.556,0.696-1.556,1.556c0,0.537,0.271,1.01,0.684,1.289c0.249-0.168,0.549-0.267,0.872-0.267
		h6.377v-1.511c0-0.377,0.078-0.734,0.204-1.068H34.066z"/>
	<path d="M34.066,50.911c-0.861,0-1.556,0.696-1.556,1.556c0,0.861,0.696,1.556,1.556,1.556h6.375v-3.112H34.066z"/>
</g>
<g opacity="0.06">
	<path d="M48.07,57.783h15.862c0.859,0,1.556-0.7,1.555-1.556c0-0.597-0.337-1.106-0.826-1.368c-0.218,0.117-0.464,0.19-0.728,0.19
		H48.07c-0.266,0-0.512-0.072-0.73-0.189c-0.49,0.261-0.826,0.77-0.826,1.367C46.514,57.087,47.21,57.783,48.07,57.783z"/>
	<path d="M48.07,51.555h15.862c0.859,0,1.555-0.696,1.555-1.556c0-0.595-0.336-1.105-0.826-1.367
		c-0.218,0.117-0.464,0.189-0.728,0.189H48.07c-0.265,0-0.511-0.072-0.73-0.189c-0.49,0.262-0.826,0.772-0.826,1.367
		C46.514,50.86,47.21,51.555,48.07,51.555z"/>
	<path d="M29.549,29.816h18.672l6.602,6.602h1.178v-1.556l-7.78-7.78H29.549c-0.854,0-1.556,0.7-1.556,1.556v2.734
		C27.993,30.517,28.695,29.816,29.549,29.816z"/>
	<path d="M48.07,64.004h15.862c0.859,0,1.555-0.696,1.555-1.556c0-0.595-0.336-1.105-0.826-1.367
		c-0.218,0.117-0.464,0.189-0.728,0.189H48.07c-0.265,0-0.511-0.072-0.73-0.189c-0.49,0.262-0.826,0.772-0.826,1.367
		C46.514,63.308,47.21,64.004,48.07,64.004z"/>
	<path d="M33.336,50.189c-0.49,0.262-0.826,0.772-0.826,1.367c0,0.861,0.696,1.556,1.556,1.556h6.375v-2.734h-6.375
		C33.801,50.378,33.555,50.305,33.336,50.189z"/>
	<path d="M62.227,37.975h-6.226v1.178h-4.53c0-0.014,0.011-0.03,0.011-0.045c0-0.448-0.191-0.849-0.494-1.133h-7.434
		c-0.854,0-1.556,0.7-1.556,1.556v2.734c0-0.856,0.702-1.556,1.556-1.556h18.672l7.78,7.78v-2.734L62.227,37.975z"/>
	<path d="M33.336,43.964c-0.49,0.262-0.826,0.772-0.826,1.367c0,0.861,0.696,1.556,1.556,1.556h6.377v-2.734h-6.377
		C33.801,44.154,33.555,44.081,33.336,43.964z"/>
	<path d="M33.336,37.74c-0.49,0.262-0.826,0.772-0.826,1.367c0,0.861,0.696,1.556,1.556,1.556h6.377v-1.133
		c0-0.587,0.173-1.131,0.457-1.601h-6.834C33.801,37.929,33.555,37.857,33.336,37.74z"/>
</g>
<g opacity="0.08">
	<path d="M48.07,63.092h15.862c0.859,0,1.555-0.696,1.555-1.556c0-0.342-0.113-0.655-0.299-0.911
		c-0.283,0.389-0.738,0.645-1.255,0.645H48.07c-0.519,0-0.974-0.255-1.257-0.645c-0.186,0.256-0.299,0.57-0.299,0.911
		C46.514,62.397,47.21,63.092,48.07,63.092z"/>
	<path d="M48.07,56.871h15.862c0.859,0,1.556-0.7,1.555-1.556c0-0.343-0.113-0.656-0.299-0.912
		c-0.283,0.389-0.738,0.646-1.255,0.646H48.07c-0.519,0-0.975-0.256-1.257-0.645c-0.186,0.256-0.299,0.569-0.299,0.912
		C46.514,56.176,47.21,56.871,48.07,56.871z"/>
	<path d="M29.549,28.905h18.672l7.514,7.514h0.267v-1.556l-7.78-7.78H29.549c-0.854,0-1.556,0.7-1.556,1.556v1.823
		C27.993,29.605,28.695,28.905,29.549,28.905z"/>
	<path d="M48.07,50.644h15.862c0.859,0,1.555-0.696,1.555-1.556c0-0.342-0.113-0.655-0.299-0.911
		c-0.283,0.389-0.738,0.645-1.255,0.645H48.07c-0.519,0-0.974-0.255-1.257-0.645c-0.186,0.256-0.299,0.57-0.299,0.911
		C46.514,49.949,47.21,50.644,48.07,50.644z"/>
	<path d="M62.227,37.975h-6.226v0.267h-4.53c0-0.014,0.011-0.03,0.011-0.045c0-0.076-0.012-0.149-0.022-0.221h-7.906
		c-0.854,0-1.556,0.7-1.556,1.556v1.823c0-0.856,0.702-1.556,1.556-1.556h18.672l7.78,7.78v-1.823L62.227,37.975z"/>
	<path d="M32.809,49.733c-0.186,0.256-0.299,0.57-0.299,0.911c0,0.861,0.696,1.556,1.556,1.556h6.375v-1.823h-6.375
		C33.547,50.378,33.092,50.122,32.809,49.733z"/>
	<path d="M32.809,37.285c-0.186,0.256-0.299,0.57-0.299,0.911c0,0.861,0.696,1.556,1.556,1.556h6.377v-0.221
		c0-0.587,0.173-1.131,0.457-1.601h-6.834C33.547,37.929,33.092,37.674,32.809,37.285z"/>
	<path d="M32.809,43.509c-0.186,0.256-0.299,0.57-0.299,0.911c0,0.861,0.696,1.556,1.556,1.556h6.377v-1.823h-6.377
		C33.547,44.154,33.092,43.898,32.809,43.509z"/>
</g>
<g>
	<path opacity="0.12" d="M48.07,62.181h15.862c0.859,0,1.555-0.696,1.555-1.556c0-0.16-0.031-0.311-0.075-0.456
		c-0.195,0.636-0.78,1.1-1.479,1.1H48.07c-0.701,0-1.285-0.464-1.481-1.1c-0.045,0.145-0.075,0.296-0.075,0.456
		C46.514,61.485,47.21,62.181,48.07,62.181z"/>
	<path opacity="0.12" d="M48.07,55.96h15.862c0.859,0,1.556-0.7,1.555-1.556c0-0.16-0.031-0.311-0.075-0.456
		c-0.195,0.634-0.78,1.101-1.479,1.101H48.07c-0.701,0-1.286-0.465-1.481-1.101c-0.044,0.145-0.075,0.296-0.075,0.456
		C46.514,55.265,47.21,55.96,48.07,55.96z"/>
	<path opacity="0.12" d="M48.07,49.733h15.862c0.859,0,1.555-0.696,1.555-1.556c0-0.16-0.031-0.311-0.075-0.456
		c-0.195,0.636-0.78,1.1-1.479,1.1H48.07c-0.701,0-1.285-0.464-1.481-1.1c-0.045,0.145-0.075,0.296-0.075,0.456
		C46.514,49.037,47.21,49.733,48.07,49.733z"/>
	<path opacity="0.12" d="M29.549,27.994h18.672l7.78,7.78v-0.911l-7.78-7.78H29.549c-0.854,0-1.556,0.7-1.556,1.556v0.911
		C27.993,28.694,28.695,27.994,29.549,27.994z"/>
	<path opacity="0.12" d="M32.586,49.277c-0.045,0.145-0.076,0.296-0.076,0.456c0,0.861,0.696,1.556,1.556,1.556h6.375v-0.911h-6.375
		C33.365,50.378,32.781,49.913,32.586,49.277z"/>
	<path opacity="0.12" d="M62.227,37.975H43.555c-0.854,0-1.556,0.7-1.556,1.556v0.911c0-0.856,0.702-1.556,1.556-1.556h18.672
		l7.78,7.78v-0.911L62.227,37.975z"/>
	<path opacity="0.12" d="M32.586,36.829c-0.045,0.145-0.076,0.296-0.076,0.456c0,0.861,0.696,1.556,1.556,1.556h6.465
		c0.077-0.325,0.2-0.632,0.369-0.911h-6.834C33.365,37.929,32.781,37.465,32.586,36.829z"/>
	<path opacity="0.12" d="M32.586,43.053c-0.045,0.145-0.076,0.296-0.076,0.456c0,0.861,0.696,1.556,1.556,1.556h6.377v-0.911h-6.377
		C33.365,44.154,32.781,43.689,32.586,43.053z"/>
</g>
</svg>
