<?xml version="1.0" encoding="utf-8"?>
<!-- Generator: Adobe Illustrator 17.1.0, SVG Export Plug-In . SVG Version: 6.00 Build 0)  -->
<!DOCTYPE svg PUBLIC "-//W3C//DTD SVG 1.1//EN" "http://www.w3.org/Graphics/SVG/1.1/DTD/svg11.dtd">
<svg version="1.1" id="图层_1" xmlns="http://www.w3.org/2000/svg" xmlns:xlink="http://www.w3.org/1999/xlink" x="0px" y="0px"
	 width="30px" height="30px" viewBox="0 0 30 30" enable-background="new 0 0 30 30" xml:space="preserve">
<path fill-opacity="0.15" d="M4.355,27c-0.451,0-0.853-0.198-1.103-0.544c-0.272-0.377-0.329-0.867-0.159-1.379l1.955-5.863
	c0.203-0.605,0.697-1.404,1.15-1.861l11.099-11.09c0.195-0.195,0.451-0.292,0.707-0.292c0.072,0,0.145,0.008,0.216,0.023
	c-0.072-0.323,0.017-0.675,0.268-0.927l1.252-1.255C20.266,3.288,20.963,3,21.706,3c0.744,0,1.441,0.288,1.965,0.811l2.518,2.519
	C26.712,6.853,27,7.551,27,8.294c0,0.744-0.288,1.441-0.813,1.964l-1.249,1.252c-0.188,0.188-0.441,0.294-0.707,0.294H24.23
	c-0.074,0-0.147-0.008-0.218-0.024c0.016,0.072,0.024,0.146,0.024,0.221c0,0.266-0.105,0.52-0.293,0.708L12.649,23.798
	c-0.458,0.454-1.257,0.947-1.861,1.151l-5.865,1.954C4.732,26.967,4.54,27,4.355,27C4.355,27,4.355,27,4.355,27z M7.526,22.478
	l1.183-0.414L7.94,21.293L7.526,22.478z"/>
<rect fill="none" width="30" height="30"/>
<path fill-opacity="0.3" d="M6.908,17.058c-0.345,0.347-0.756,1.01-0.911,1.472l-1.954,5.862c-0.154,0.463,0.099,0.718,0.564,0.562
	l5.861-1.952c0.465-0.157,1.125-0.565,1.474-0.911l11.095-11.089L18.005,5.97L6.908,17.058z M9.762,21.754l-2.669,0.934
	l-0.776-0.782l0.933-2.669l0.524-0.527l2.514,2.52L9.762,21.754z M25.481,6.036l-2.517-2.518c-0.692-0.691-1.823-0.691-2.516,0
	l-1.252,1.255l5.034,5.032l1.251-1.254C26.173,7.861,26.173,6.728,25.481,6.036z"/>
<path fill="#F5F5F5" d="M6.908,18.058c-0.345,0.347-0.756,1.01-0.911,1.472l-1.954,5.862c-0.154,0.463,0.099,0.718,0.564,0.562
	l5.861-1.952c0.465-0.157,1.125-0.565,1.474-0.911l11.095-11.089L18.005,6.97L6.908,18.058z M9.762,22.754l-2.669,0.934
	l-0.776-0.782l0.933-2.669l0.524-0.527l2.514,2.52L9.762,22.754z M25.481,7.036l-2.517-2.518c-0.692-0.691-1.823-0.691-2.516,0
	l-1.252,1.255l5.034,5.032l1.251-1.254C26.173,8.861,26.173,7.728,25.481,7.036z"/>
</svg>
