<?xml version="1.0" encoding="utf-8"?>
<!-- Generator: Adobe Illustrator 16.0.0, SVG Export Plug-In . SVG Version: 6.00 Build 0)  -->
<!DOCTYPE svg PUBLIC "-//W3C//DTD SVG 1.1//EN" "http://www.w3.org/Graphics/SVG/1.1/DTD/svg11.dtd">
<svg version="1.1" id="图层_1" xmlns="http://www.w3.org/2000/svg" xmlns:xlink="http://www.w3.org/1999/xlink" x="0px" y="0px"
	 width="96px" height="96px" viewBox="0 0 96 96" enable-background="new 0 0 96 96" xml:space="preserve">
<g id="DO_NOT_EDIT_-_BOUNDING_BOX">
</g>
<g id="DO_NOT_EDIT_-_SHADOW">
</g>
<g id="BLUE_BACKGROUNDS">
	<g id="BLUE_4_2_">
	</g>
</g>
<g>
	<rect id="BOUNDING_BOX" fill="none" width="96" height="96"/>
	<g>
		<path id="SHADOW" opacity="0.4" enable-background="new    " d="M88.023,49c0,29.633-10.364,40-40,40c-29.635,0-40-10.367-40-40
			c0-29.634,10.366-40,40-40C77.659,9,88.023,19.365,88.023,49z"/>
		
			<linearGradient id="BLUE_4_3_" gradientUnits="userSpaceOnUse" x1="152.6191" y1="-1730.3716" x2="152.6191" y2="-1810.3501" gradientTransform="matrix(1 0 0 -1 -104.6196 -1722.3613)">
			<stop  offset="0.1558" style="stop-color:#BE1428"/>
			<stop  offset="1" style="stop-color:#8F141E"/>
		</linearGradient>
		<path id="BLUE_4_1_" fill="url(#BLUE_4_3_)" d="M8,47.989c0,29.633,10.365,40,40,40c29.637,0,40-10.366,40-40
			c0-28.985-9.926-39.53-38.091-39.979h-3.817C17.928,8.459,8,19.004,8,47.989z"/>
		
			<linearGradient id="HIGHLIGHT_BLU4_1_" gradientUnits="userSpaceOnUse" x1="152.6191" y1="-1730.6167" x2="152.6191" y2="-1809.8666" gradientTransform="matrix(1 0 0 -1 -104.6196 -1722.3613)">
			<stop  offset="0" style="stop-color:#FF8992;stop-opacity:0.6"/>
			<stop  offset="0.5" style="stop-color:#858585;stop-opacity:0.2"/>
			<stop  offset="1" style="stop-color:#000000;stop-opacity:0.6"/>
		</linearGradient>
		<path id="HIGHLIGHT_BLU4" opacity="0.5" fill="url(#HIGHLIGHT_BLU4_1_)" enable-background="new    " d="M48,8
			C18.365,8,8,18.365,8,48c0,29.633,10.365,40,40,40c29.637,0,40-10.367,40-40C88,18.365,77.637,8,48,8z M48,87.023
			C18.842,87.023,9,77.176,9,48S18.842,8.977,48,8.977S87,18.824,87,48S77.158,87.023,48,87.023z"/>
		<g>
			<path opacity="0.01" enable-background="new    " d="M59.559,74.473c-0.785,0-1.547-0.229-2.201-0.66l-8.065-5.324H27.256
				c-3.571,0-6.477-2.905-6.477-6.477V36.004c0-3.571,2.905-6.477,6.477-6.477h41.487c3.571,0,6.478,2.906,6.478,6.477v26.008
				c0,3.57-2.906,6.477-6.478,6.477h-5.185v1.984c0,1.473-0.807,2.821-2.104,3.521C60.868,74.309,60.213,74.473,59.559,74.473z"/>
			<path opacity="0.03" enable-background="new    " d="M59.559,73.473c-0.588,0-1.16-0.17-1.65-0.494l-8.315-5.49H27.256
				c-3.02,0-5.477-2.457-5.477-5.477V36.004c0-3.02,2.457-5.477,5.477-5.477h41.487c3.021,0,5.478,2.457,5.478,5.477v26.008
				c0,3.02-2.457,5.477-5.478,5.477h-6.185v2.984c0,1.104-0.604,2.116-1.578,2.641C60.539,73.35,60.049,73.473,59.559,73.473z
				 M37.379,57.244V40.77h-0.331v16.474H37.379L37.379,57.244z M52.279,40.77c0.541,0.335,0.968,0.838,1.207,1.435
				c0.238-0.596,0.666-1.099,1.205-1.435H52.279z"/>
			<path opacity="0.05" enable-background="new    " d="M59.559,72.473c-0.393,0-0.772-0.113-1.101-0.33l-8.565-5.654H27.256
				c-2.468,0-4.477-2.008-4.477-4.477V36.004c0-2.469,2.008-4.477,4.477-4.477h41.487c2.469,0,4.478,2.008,4.478,4.477v26.008
				c0,2.469-2.009,4.477-4.478,4.477h-7.185v3.984c0,0.736-0.404,1.411-1.053,1.762C60.212,72.391,59.887,72.473,59.559,72.473z
				 M54.271,58.244V43.32c0-1.103,0.896-2,2-2h3.68v-1.55h-12.93v1.55h3.68c1.104,0,2,0.897,2,2v14.924H54.271z M38.379,58.244
				V39.77h-2.331v18.474H38.379L38.379,58.244z"/>
			<path opacity="0.07" enable-background="new    " d="M59.559,71.473c-0.191,0-0.385-0.056-0.551-0.164l-8.814-5.82H27.256
				c-1.917,0-3.477-1.561-3.477-3.477V36.004c0-1.917,1.56-3.477,3.477-3.477h41.487c1.918,0,3.478,1.56,3.478,3.477v26.008
				c0,1.916-1.56,3.477-3.478,3.477h-8.185v4.984c0,0.368-0.203,0.707-0.526,0.881C59.884,71.434,59.721,71.473,59.559,71.473z
				 M55.271,59.244V43.32c0-0.552,0.446-1,1-1h4.68v-3.55h-14.93v3.55h4.68c0.553,0,1,0.448,1,1v15.924H55.271z M39.379,59.244
				V38.77h-4.331v20.474H39.379L39.379,59.244z"/>
			<path opacity="0.1" enable-background="new    " d="M71.221,36.004v26.008c0,1.367-1.109,2.477-2.478,2.477h-9.185v5.986
				l-9.064-5.986H27.257c-1.368,0-2.477-1.109-2.477-2.477V36.004c0-1.368,1.109-2.477,2.477-2.477h41.487
				C70.111,33.527,71.221,34.636,71.221,36.004z M34.049,60.244h6.331V37.77h-6.331V60.244z M45.021,43.32h5.68v16.925h5.57V43.32
				h5.68v-5.55h-16.93V43.32z"/>
			
				<linearGradient id="SVGID_1_" gradientUnits="userSpaceOnUse" x1="218.7803" y1="-169.1948" x2="218.7803" y2="-132.2476" gradientTransform="matrix(1 0 0 -1 -170.7798 -100.7207)">
				<stop  offset="0" style="stop-color:#E0E0E0"/>
				<stop  offset="0.828" style="stop-color:#F8F8F8"/>
			</linearGradient>
			<path fill="url(#SVGID_1_)" d="M71.221,34.004v26.008c0,1.367-1.109,2.477-2.478,2.477h-9.185v5.986l-9.064-5.986H27.257
				c-1.368,0-2.477-1.109-2.477-2.477V34.004c0-1.368,1.109-2.477,2.477-2.477h41.487C70.111,31.527,71.221,32.636,71.221,34.004z
				 M34.049,58.244h6.331V35.77h-6.331V58.244z M45.021,41.32h5.68v16.925h5.57V41.32h5.68v-5.55h-16.93V41.32z"/>
			<path opacity="0.05" enable-background="new    " d="M68.743,60.486h-9.185v2h9.185c1.368,0,2.478-1.108,2.478-2.477v-2
				C71.221,59.378,70.111,60.486,68.743,60.486z"/>
			<path opacity="0.05" enable-background="new    " d="M27.257,60.486c-1.368,0-2.477-1.108-2.477-2.477v2
				c0,1.368,1.109,2.477,2.477,2.477h23.238l9.063,5.986v-2l-9.063-5.986H27.257z"/>
			<g>
				<rect x="34.049" y="58.244" fill="#FFFFFF" width="6.331" height="1"/>
				<rect x="50.702" y="58.244" fill="#FFFFFF" width="5.569" height="1"/>
				<path fill="#FFFFFF" d="M68.743,31.527H27.257c-1.368,0-2.477,1.109-2.477,2.477v1c0-1.368,1.109-2.477,2.477-2.477h41.487
					c1.367,0,2.477,1.109,2.477,2.477v-1C71.221,32.636,70.111,31.527,68.743,31.527z"/>
				<rect x="45.021" y="41.32" fill="#FFFFFF" width="5.68" height="1"/>
				<rect x="56.271" y="41.32" fill="#FFFFFF" width="5.68" height="1"/>
			</g>
		</g>
	</g>
</g>
</svg>
