<?xml version="1.0" encoding="utf-8"?>
<!-- Generator: Adobe Illustrator 17.1.0, SVG Export Plug-In . SVG Version: 6.00 Build 0)  -->
<!DOCTYPE svg PUBLIC "-//W3C//DTD SVG 1.1//EN" "http://www.w3.org/Graphics/SVG/1.1/DTD/svg11.dtd">
<svg version="1.1" id="图层_1" xmlns="http://www.w3.org/2000/svg" xmlns:xlink="http://www.w3.org/1999/xlink" x="0px" y="0px"
	 width="30px" height="30px" viewBox="0 0 30 30" enable-background="new 0 0 30 30" xml:space="preserve">
<rect fill="none" width="30" height="30"/>
<path fill-opacity="0.3" d="M18.54,13.996l7.087-7.087c0.487-0.487,0.486-1.285,0-1.772l-1.772-1.772
	c-0.488-0.488-1.284-0.487-1.772,0l-7.087,7.087L7.909,3.366c-0.487-0.487-1.284-0.487-1.772,0L4.366,5.137
	c-0.488,0.488-0.487,1.284,0,1.772l7.087,7.087l-7.087,7.087c-0.488,0.488-0.488,1.284,0,1.772l1.772,1.772
	c0.486,0.486,1.284,0.488,1.772,0l7.087-7.087l7.087,7.087c0.486,0.486,1.284,0.488,1.772,0l1.772-1.772
	c0.487-0.487,0.486-1.285,0-1.772L18.54,13.996z"/>
<path fill-opacity="0.15" d="M22.971,26.992c-0.604,0-1.169-0.233-1.594-0.658l-6.38-6.38l-6.38,6.38
	c-0.424,0.425-0.99,0.658-1.593,0.658c-0.604,0-1.169-0.233-1.594-0.658l-1.771-1.771c-0.878-0.879-0.878-2.308,0-3.187l6.38-6.38
	l-6.38-6.38c-0.878-0.88-0.878-2.309,0-3.187l1.771-1.77c0.425-0.425,0.991-0.658,1.593-0.658s1.168,0.233,1.593,0.658l6.38,6.379
	l6.38-6.38C21.802,3.233,22.367,3,22.97,3s1.168,0.234,1.593,0.659l1.771,1.772c0.878,0.879,0.878,2.308,0,3.186l-6.38,6.38
	l6.381,6.38c0.878,0.88,0.878,2.309,0,3.187l-1.771,1.771C24.139,26.759,23.573,26.992,22.971,26.992L22.971,26.992z"/>
<path fill="#F5F5F5" d="M18.54,14.996l7.087-7.087c0.487-0.487,0.486-1.285,0-1.772l-1.772-1.772c-0.488-0.488-1.284-0.487-1.772,0
	l-7.087,7.087L7.909,4.366c-0.487-0.487-1.284-0.487-1.772,0L4.366,6.137c-0.488,0.488-0.487,1.284,0,1.772l7.087,7.087
	l-7.087,7.087c-0.488,0.488-0.488,1.284,0,1.772l1.772,1.772c0.486,0.486,1.284,0.488,1.772,0l7.087-7.087l7.087,7.087
	c0.486,0.486,1.284,0.488,1.772,0l1.772-1.772c0.487-0.487,0.486-1.285,0-1.772L18.54,14.996z"/>
</svg>
