<?xml version="1.0" encoding="utf-8"?>
<!-- Generator: Adobe Illustrator 17.1.0, SVG Export Plug-In . SVG Version: 6.00 Build 0)  -->
<!DOCTYPE svg PUBLIC "-//W3C//DTD SVG 1.1//EN" "http://www.w3.org/Graphics/SVG/1.1/DTD/svg11.dtd">
<svg version="1.1" id="图层_1" xmlns="http://www.w3.org/2000/svg" xmlns:xlink="http://www.w3.org/1999/xlink" x="0px" y="0px"
	 width="30px" height="30px" viewBox="0 0 30 30" enable-background="new 0 0 30 30" xml:space="preserve">
<rect fill="none" width="30" height="30"/>
<path fill="#FFFFFF" d="M18.54,15.996l7.087-7.087c0.487-0.487,0.486-1.285,0-1.772l-1.772-1.772c-0.488-0.488-1.284-0.487-1.772,0
	l-7.087,7.087L7.909,5.366c-0.487-0.487-1.284-0.487-1.772,0L4.366,7.137c-0.488,0.488-0.487,1.284,0,1.772l7.087,7.087
	l-7.087,7.087c-0.488,0.488-0.488,1.284,0,1.772l1.772,1.772c0.486,0.486,1.284,0.488,1.772,0l7.087-7.087l7.087,7.087
	c0.486,0.486,1.284,0.488,1.772,0l1.772-1.772c0.487-0.487,0.486-1.285,0-1.772L18.54,15.996z"/>
<linearGradient id="SVGID_1_" gradientUnits="userSpaceOnUse" x1="14.9958" y1="25.9917" x2="14.9958" y2="4">
	<stop  offset="0" style="stop-color:#636363"/>
	<stop  offset="1" style="stop-color:#000000"/>
</linearGradient>
<path fill="url(#SVGID_1_)" d="M18.54,14.996l7.087-7.087c0.487-0.487,0.486-1.285,0-1.772l-1.772-1.772
	c-0.488-0.488-1.284-0.487-1.772,0l-7.087,7.087L7.909,4.366c-0.487-0.487-1.284-0.487-1.772,0L4.366,6.137
	c-0.488,0.488-0.487,1.284,0,1.772l7.087,7.087l-7.087,7.087c-0.488,0.488-0.488,1.284,0,1.772l1.772,1.772
	c0.486,0.486,1.284,0.488,1.772,0l7.087-7.087l7.087,7.087c0.486,0.486,1.284,0.488,1.772,0l1.772-1.772
	c0.487-0.487,0.486-1.285,0-1.772L18.54,14.996z"/>
</svg>
