<?xml version="1.0" encoding="utf-8"?>
<!-- Generator: Adobe Illustrator 17.1.0, SVG Export Plug-In . SVG Version: 6.00 Build 0)  -->
<!DOCTYPE svg PUBLIC "-//W3C//DTD SVG 1.1//EN" "http://www.w3.org/Graphics/SVG/1.1/DTD/svg11.dtd" [
	<!ENTITY ns_extend "http://ns.adobe.com/Extensibility/1.0/">
	<!ENTITY ns_ai "http://ns.adobe.com/AdobeIllustrator/10.0/">
	<!ENTITY ns_graphs "http://ns.adobe.com/Graphs/1.0/">
	<!ENTITY ns_vars "http://ns.adobe.com/Variables/1.0/">
	<!ENTITY ns_imrep "http://ns.adobe.com/ImageReplacement/1.0/">
	<!ENTITY ns_sfw "http://ns.adobe.com/SaveForWeb/1.0/">
	<!ENTITY ns_custom "http://ns.adobe.com/GenericCustomNamespace/1.0/">
	<!ENTITY ns_adobe_xpath "http://ns.adobe.com/XPath/1.0/">
]>
<svg version="1.1" id="图层_1" xmlns:x="&ns_extend;" xmlns:i="&ns_ai;" xmlns:graph="&ns_graphs;"
	 xmlns="http://www.w3.org/2000/svg" xmlns:xlink="http://www.w3.org/1999/xlink" x="0px" y="0px" width="30px" height="30px"
	 viewBox="0 0 30 30" enable-background="new 0 0 30 30" xml:space="preserve">
<metadata>
	<sfw  xmlns="&ns_sfw;">
		<slices></slices>
		<sliceSourceBounds  height="30" width="30" y="36" x="34" bottomLeftOrigin="true"></sliceSourceBounds>
	</sfw>
</metadata>
<path fill="#FFFFFF" d="M20.008,26.688c0.01,0.038,0.03,0.072,0.042,0.109c-2.187,0.425-3.786,0.415-4.928,0.39
	c-1.387,0.03-3.434,0.049-6.404-0.72c-1.216-0.316-2.261-0.728-3.146-1.234l0.022-0.13c0.218-0.867,1.266-1.39,1.266-1.39
	C8.415,22.802,9.962,22.2,9.962,22.2c1.695-0.676,1.969-2.079,2.024-2.284c0.133-0.535,0.257-1.102,0.062-1.284
	c-0.963-0.834-1.342-2.818-1.342-2.818c-0.017-0.053-0.04-0.111-0.055-0.164c-0.482,0.456-0.611-0.983-0.78-1.5
	c-0.281-0.901-0.212-1.111-0.212-1.111c-0.037-0.672,0.458-0.439,0.458-0.439l0.039,0.053c-0.36-0.951-0.469-1.466-0.447-2.153
	c0.044-1.297-0.425-1.905,0.841-3.932c0,0,0.189-0.325,0.616-0.343c0.423-0.019,0.272-0.241,0.423-0.516
	c0.151-0.28,0.257-0.597,1.034-0.503c0.778,0.092,1.111-0.868,3.452-0.11c2.347,0.757,2.914,0.858,3.324,1.474
	c1.324,1.989,1.005,2.461,0.999,3.759c0,0.84-0.269,1.409-0.343,2.342l0.039-0.044c0,0,0.509-0.198,0.426,0.472
	c0,0-0.086,0.431-0.29,1.089c-0.196,0.626-0.438,1.988-0.91,1.41c-0.028,0.068-0.051,0.141-0.077,0.218c0,0-0.383,1.984-1.345,2.818
	c-0.19,0.181-0.072,0.748,0.062,1.284c0.022,0.085,0.149,0.398,0.375,0.77h-0.397c-1.103,0-2,0.897-2,2v2c0,1.103,0.897,2,2,2
	H20.008z M22.53,20.409c-0.174-0.127-0.379-0.194-0.593-0.194c-0.156,0-0.313,0.037-0.451,0.107
	c-0.339,0.171-0.549,0.514-0.549,0.893v0.473h-3c-0.552,0-1,0.448-1,1v2c0,0.552,0.448,1,1,1h3.001v0.474
	c0,0.379,0.211,0.721,0.55,0.892c0.141,0.071,0.292,0.107,0.45,0.107c0.213,0,0.424-0.069,0.594-0.195l3.347-2.474
	c0.254-0.188,0.405-0.488,0.405-0.804s-0.151-0.616-0.406-0.805L22.53,20.409z"/>
<g id="DO_NOT_EDIT_-_BOUNDING_BOX">
	<rect id="BOUNDING_BOX" fill="none" width="30" height="30"/>
</g>
<rect fill="none" width="30" height="30"/>
<linearGradient id="SVGID_1_" gradientUnits="userSpaceOnUse" x1="15.9281" y1="26.1976" x2="15.9281" y2="3.8024">
	<stop  offset="0" style="stop-color:#636363"/>
	<stop  offset="1" style="stop-color:#000000"/>
</linearGradient>
<path fill="url(#SVGID_1_)" d="M20.008,25.688c0.01,0.038,0.03,0.072,0.042,0.109c-2.187,0.425-3.786,0.415-4.928,0.39
	c-1.387,0.03-3.434,0.049-6.404-0.72c-1.216-0.316-2.261-0.728-3.146-1.234l0.022-0.13c0.218-0.867,1.266-1.39,1.266-1.39
	C8.415,21.802,9.962,21.2,9.962,21.2c1.695-0.676,1.969-2.079,2.024-2.284c0.133-0.535,0.257-1.102,0.062-1.284
	c-0.963-0.834-1.342-2.818-1.342-2.818c-0.017-0.053-0.04-0.111-0.055-0.164c-0.482,0.456-0.611-0.983-0.78-1.5
	c-0.281-0.901-0.212-1.111-0.212-1.111c-0.037-0.672,0.458-0.439,0.458-0.439l0.039,0.053c-0.36-0.951-0.469-1.466-0.447-2.153
	c0.044-1.297-0.425-1.905,0.841-3.932c0,0,0.189-0.325,0.616-0.343c0.423-0.019,0.272-0.241,0.423-0.516
	c0.151-0.28,0.257-0.597,1.034-0.503c0.778,0.092,1.111-0.868,3.452-0.11c2.347,0.757,2.914,0.858,3.324,1.474
	c1.324,1.989,1.005,2.461,0.999,3.759c0,0.84-0.269,1.409-0.343,2.342l0.039-0.044c0,0,0.509-0.198,0.426,0.472
	c0,0-0.086,0.431-0.29,1.089c-0.196,0.626-0.438,1.988-0.91,1.41c-0.028,0.068-0.051,0.141-0.077,0.218c0,0-0.383,1.984-1.345,2.818
	c-0.19,0.181-0.072,0.748,0.062,1.284c0.022,0.085,0.149,0.398,0.375,0.77h-0.397c-1.103,0-2,0.897-2,2v2c0,1.103,0.897,2,2,2
	H20.008z M22.53,19.409c-0.174-0.127-0.379-0.194-0.593-0.194c-0.156,0-0.313,0.037-0.451,0.107
	c-0.339,0.171-0.549,0.514-0.549,0.893v0.473h-3c-0.552,0-1,0.448-1,1v2c0,0.552,0.448,1,1,1h3.001v0.474
	c0,0.379,0.211,0.721,0.55,0.892c0.141,0.071,0.292,0.107,0.45,0.107c0.213,0,0.424-0.069,0.594-0.195l3.347-2.474
	c0.254-0.188,0.405-0.488,0.405-0.804s-0.151-0.616-0.406-0.805L22.53,19.409z"/>
</svg>
