<?xml version="1.0" encoding="utf-8"?>
<!-- Generator: Adobe Illustrator 17.1.0, SVG Export Plug-In . SVG Version: 6.00 Build 0)  -->
<!DOCTYPE svg PUBLIC "-//W3C//DTD SVG 1.1//EN" "http://www.w3.org/Graphics/SVG/1.1/DTD/svg11.dtd" [
	<!ENTITY ns_extend "http://ns.adobe.com/Extensibility/1.0/">
	<!ENTITY ns_ai "http://ns.adobe.com/AdobeIllustrator/10.0/">
	<!ENTITY ns_graphs "http://ns.adobe.com/Graphs/1.0/">
	<!ENTITY ns_vars "http://ns.adobe.com/Variables/1.0/">
	<!ENTITY ns_imrep "http://ns.adobe.com/ImageReplacement/1.0/">
	<!ENTITY ns_sfw "http://ns.adobe.com/SaveForWeb/1.0/">
	<!ENTITY ns_custom "http://ns.adobe.com/GenericCustomNamespace/1.0/">
	<!ENTITY ns_adobe_xpath "http://ns.adobe.com/XPath/1.0/">
]>
<svg version="1.1" id="图层_1" xmlns:x="&ns_extend;" xmlns:i="&ns_ai;" xmlns:graph="&ns_graphs;"
	 xmlns="http://www.w3.org/2000/svg" xmlns:xlink="http://www.w3.org/1999/xlink" x="0px" y="0px" width="30px" height="30px"
	 viewBox="0 0 30 30" enable-background="new 0 0 30 30" xml:space="preserve">
<metadata>
	<sfw  xmlns="&ns_sfw;">
		<slices></slices>
		<sliceSourceBounds  height="30" width="30" y="36" x="34" bottomLeftOrigin="true"></sliceSourceBounds>
	</sfw>
</metadata>
<path opacity="0.15" enable-background="new    " d="M14.299,27.198c-1.239,0-3.192-0.079-5.832-0.764
	c-1.287-0.334-2.427-0.782-3.391-1.333c-0.363-0.208-0.558-0.619-0.49-1.031l0.021-0.13c0.338-1.356,1.657-2.048,1.806-2.122
	c1.547-0.909,3.12-1.524,3.187-1.55c0.748-0.299,1.224-0.823,1.407-1.558c0.064-0.257,0.105-0.445,0.126-0.573
	c-0.694-0.748-1.086-1.881-1.274-2.567c-0.548-0.343-0.721-1.144-0.846-1.72C8.98,13.7,8.953,13.559,8.92,13.46
	c-0.24-0.77-0.286-1.2-0.263-1.471c-0.003-0.356,0.082-0.658,0.254-0.901c-0.166-0.587-0.22-1.062-0.202-1.62
	C8.719,9.2,8.702,8.966,8.687,8.743c-0.073-1.1-0.044-2.009,1.015-3.705c0.154-0.265,0.493-0.589,0.972-0.735
	c0.012-0.025,0.024-0.05,0.039-0.075c0.165-0.314,0.545-1.039,1.654-1.039c0.112,0,0.237,0.007,0.377,0.024
	c0.014-0.006,0.13-0.053,0.216-0.087c0.322-0.129,0.81-0.324,1.538-0.324c0.558,0,1.175,0.112,1.887,0.343l0.877,0.28
	c1.764,0.559,2.423,0.768,2.971,1.591c1.194,1.795,1.245,2.618,1.187,3.759c-0.009,0.171-0.019,0.354-0.02,0.559
	c0,0.559-0.095,1.006-0.187,1.438c-0.016,0.072-0.03,0.143-0.045,0.213c0.011,0.011,0.021,0.022,0.031,0.034
	c0.186,0.21,0.391,0.59,0.313,1.205c-0.012,0.071-0.104,0.541-0.326,1.259c-0.031,0.1-0.062,0.214-0.095,0.335
	c-0.176,0.647-0.404,1.486-1.014,1.796c-0.191,0.683-0.582,1.773-1.264,2.52c0.017,0.107,0.051,0.277,0.117,0.541l0,0
	c0.002,0,0.092,0.218,0.259,0.491c0.097,0.16,0.146,0.34,0.146,0.521h0.672c0.146-0.539,0.514-0.998,1.029-1.258
	c0.276-0.141,0.589-0.215,0.901-0.215c0.427,0,0.836,0.134,1.183,0.387l3.353,2.477c0.508,0.377,0.812,0.978,0.812,1.609
	s-0.304,1.233-0.812,1.608l-3.346,2.473c-0.34,0.252-0.763,0.392-1.188,0.392c-0.316,0-0.62-0.072-0.902-0.216
	c-0.165-0.083-0.314-0.187-0.446-0.306c-0.105,0.067-0.224,0.115-0.35,0.14c-1.931,0.375-3.402,0.419-4.342,0.419
	c-0.287,0-0.552-0.005-0.797-0.01C14.885,27.192,14.604,27.198,14.299,27.198z"/>
<path opacity="0.3" enable-background="new    " d="M20.008,24.688c0.01,0.038,0.03,0.072,0.042,0.109
	c-2.187,0.425-3.786,0.415-4.928,0.39c-1.387,0.03-3.434,0.049-6.404-0.72c-1.216-0.316-2.261-0.728-3.146-1.234l0.022-0.13
	c0.218-0.867,1.266-1.39,1.266-1.39C8.415,20.802,9.962,20.2,9.962,20.2c1.695-0.676,1.969-2.079,2.024-2.284
	c0.133-0.535,0.257-1.102,0.062-1.284c-0.963-0.834-1.342-2.818-1.342-2.818c-0.017-0.053-0.04-0.111-0.055-0.164
	c-0.482,0.456-0.611-0.983-0.78-1.5c-0.281-0.901-0.212-1.111-0.212-1.111c-0.037-0.672,0.458-0.439,0.458-0.439l0.039,0.053
	C9.796,9.702,9.687,9.187,9.709,8.5c0.044-1.297-0.425-1.905,0.841-3.932c0,0,0.189-0.325,0.616-0.343
	c0.423-0.019,0.272-0.241,0.423-0.516c0.151-0.28,0.257-0.597,1.034-0.503c0.778,0.092,1.111-0.868,3.452-0.11
	c2.347,0.757,2.914,0.858,3.324,1.474c1.324,1.989,1.005,2.461,0.999,3.759c0,0.84-0.269,1.409-0.343,2.342l0.039-0.044
	c0,0,0.509-0.198,0.426,0.472c0,0-0.086,0.431-0.29,1.089c-0.196,0.626-0.438,1.988-0.91,1.41c-0.028,0.068-0.051,0.141-0.077,0.218
	c0,0-0.383,1.984-1.345,2.818c-0.19,0.181-0.072,0.748,0.062,1.284c0.022,0.085,0.149,0.398,0.375,0.77h-0.397c-1.103,0-2,0.897-2,2
	v2c0,1.103,0.897,2,2,2H20.008z M22.53,18.409c-0.174-0.127-0.379-0.194-0.593-0.194c-0.156,0-0.313,0.037-0.451,0.107
	c-0.339,0.171-0.549,0.514-0.549,0.893v0.473h-3c-0.552,0-1,0.448-1,1v2c0,0.552,0.448,1,1,1h3.001v0.474
	c0,0.379,0.211,0.721,0.55,0.892c0.141,0.071,0.292,0.107,0.45,0.107c0.213,0,0.424-0.069,0.594-0.195l3.347-2.474
	c0.254-0.188,0.405-0.488,0.405-0.804s-0.151-0.616-0.406-0.805L22.53,18.409z"/>
<g id="DO_NOT_EDIT_-_BOUNDING_BOX">
	<rect id="BOUNDING_BOX" fill="none" width="30" height="30"/>
</g>
<rect fill="none" width="30" height="30"/>
<path fill="#FFFFFF" d="M20.008,25.688c0.01,0.038,0.03,0.072,0.042,0.109c-2.187,0.425-3.786,0.415-4.928,0.39
	c-1.387,0.03-3.434,0.049-6.404-0.72c-1.216-0.316-2.261-0.728-3.146-1.234l0.022-0.13c0.218-0.867,1.266-1.39,1.266-1.39
	C8.415,21.802,9.962,21.2,9.962,21.2c1.695-0.676,1.969-2.079,2.024-2.284c0.133-0.535,0.257-1.102,0.062-1.284
	c-0.963-0.834-1.342-2.818-1.342-2.818c-0.017-0.053-0.04-0.111-0.055-0.164c-0.482,0.456-0.611-0.983-0.78-1.5
	c-0.281-0.901-0.212-1.111-0.212-1.111c-0.037-0.672,0.458-0.439,0.458-0.439l0.039,0.053c-0.36-0.951-0.469-1.466-0.447-2.153
	c0.044-1.297-0.425-1.905,0.841-3.932c0,0,0.189-0.325,0.616-0.343c0.423-0.019,0.272-0.241,0.423-0.516
	c0.151-0.28,0.257-0.597,1.034-0.503c0.778,0.092,1.111-0.868,3.452-0.11c2.347,0.757,2.914,0.858,3.324,1.474
	c1.324,1.989,1.005,2.461,0.999,3.759c0,0.84-0.269,1.409-0.343,2.342l0.039-0.044c0,0,0.509-0.198,0.426,0.472
	c0,0-0.086,0.431-0.29,1.089c-0.196,0.626-0.438,1.988-0.91,1.41c-0.028,0.068-0.051,0.141-0.077,0.218c0,0-0.383,1.984-1.345,2.818
	c-0.19,0.181-0.072,0.748,0.062,1.284c0.022,0.085,0.149,0.398,0.375,0.77h-0.397c-1.103,0-2,0.897-2,2v2c0,1.103,0.897,2,2,2
	H20.008z M22.53,19.409c-0.174-0.127-0.379-0.194-0.593-0.194c-0.156,0-0.313,0.037-0.451,0.107
	c-0.339,0.171-0.549,0.514-0.549,0.893v0.473h-3c-0.552,0-1,0.448-1,1v2c0,0.552,0.448,1,1,1h3.001v0.474
	c0,0.379,0.211,0.721,0.55,0.892c0.141,0.071,0.292,0.107,0.45,0.107c0.213,0,0.424-0.069,0.594-0.195l3.347-2.474
	c0.254-0.188,0.405-0.488,0.405-0.804s-0.151-0.616-0.406-0.805L22.53,19.409z"/>
</svg>
