<?xml version="1.0" encoding="utf-8"?>
<!-- Generator: Adobe Illustrator 17.1.0, SVG Export Plug-In . SVG Version: 6.00 Build 0)  -->
<!DOCTYPE svg PUBLIC "-//W3C//DTD SVG 1.1//EN" "http://www.w3.org/Graphics/SVG/1.1/DTD/svg11.dtd">
<svg version="1.1" id="图层_1" xmlns="http://www.w3.org/2000/svg" xmlns:xlink="http://www.w3.org/1999/xlink" x="0px" y="0px"
	 width="96px" height="96px" viewBox="0 0 96 96" enable-background="new 0 0 96 96" xml:space="preserve">
<g>
	<rect fill="none" width="96" height="96"/>
	<path fill-opacity="0.4" d="M88,49c0,29.6-10.4,40-40,40S8,78.6,8,49S18.4,9,48,9C77.7,9,88,19.4,88,49z"/>
	
		<linearGradient id="SVGID_1_" gradientUnits="userSpaceOnUse" x1="25.6602" y1="-13.96" x2="25.6602" y2="-93.96" gradientTransform="matrix(1 0 0 -1 22.3398 -5.96)">
		<stop  offset="0" style="stop-color:#FAFAFA"/>
		<stop  offset="0.3317" style="stop-color:#F1F1F1"/>
		<stop  offset="0.8711" style="stop-color:#D9D9D9"/>
		<stop  offset="1" style="stop-color:#D2D2D2"/>
	</linearGradient>
	<path fill="url(#SVGID_1_)" d="M8,48c0,29.6,10.4,40,40,40s40-10.4,40-40c0-29-9.9-39.5-38.1-40h-3.8C17.9,8.5,8,19,8,48z"/>
	
		<linearGradient id="SVGID_2_" gradientUnits="userSpaceOnUse" x1="25.6602" y1="-13.96" x2="25.6602" y2="-93.96" gradientTransform="matrix(1 0 0 -1 22.3398 -5.96)">
		<stop  offset="0" style="stop-color:#FFFFFF"/>
		<stop  offset="0.2292" style="stop-color:#FBFBFB"/>
		<stop  offset="0.4667" style="stop-color:#F0EFEE"/>
		<stop  offset="0.7079" style="stop-color:#DCDBDA"/>
		<stop  offset="0.9504" style="stop-color:#C1C0BD"/>
		<stop  offset="1" style="stop-color:#BBB9B6"/>
	</linearGradient>
	<path fill="url(#SVGID_2_)" fill-opacity="0.8" d="M48,8C18.4,8,8,18.4,8,48s10.4,40,40,40s40-10.4,40-40S77.6,8,48,8z M48,87
		C18.8,87,9,77.2,9,48S18.8,9,48,9s39,9.8,39,39S77.2,87,48,87z"/>
	<path opacity="0.5" fill="#FFFFFF" d="M31.615,74.603c-0.468,0-0.885-0.188-1.172-0.53c-0.246-0.292-0.505-0.83-0.348-1.733
		l2.68-15.701c0.124-0.664-0.233-1.769-0.746-2.331L20.624,43.329c-0.874-0.876-0.729-1.663-0.626-1.961
		c0.215-0.624,0.812-1.04,1.639-1.143l15.754-2.312c0.695-0.086,1.634-0.761,1.916-1.365l7.009-14.327
		c0.357-0.759,0.954-1.202,1.632-1.202c0.387,0,1.117,0.153,1.661,1.174l7.076,14.277c0.297,0.632,1.22,1.296,1.906,1.382
		l15.786,2.315c0.811,0.101,1.43,0.549,1.635,1.196c0.208,0.654-0.032,1.356-0.657,1.924L63.932,54.408
		c-0.228,0.227-0.434,0.58-0.572,0.989c-0.027,0.079-0.064,0.153-0.109,0.221c0.007,0.081,0.005,0.163-0.01,0.246
		c-0.053,0.306-0.06,0.59-0.017,0.821L65.9,72.348c0.155,0.838-0.104,1.366-0.348,1.66c-0.301,0.36-0.737,0.558-1.233,0.558
		c-0.329,0-0.672-0.087-1.021-0.259l-14.148-7.442c-0.31-0.165-0.747-0.259-1.205-0.259c-0.443,0-0.867,0.091-1.135,0.244
		l-14.094,7.446C32.336,74.499,31.964,74.603,31.615,74.603z M42.542,54.236c-0.797,0.593-1.582,1.189-2.317,1.762
		c-1.302,1.017-2.101,2.081-2.581,2.92c1.766-0.311,4.427-0.512,7.959-0.753c3.159-0.215,6.426-0.437,8.435-0.816
		c0.035-0.007,0.071-0.014,0.107-0.021c-1.226,0.106-2.584,0.197-4.092,0.264c-1.451,0.066-2.74,0.098-3.831,0.098c0,0,0,0,0,0
		c-3.916,0-4.564-0.403-4.893-0.815c-0.175-0.22-0.262-0.562-0.199-0.837c0.017-0.071,0.042-0.14,0.074-0.206
		C41.253,55.736,41.54,55.217,42.542,54.236z M49.128,43.711c3.548,0,4.014,0.182,4.362,0.664c0.174,0.241,0.232,0.61,0.139,0.892
		c-0.113,0.325-0.561,0.881-1.18,1.51c2.03-1.509,3.69-2.799,4.5-3.444c-0.738-0.041-1.804-0.073-3.297-0.073
		c-2.795,0-6.144,0.116-9.429,0.327c-0.976,0.063-1.903,0.153-2.775,0.262l1.323-0.03C45.01,43.765,47.325,43.711,49.128,43.711z"/>
	<path opacity="0.5" fill="#FFFFFF" d="M74.243,41.08l-15.767-2.313c-0.976-0.123-2.191-0.976-2.619-1.889l-7.063-14.253
		c-0.486-0.912-1.219-0.912-1.647,0l-7.002,14.312c-0.427,0.916-1.647,1.769-2.619,1.889l-15.774,2.314
		c-0.974,0.121-1.214,0.792-0.485,1.521l11.446,11.022c0.668,0.733,1.156,2.132,0.974,3.109L31.006,72.5
		c-0.181,1.037,0.367,1.466,1.28,0.979l14.068-7.431c0.854-0.487,2.316-0.487,3.229,0l14.126,7.431c0.857,0.423,1.461,0,1.281-0.974
		l-2.675-15.652c-0.066-0.359-0.054-0.754,0.015-1.147c-2.196,0.888-5.542,2.06-8.12,2.552c-4.804,0.908-16.134,0.908-18.146,2.069
		c0,0,0.551-2.68,3.594-5.058c3.046-2.375,7.004-5.177,9.07-6.575c2.071-1.4,3.898-3.351,4.024-3.717
		c0.181-0.547-6.578-0.303-12.365-0.181c-5.843,0.18-8.283,0.365-8.283,0.365s4.569-2.013,12.06-2.498
		c7.613-0.488,13.643-0.366,14.493-0.061c0.364,0.123-0.361,0.792-0.55,0.978c-0.181,0.184-5.175,4.14-10.226,7.609
		c-5.057,3.474-5.849,5.059-5.849,5.059s-0.182,0.79,7.98,0.422c6.413-0.286,10.072-0.987,12.472-1.569
		c0.177-0.523,0.454-1.008,0.804-1.356l11.445-11.142C75.468,41.934,75.22,41.201,74.243,41.08z"/>
	<linearGradient id="SVGID_3_" gradientUnits="userSpaceOnUse" x1="48.0531" y1="72.7546" x2="48.0531" y2="21.0174">
		<stop  offset="0.0265" style="stop-color:#FFBD32"/>
		<stop  offset="1" style="stop-color:#EF9422"/>
	</linearGradient>
	<path fill="url(#SVGID_3_)" d="M74.296,40.156l-15.767-2.313c-0.976-0.123-2.191-0.976-2.619-1.889l-7.063-14.253
		c-0.486-0.912-1.219-0.912-1.647,0l-7.002,14.312c-0.427,0.916-1.647,1.769-2.619,1.889l-15.774,2.314
		c-0.974,0.121-1.214,0.792-0.485,1.521l11.446,11.022c0.668,0.733,1.156,2.132,0.974,3.109l-2.68,15.705
		c-0.181,1.037,0.367,1.466,1.28,0.979l14.068-7.431c0.854-0.487,2.316-0.487,3.229,0l14.126,7.431c0.857,0.423,1.461,0,1.281-0.974
		l-2.675-15.652c-0.066-0.359-0.054-0.754,0.015-1.147c-2.196,0.888-5.542,2.06-8.12,2.552c-4.804,0.908-16.134,0.908-18.146,2.069
		c0,0,0.551-2.68,3.594-5.058c3.046-2.375,7.004-5.177,9.07-6.575c2.071-1.4,3.898-3.351,4.024-3.717
		c0.181-0.547-6.578-0.303-12.365-0.181c-5.843,0.18-8.283,0.365-8.283,0.365s4.569-2.013,12.06-2.498
		c7.613-0.488,13.643-0.366,14.493-0.061c0.364,0.123-0.361,0.792-0.55,0.978c-0.181,0.184-5.175,4.14-10.226,7.609
		c-5.057,3.474-5.849,5.059-5.849,5.059s-0.182,0.79,7.98,0.422c6.413-0.286,10.072-0.987,12.472-1.569
		c0.177-0.523,0.454-1.008,0.804-1.356l11.445-11.142C75.521,41.01,75.273,40.277,74.296,40.156z"/>
	<path opacity="0.04" d="M58.107,42.655c-0.181,0.184-5.175,4.14-10.226,7.609c-5.057,3.474-5.849,5.059-5.849,5.059
		s-0.182,0.79,7.98,0.422c6.413-0.286,10.072-0.987,12.472-1.569c0.177-0.523,0.454-1.008,0.804-1.356l11.445-11.142
		c0.735-0.668,0.487-1.401-0.49-1.522l-15.767-2.313c-0.976-0.123-2.191-0.976-2.619-1.889l-7.063-14.253
		c-0.486-0.912-1.219-0.912-1.647,0l-7.002,14.312c-0.427,0.916-1.647,1.769-2.619,1.889l-15.774,2.314
		c-0.974,0.121-1.214,0.792-0.485,1.521l11.446,11.022c0.668,0.733,1.156,2.132,0.974,3.109l-2.68,15.705
		c-0.181,1.037,0.367,1.466,1.28,0.979l14.068-7.431c0.854-0.487,2.316-0.487,3.229,0l14.126,7.431c0.857,0.423,1.461,0,1.281-0.974
		l-2.675-15.652c-0.066-0.359-0.054-0.754,0.015-1.147c-2.196,0.888-5.542,2.06-8.12,2.552c-4.804,0.908-16.134,0.908-18.146,2.069
		c0,0,0.551-2.68,3.594-5.058c3.046-2.375,7.004-5.177,9.07-6.575c2.071-1.4,3.898-3.351,4.024-3.717
		c0.181-0.547-6.578-0.303-12.365-0.181c-5.843,0.18-8.283,0.365-8.283,0.365s4.569-2.013,12.06-2.498
		c7.613-0.488,13.643-0.366,14.493-0.061C59.021,41.8,58.295,42.469,58.107,42.655z M36.987,61.003
		c0.907-0.458,5.659-0.781,8.804-0.996c3.24-0.22,6.59-0.448,8.761-0.858c1.873-0.357,4.139-1.055,6.135-1.768l2.157,12.63
		l-12.403-6.525c-0.693-0.37-1.583-0.578-2.496-0.578c-0.93,0-1.821,0.217-2.508,0.608l-12.287,6.49l1.589-9.314
		c0.074,0.075,0.155,0.145,0.243,0.209c0.321,0.232,0.7,0.349,1.081,0.349C36.382,61.251,36.7,61.168,36.987,61.003z M60.558,41.365
		c-0.153-0.676-0.642-1.214-1.309-1.439c-0.254-0.091-1.015-0.364-5.596-0.364c-2.853,0-6.264,0.118-9.607,0.332
		c-7.731,0.501-12.489,2.564-12.687,2.651c-0.824,0.363-1.266,1.267-1.048,2.14c0.208,0.828,0.951,1.4,1.793,1.4
		c0.046,0,0.093-0.002,0.14-0.005c0.024-0.002,2.484-0.184,8.2-0.361l2.393-0.054c2.015-0.047,4.093-0.096,5.782-0.104
		c-0.296,0.232-0.607,0.461-0.927,0.677c-1.97,1.334-6.038,4.205-9.171,6.649c-1.409,1.1-2.365,2.26-3.008,3.274
		c0.302-1.676-0.49-3.611-1.435-4.647c-0.027-0.029-0.055-0.058-0.083-0.085l-10.04-9.668l13.838-2.03
		c1.59-0.196,3.339-1.461,4.027-2.938l6.156-12.579l6.225,12.56c0.673,1.435,2.419,2.698,4.045,2.902l13.813,2.026l-10.061,9.793
		c-0.314,0.311-0.589,0.678-0.82,1.085c-2.194,0.487-5.629,1.066-11.248,1.316c-1.412,0.064-2.658,0.096-3.707,0.096
		c0,0-0.182,0-0.269,0c0.746-0.608,1.717-1.343,2.973-2.206c4.833-3.319,10.11-7.443,10.497-7.835
		C59.927,43.466,60.833,42.586,60.558,41.365z"/>
	<path opacity="0.08" d="M58.107,42.655c-0.181,0.184-5.175,4.14-10.226,7.609c-5.057,3.474-5.849,5.059-5.849,5.059
		s-0.182,0.79,7.98,0.422c6.413-0.286,10.072-0.987,12.472-1.569c0.177-0.523,0.454-1.008,0.804-1.356l11.445-11.142
		c0.735-0.668,0.487-1.401-0.49-1.522l-15.767-2.313c-0.976-0.123-2.191-0.976-2.619-1.889l-7.063-14.253
		c-0.486-0.912-1.219-0.912-1.647,0l-7.002,14.312c-0.427,0.916-1.647,1.769-2.619,1.889l-15.774,2.314
		c-0.974,0.121-1.214,0.792-0.485,1.521l11.446,11.022c0.668,0.733,1.156,2.132,0.974,3.109l-2.68,15.705
		c-0.181,1.037,0.367,1.466,1.28,0.979l14.068-7.431c0.854-0.487,2.316-0.487,3.229,0l14.126,7.431c0.857,0.423,1.461,0,1.281-0.974
		l-2.675-15.652c-0.066-0.359-0.054-0.754,0.015-1.147c-2.196,0.888-5.542,2.06-8.12,2.552c-4.804,0.908-16.134,0.908-18.146,2.069
		c0,0,0.551-2.68,3.594-5.058c3.046-2.375,7.004-5.177,9.07-6.575c2.071-1.4,3.898-3.351,4.024-3.717
		c0.181-0.547-6.578-0.303-12.365-0.181c-5.843,0.18-8.283,0.365-8.283,0.365s4.569-2.013,12.06-2.498
		c7.613-0.488,13.643-0.366,14.493-0.061C59.021,41.8,58.295,42.469,58.107,42.655z M59.656,41.568
		c-0.081-0.359-0.344-0.645-0.703-0.767c-0.724-0.26-3.283-0.316-5.3-0.316c-2.833,0-6.225,0.117-9.548,0.33
		c-7.569,0.49-12.18,2.49-12.373,2.575c-0.412,0.181-0.633,0.633-0.524,1.07c0.103,0.414,0.475,0.7,0.895,0.7
		c0.023,0,0.047-0.001,0.07-0.003c0.024-0.002,2.495-0.185,8.242-0.363l2.399-0.054c2.228-0.052,4.532-0.106,6.314-0.106
		c0.827,0,1.441,0.012,1.896,0.03c-0.689,0.686-1.701,1.586-2.816,2.339c-1.959,1.327-6.004,4.183-9.12,6.612
		c-3.273,2.558-3.906,5.477-3.931,5.601c-0.073,0.357,0.069,0.722,0.365,0.935c0.161,0.116,0.35,0.175,0.541,0.175
		c0.159,0,0.319-0.041,0.462-0.124c0.962-0.556,5.532-0.867,9.203-1.117c3.213-0.218,6.536-0.445,8.653-0.845
		c2.154-0.412,4.854-1.29,7.031-2.11l2.66,15.57l-14.059-7.396c-0.568-0.303-1.303-0.472-2.066-0.472
		c-0.772,0-1.5,0.173-2.051,0.487l-13.974,7.381l2.675-15.676c0.247-1.331-0.416-3.027-1.203-3.888L21.956,41.121l15.703-2.304
		c1.298-0.16,2.767-1.221,3.323-2.413l6.988-14.282c0.003,0.005,7.059,14.243,7.059,14.243c0.55,1.17,2.016,2.23,3.332,2.396
		l15.682,2.3l-11.4,11.098c-0.337,0.334-0.621,0.752-0.839,1.229c-2.207,0.512-5.77,1.163-11.833,1.433
		c-1.424,0.064-2.685,0.097-3.748,0.097c0,0,0,0-0.001,0c-1.215,0-2.035-0.042-2.582-0.093c0.756-0.767,2.182-2.025,4.763-3.799
		c4.882-3.353,10.065-7.421,10.361-7.722C59.203,42.88,59.817,42.284,59.656,41.568z"/>
	<path opacity="0.04" d="M33.686,59.567l-2.247,13.166c-0.372-0.095-0.547-0.505-0.433-1.157l2.387-13.987
		C33.66,58.244,33.795,58.981,33.686,59.567z M49.23,47.409c1.046-0.764,1.989-1.619,2.638-2.288
		c-2.219,0.034-4.85,0.131-7.704,0.314c-7.491,0.485-12.06,2.498-12.06,2.498s2.439-0.185,8.283-0.365
		C43.458,47.504,46.793,47.406,49.23,47.409z M23.29,43.688L37.525,41.6c0.972-0.12,2.192-0.973,2.619-1.889l7.002-14.312
		c0.428-0.912,1.161-0.912,1.647,0l7.063,14.253c0.429,0.913,1.643,1.766,2.619,1.889l14.251,2.09l2.006-1.952
		c0.735-0.668,0.487-1.401-0.49-1.522l-15.767-2.313c-0.976-0.123-2.191-0.976-2.619-1.889l-7.063-14.253
		c-0.486-0.912-1.219-0.912-1.647,0l-7.002,14.312c-0.427,0.916-1.647,1.769-2.619,1.889l-15.774,2.314
		c-0.974,0.121-1.214,0.792-0.485,1.521L23.29,43.688z M62.602,57.612c-0.037,0.089-0.087,0.169-0.118,0.261
		c-2.4,0.582-6.059,1.283-12.472,1.569c-8.162,0.368-7.98-0.422-7.98-0.422s0.107-0.208,0.472-0.631
		c-1.353,0.104-2.61,0.219-3.665,0.359c-2.32,2.172-2.775,4.352-2.775,4.352c2.011-1.162,13.342-1.162,18.146-2.069
		c2.578-0.492,5.924-1.664,8.12-2.552c-0.069,0.393-0.081,0.788-0.015,1.147l2.232,13.059c0.364-0.11,0.555-0.501,0.443-1.105
		L62.602,57.612z M47.88,53.961c5.051-3.469,10.045-7.425,10.226-7.609c0.189-0.186,0.914-0.855,0.55-0.978
		c-0.365-0.131-1.694-0.228-3.691-0.258c-0.928,0.706-2.007,1.515-3.17,2.365c0.638,0.053,0.999,0.137,0.956,0.268
		c-0.127,0.365-1.953,2.316-4.024,3.717c-1.392,0.942-3.644,2.524-5.897,4.181c0.481,0.086,1.243,0.161,2.486,0.186
		C46.019,55.284,46.859,54.663,47.88,53.961z"/>
	<path opacity="0.06" d="M21.265,41.738c-0.728-0.729-0.489-1.4,0.485-1.521l15.774-2.314c0.972-0.12,2.192-0.973,2.619-1.889
		l7.002-14.312c0.428-0.912,1.161-0.912,1.647,0l7.063,14.253c0.429,0.913,1.643,1.766,2.619,1.889l15.767,2.313
		c0.977,0.121,1.225,0.854,0.49,1.522l-1.181,1.149l-15.076-2.211c-0.976-0.123-2.191-0.976-2.619-1.889l-7.063-14.253
		c-0.486-0.912-1.219-0.912-1.647,0l-7.002,14.312c-0.427,0.916-1.647,1.769-2.619,1.889l-15.067,2.211L21.265,41.738z
		 M33.501,56.953l-2.496,14.623c-0.097,0.557,0.021,0.93,0.287,1.089l2.393-14.022C33.78,58.141,33.695,57.529,33.501,56.953z
		 M44.234,55.792c0.858-0.733,2.033-1.647,3.646-2.755c5.051-3.469,10.045-7.425,10.226-7.609c0.189-0.186,0.914-0.855,0.55-0.978
		c-0.288-0.103-1.183-0.185-2.523-0.23c-0.912,0.705-2.087,1.599-3.399,2.57c0.003,0.012,0.021,0.022,0.017,0.035
		c-0.127,0.365-1.953,2.316-4.024,3.717c-1.555,1.053-4.183,2.901-6.687,4.764c-0.005,0.01-0.009,0.016-0.009,0.016
		S41.969,55.663,44.234,55.792z M62.487,56.941c-0.001,0.003-0.003,0.005-0.004,0.008c-2.4,0.582-6.059,1.283-12.472,1.569
		c-4.644,0.209-6.583,0.044-7.395-0.138c-1.866,0.143-3.558,0.305-4.797,0.522c-1.445,1.761-1.756,3.273-1.756,3.273
		c2.011-1.162,13.342-1.162,18.146-2.069c2.578-0.492,5.924-1.664,8.12-2.552c-0.069,0.393-0.081,0.788-0.015,1.147l2.378,13.912
		c0.265-0.163,0.393-0.519,0.297-1.033L62.487,56.941z M50.39,46.495c1.152-0.978,2.029-1.919,2.28-2.307
		c-2.377,0.021-5.298,0.117-8.506,0.323c-7.491,0.485-12.06,2.498-12.06,2.498s2.439-0.185,8.283-0.365
		C43.978,46.569,47.941,46.446,50.39,46.495z"/>
	<path opacity="0.08" d="M40.386,45.72c-5.843,0.18-8.283,0.365-8.283,0.365s3.452-1.518,9.269-2.235
		c5.541-0.125,11.549-0.313,11.378,0.203c-0.066,0.189-0.595,0.809-1.372,1.554C49.137,45.485,44.52,45.633,40.386,45.72z
		 M21.632,42.091c0.041-0.008,0.075-0.02,0.119-0.025l15.774-2.314c0.972-0.12,2.192-0.973,2.619-1.889l7.002-14.312
		c0.428-0.912,1.161-0.912,1.647,0l7.063,14.253c0.429,0.913,1.643,1.766,2.619,1.889l15.767,2.313
		c0.046,0.006,0.083,0.019,0.126,0.028l0.364-0.354c0.735-0.668,0.487-1.401-0.49-1.522l-15.767-2.313
		c-0.976-0.123-2.191-0.976-2.619-1.889l-7.063-14.253c-0.486-0.912-1.219-0.912-1.647,0l-7.002,14.312
		c-0.427,0.916-1.647,1.769-2.619,1.889l-15.774,2.314c-0.974,0.121-1.214,0.792-0.485,1.521L21.632,42.091z M33.6,56.374
		l-2.594,15.202c-0.078,0.447-0.014,0.773,0.15,0.969l2.53-14.826C33.761,57.316,33.718,56.843,33.6,56.374z M62.337,56.06
		c-1.792,0.429-4.271,0.916-8.028,1.252c-0.032,0.006-0.068,0.015-0.1,0.021c-4.278,0.808-13.728,0.897-17.166,1.728
		c-0.783,1.254-0.98,2.19-0.98,2.19c2.011-1.162,13.342-1.162,18.146-2.069c2.578-0.492,5.924-1.664,8.12-2.552
		c-0.069,0.393-0.081,0.788-0.015,1.147l2.515,14.716c0.165-0.192,0.236-0.499,0.16-0.912L62.337,56.06z M58.657,43.526
		c-0.198-0.071-0.689-0.132-1.406-0.178c-1.659,1.311-5.494,4.253-9.371,6.916c-5.057,3.474-5.849,5.059-5.849,5.059
		s-0.047,0.239,1.264,0.393c0.861-0.827,2.275-2.016,4.585-3.603c5.051-3.469,10.045-7.425,10.226-7.609
		C58.295,44.318,59.021,43.649,58.657,43.526z"/>
	<g>
		<path opacity="0.12" d="M33.685,55.879l-2.679,15.697c-0.054,0.309-0.036,0.557,0.03,0.75l2.651-15.531
			C33.738,56.515,33.731,56.201,33.685,55.879z"/>
		<path opacity="0.12" d="M60.186,55.596c-1.922,0.692-4.141,1.387-5.977,1.737c-4.555,0.861-14.975,0.906-17.756,1.899
			c-0.299,0.664-0.39,1.095-0.39,1.095c2.011-1.162,13.342-1.162,18.146-2.069c2.567-0.49,5.892-1.653,8.089-2.54
			c-0.019-0.186-0.021-0.376-0.005-0.572C61.679,55.292,60.984,55.445,60.186,55.596z"/>
		<path opacity="0.12" d="M21.751,41.141l15.774-2.314c0.972-0.12,2.192-0.973,2.619-1.889l7.002-14.312
			c0.428-0.912,1.161-0.912,1.647,0l7.063,14.253c0.429,0.913,1.643,1.766,2.619,1.889l15.767,2.313
			c0.338,0.042,0.581,0.16,0.734,0.32c0.404-0.581,0.108-1.14-0.734-1.244l-15.767-2.313c-0.976-0.123-2.191-0.976-2.619-1.889
			l-7.063-14.253c-0.486-0.912-1.219-0.912-1.647,0l-7.002,14.312c-0.427,0.916-1.647,1.769-2.619,1.889l-15.774,2.314
			c-0.841,0.105-1.13,0.619-0.727,1.227C21.176,41.293,21.416,41.183,21.751,41.141z"/>
		<path opacity="0.12" d="M42.032,55.323c0,0-0.021,0.132,0.498,0.262c0.666-0.763,2.156-2.202,5.351-4.397
			c5.051-3.469,10.045-7.425,10.226-7.609c0.189-0.186,0.914-0.855,0.55-0.978c-0.083-0.03-0.231-0.057-0.41-0.083
			c-0.056,0.055-0.107,0.105-0.14,0.137c-0.181,0.184-5.175,4.14-10.226,7.609C42.824,53.738,42.032,55.323,42.032,55.323z"/>
		<path opacity="0.12" d="M40.386,44.796c4.743-0.1,10.133-0.281,11.825-0.042c0.3-0.333,0.502-0.592,0.54-0.701
			c0.181-0.547-6.578-0.303-12.365-0.181c-2.04,0.063-3.657,0.126-4.908,0.182c-2.172,0.58-3.375,1.107-3.375,1.107
			S34.543,44.976,40.386,44.796z"/>
		<path opacity="0.12" d="M62.314,55.928c-0.002-0.012-0.001-0.026-0.003-0.039c-0.043,0.331-0.052,0.66,0.003,0.963l2.637,15.43
			c0.069-0.184,0.091-0.416,0.038-0.703L62.314,55.928z"/>
	</g>
	<g>
		<circle fill="#FF8600" cx="31.357" cy="44.953" r="0.274"/>
		<ellipse fill="#FF8600" cx="30.099" cy="44.735" rx="0.22" ry="0.22"/>
		<ellipse fill="#FF8600" cx="30.702" cy="45.228" rx="0.165" ry="0.165"/>
		<circle fill="#FF8600" cx="28.181" cy="45.394" r="0.22"/>
		<circle fill="#FF8600" cx="28.728" cy="44.954" r="0.165"/>
		<circle fill="#FF8600" cx="26.92" cy="45.447" r="0.275"/>
		<ellipse fill="#FF8600" cx="25.824" cy="45.502" rx="0.219" ry="0.163"/>
		<circle fill="#FF8600" cx="24.455" cy="45.831" r="0.218"/>
		<ellipse fill="#FF8600" cx="23.03" cy="46.269" rx="0.164" ry="0.164"/>
		<ellipse fill="#FF8600" cx="23.907" cy="46.051" rx="0.165" ry="0.165"/>
		<ellipse fill="#FF8600" cx="37.933" cy="44.075" rx="0.164" ry="0.164"/>
		<ellipse fill="#FF8600" cx="41.152" cy="43.269" rx="0.164" ry="0.164"/>
		<ellipse fill="#FF8600" cx="41.839" cy="43.747" rx="0.165" ry="0.165"/>
		<ellipse fill="#FF8600" cx="39.917" cy="43.766" rx="0.163" ry="0.163"/>
		<ellipse fill="#FF8600" cx="40.291" cy="42.924" rx="0.162" ry="0.162"/>
		<ellipse fill="#FF8600" cx="36.782" cy="44.569" rx="0.164" ry="0.164"/>
		<circle fill="#FF8600" cx="33.165" cy="44.569" r="0.274"/>
		<circle fill="#FF8600" cx="33.77" cy="44.241" r="0.22"/>
		<circle fill="#FF8600" cx="38.536" cy="44.461" r="0.275"/>
		<circle fill="#FF8600" cx="38.156" cy="43.309" r="0.275"/>
		<circle fill="#FF8600" cx="34.262" cy="44.569" r="0.274"/>
		<circle fill="#FF8600" cx="37.219" cy="43.911" r="0.275"/>
		<circle fill="#FF8600" cx="35.031" cy="44.24" r="0.274"/>
		<circle fill="#FF8600" cx="36.401" cy="43.966" r="0.274"/>
		<circle fill="#FF8600" cx="40.745" cy="43.877" r="0.274"/>
		<circle fill="#FF8600" cx="38.92" cy="43.638" r="0.274"/>
		<circle fill="#FF8600" cx="42.073" cy="43.091" r="0.277"/>
		<circle fill="#FF8600" cx="43.167" cy="43.776" r="0.274"/>
		<circle fill="#FF8600" cx="43.644" cy="42.953" r="0.274"/>
		<circle fill="#FF8600" cx="39.581" cy="43.2" r="0.274"/>
		<circle fill="#FF8600" cx="30.919" cy="44.35" r="0.163"/>
		<circle fill="#FF8600" cx="54.483" cy="55.42" r="0.329"/>
		<circle fill="#FF8600" cx="54.865" cy="54.761" r="0.329"/>
		<circle fill="#FF8600" cx="52.033" cy="56.144" r="0.329"/>
		<circle fill="#FF8600" cx="59.85" cy="54.212" r="0.329"/>
		<circle fill="#FF8600" cx="58.759" cy="54.159" r="0.264"/>
		<circle fill="#FF8600" cx="58.209" cy="54.598" r="0.329"/>
		<circle fill="#FF8600" cx="57.002" cy="54.212" r="0.329"/>
		<circle fill="#FF8600" cx="56.454" cy="55.255" r="0.329"/>
		<circle fill="#FF8600" cx="60.507" cy="53.776" r="0.332"/>
		<circle fill="#FF8600" cx="61.002" cy="54.376" r="0.219"/>
		<circle fill="#FF8600" cx="63.414" cy="52.569" r="0.221"/>
		<circle fill="#FF8600" cx="63.525" cy="53.393" r="0.273"/>
		<circle fill="#FF8600" cx="63.029" cy="53.83" r="0.164"/>
		<path fill="#FF8600" d="M64.836,51.911c0.214,0,0.388,0.172,0.388,0.384c0,0.213-0.173,0.388-0.388,0.388
			c-0.205,0-0.38-0.174-0.38-0.388C64.456,52.082,64.631,51.911,64.836,51.911z"/>
		<circle fill="#FF8600" cx="64.128" cy="52.954" r="0.164"/>
		<path fill="#FF8600" d="M64.836,52.844c0.153,0,0.274,0.121,0.274,0.273s-0.121,0.273-0.274,0.273
			c-0.148,0-0.272-0.121-0.272-0.273S64.687,52.844,64.836,52.844z"/>
		<circle fill="#FF8600" cx="65.658" cy="52.35" r="0.218"/>
		<circle fill="#FF8600" cx="66.703" cy="51.803" r="0.273"/>
		<path fill="#FF8600" d="M67.469,51.035c0.088,0,0.161,0.072,0.161,0.163c0,0.091-0.073,0.164-0.161,0.164
			c-0.093,0-0.165-0.073-0.165-0.164C67.303,51.107,67.375,51.035,67.469,51.035z"/>
		<circle fill="#FF8600" cx="68.678" cy="50.87" r="0.166"/>
		<circle fill="#FF8600" cx="68.125" cy="51.31" r="0.111"/>
		<circle fill="#FF8600" cx="70.152" cy="49.884" r="0.109"/>
		<path fill="#FF8600" d="M71.195,48.896c0.063,0,0.109,0.052,0.109,0.111c0,0.062-0.046,0.11-0.109,0.11
			c-0.059,0-0.107-0.048-0.107-0.11C71.087,48.949,71.135,48.896,71.195,48.896z"/>
		<path fill="#FF8600" d="M61.602,53.12c0.153,0,0.275,0.124,0.275,0.273c0,0.153-0.122,0.273-0.275,0.273
			c-0.148,0-0.272-0.121-0.272-0.273C61.33,53.245,61.455,53.12,61.602,53.12z"/>
		<path fill="#FF8600" d="M62.375,53.773c0.152,0,0.272,0.121,0.272,0.277c0,0.149-0.121,0.269-0.272,0.269
			c-0.153,0-0.277-0.121-0.277-0.269C62.098,53.895,62.222,53.773,62.375,53.773z"/>
		<circle fill="#FF8600" cx="60.349" cy="54.488" r="0.168"/>
		<circle fill="#FF8600" cx="59.305" cy="53.611" r="0.22"/>
		<circle fill="#FF8600" cx="69.499" cy="50.376" r="0.163"/>
		<circle fill="#FF8600" cx="66.151" cy="51.748" r="0.217"/>
		<circle fill="#FF8600" cx="58.151" cy="55.197" r="0.164"/>
		<path fill="#FF8600" d="M57.442,55.362c0.091,0,0.165,0.072,0.165,0.166c0,0.091-0.074,0.165-0.165,0.165
			c-0.093,0-0.166-0.073-0.166-0.165C57.276,55.433,57.348,55.362,57.442,55.362z"/>
		<circle fill="#FF8600" cx="57.496" cy="54.817" r="0.164"/>
		<circle fill="#FF8600" cx="53.594" cy="55.158" r="0.163"/>
		<circle fill="#FF8600" cx="52.153" cy="55.296" r="0.165"/>
		<circle fill="#FF8600" cx="54.371" cy="56.021" r="0.166"/>
		<circle fill="#FF8600" cx="55.898" cy="54.442" r="0.274"/>
		<path fill="#FF8600" d="M58.37,53.444c0.124,0,0.223,0.097,0.223,0.219c0,0.121-0.098,0.22-0.223,0.22
			c-0.118,0-0.215-0.099-0.215-0.22C58.156,53.541,58.252,53.444,58.37,53.444z"/>
		<circle fill="#FF8600" cx="61.933" cy="52.734" r="0.219"/>
		<circle fill="#FF8600" cx="63.085" cy="53.007" r="0.108"/>
	</g>
	<g>
		<circle fill="#FFFFFF" cx="32.672" cy="44.954" r="0.22"/>
		<ellipse fill="#FFFFFF" cx="29.99" cy="45.008" rx="0.218" ry="0.218"/>
		<ellipse fill="#FFFFFF" cx="30.099" cy="44.186" rx="0.22" ry="0.22"/>
		<ellipse fill="#FFFFFF" cx="30.702" cy="44.679" rx="0.165" ry="0.165"/>
		<circle fill="#FFFFFF" cx="28.181" cy="44.845" r="0.218"/>
		<ellipse fill="#FFFFFF" cx="37.219" cy="44.569" rx="0.164" ry="0.164"/>
		<ellipse fill="#FFFFFF" cx="39.414" cy="42.87" rx="0.164" ry="0.164"/>
		<ellipse fill="#FFFFFF" cx="37.825" cy="42.762" rx="0.164" ry="0.164"/>
		<circle fill="#FFFFFF" cx="33.165" cy="44.021" r="0.275"/>
		<circle fill="#FFFFFF" cx="34.371" cy="43.365" r="0.22"/>
		<ellipse fill="#FFFFFF" cx="32.014" cy="44.735" rx="0.22" ry="0.22"/>
		<circle fill="#FFFFFF" cx="31.851" cy="44.023" r="0.164"/>
		<circle fill="#FFFFFF" cx="34.097" cy="44.899" r="0.274"/>
		<circle fill="#FFFFFF" cx="35.743" cy="43.254" r="0.166"/>
		<circle fill="#FFFFFF" cx="35.305" cy="44.624" r="0.22"/>
		<circle fill="#FFFFFF" cx="29.367" cy="44.99" r="0.22"/>
		<circle fill="#FFFFFF" cx="28.681" cy="45.447" r="0.219"/>
		<circle fill="#FFFFFF" cx="36.727" cy="43.363" r="0.275"/>
		<circle fill="#FFFFFF" cx="39.469" cy="44.405" r="0.275"/>
		<path fill="#FFFFFF" d="M62.428,53.336c0.121,0,0.22,0.099,0.22,0.215c0,0.128-0.099,0.225-0.22,0.225
			c-0.122,0-0.22-0.096-0.22-0.225C62.208,53.434,62.305,53.336,62.428,53.336z"/>
		<circle fill="#FFFFFF" cx="60.695" cy="53.192" r="0.218"/>
		<circle fill="#FFFFFF" cx="64.106" cy="52.469" r="0.221"/>
		<circle fill="#FFFFFF" cx="55.58" cy="55.418" r="0.273"/>
		<circle fill="#FFFFFF" cx="53.113" cy="55.8" r="0.271"/>
		<circle fill="#FFFFFF" cx="61.496" cy="54.047" r="0.165"/>
		<path fill="#FFFFFF" d="M57.66,53.702c0.092,0,0.166,0.072,0.166,0.163c0,0.09-0.073,0.164-0.166,0.164
			c-0.088,0-0.164-0.074-0.164-0.164C57.496,53.773,57.572,53.702,57.66,53.702z"/>
		<circle fill="#FFFFFF" cx="59.084" cy="54.981" r="0.165"/>
		<circle fill="#FFFFFF" cx="53.934" cy="55.473" r="0.111"/>
		<circle fill="#FFFFFF" cx="59.579" cy="53.392" r="0.11"/>
		<circle fill="#FFFFFF" cx="56.618" cy="54.926" r="0.165"/>
	</g>
</g>
</svg>
