<?xml version="1.0" encoding="utf-8"?>
<!-- Generator: Adobe Illustrator 17.1.0, SVG Export Plug-In . SVG Version: 6.00 Build 0)  -->
<!DOCTYPE svg PUBLIC "-//W3C//DTD SVG 1.1//EN" "http://www.w3.org/Graphics/SVG/1.1/DTD/svg11.dtd">
<svg version="1.1" id="图层_1" xmlns="http://www.w3.org/2000/svg" xmlns:xlink="http://www.w3.org/1999/xlink" x="0px" y="0px"
	 width="30px" height="30px" viewBox="0 0 30 30" enable-background="new 0 0 30 30" xml:space="preserve">
<rect fill="none" width="30" height="30"/>
<path fill="#FFFFFF" d="M11.503,9.594c1.042-0.575,2.231-0.911,3.504-0.911c4.034,0,7.316,3.282,7.316,7.317h3.658
	c0-6.061-4.914-10.975-10.974-10.975c-1.971,0-3.816,0.527-5.413,1.438L8.16,4.11l-5.055,8.232h10.073L11.503,9.594z M16.824,19.658
	l1.687,2.747c-1.042,0.573-2.232,0.911-3.504,0.911c-4.034,0-7.317-3.283-7.317-7.317H4.031c0,6.061,4.914,10.975,10.975,10.975
	c1.976,0,3.823-0.53,5.422-1.445l1.449,2.36l5.018-8.232H16.824z"/>
<linearGradient id="SVGID_1_" gradientUnits="userSpaceOnUse" x1="-564.04" y1="458.3646" x2="-564.04" y2="478.7045" gradientTransform="matrix(1 0 0 -1 579.04 484.34)">
	<stop  offset="0" style="stop-color:#636363"/>
	<stop  offset="1" style="stop-color:#000000"/>
</linearGradient>
<path fill="url(#SVGID_1_)" d="M11.503,8.594c1.042-0.575,2.231-0.911,3.504-0.911c4.034,0,7.316,3.282,7.316,7.317h3.658
	c0-6.061-4.914-10.975-10.974-10.975c-1.971,0-3.816,0.527-5.413,1.438L8.16,3.11l-5.055,8.232h10.073L11.503,8.594z M16.824,18.658
	l1.687,2.747c-1.042,0.573-2.232,0.911-3.504,0.911c-4.034,0-7.317-3.283-7.317-7.317H4.031c0,6.061,4.914,10.975,10.975,10.975
	c1.976,0,3.823-0.53,5.422-1.445l1.449,2.36l5.018-8.232H16.824z"/>
</svg>
