<?xml version="1.0" encoding="utf-8"?>
<!-- Generator: Adobe Illustrator 17.1.0, SVG Export Plug-In . SVG Version: 6.00 Build 0)  -->
<!DOCTYPE svg PUBLIC "-//W3C//DTD SVG 1.1//EN" "http://www.w3.org/Graphics/SVG/1.1/DTD/svg11.dtd">
<svg version="1.1" id="图层_1" xmlns="http://www.w3.org/2000/svg" xmlns:xlink="http://www.w3.org/1999/xlink" x="0px" y="0px"
	 width="30px" height="30px" viewBox="0 0 30 30" enable-background="new 0 0 30 30" xml:space="preserve">
<rect fill="none" width="30" height="30"/>
<path fill-opacity="0.3" d="M11.503,7.594c1.042-0.575,2.231-0.911,3.504-0.911c4.034,0,7.316,3.282,7.316,7.317h3.658
	c0-6.061-4.914-10.975-10.974-10.975c-1.971,0-3.816,0.527-5.413,1.438L8.16,2.11l-5.055,8.232h10.073L11.503,7.594z M16.824,17.658
	l1.687,2.747c-1.042,0.573-2.232,0.911-3.504,0.911c-4.034,0-7.317-3.283-7.317-7.317H4.031c0,6.061,4.914,10.975,10.975,10.975
	c1.976,0,3.823-0.53,5.422-1.445l1.449,2.36l5.018-8.232L16.824,17.658L16.824,17.658z"/>
<path fill-opacity="0.15" d="M21.877,27.889c-0.348,0-0.67-0.181-0.853-0.477l-0.962-1.567c-1.58,0.741-3.31,1.129-5.057,1.129
	c-6.603,0-11.975-5.372-11.975-11.975c0-0.552,0.448-1,1-1h3.66c0.552,0,1,0.448,1,1c0,3.483,2.834,6.317,6.317,6.317
	c0.706,0,1.395-0.119,2.059-0.354l-1.093-1.78c-0.189-0.309-0.197-0.695-0.021-1.012c0.176-0.316,0.51-0.512,0.873-0.512
	l10.07-0.001c0.361,0,0.695,0.195,0.872,0.511c0.177,0.314,0.17,0.701-0.019,1.01l-5.018,8.231
	C22.549,27.706,22.226,27.888,21.877,27.889C21.878,27.889,21.878,27.889,21.877,27.889z M22.323,16c-0.553,0-1-0.448-1-1
	c0-3.483-2.834-6.317-6.316-6.317c-0.709,0-1.4,0.119-2.063,0.354l1.088,1.784c0.188,0.309,0.195,0.695,0.018,1.01
	c-0.177,0.315-0.511,0.51-0.872,0.51H3.105c-0.362,0-0.696-0.196-0.873-0.512s-0.169-0.703,0.021-1.012l5.055-8.232
	C7.49,2.291,7.813,2.11,8.16,2.11h0.001c0.349,0,0.671,0.182,0.853,0.479l0.949,1.558c1.577-0.736,3.302-1.122,5.043-1.122
	c6.603,0,11.975,5.372,11.975,11.975c0,0.552-0.447,1-1,1H22.323z"/>
<path fill="#F5F5F5" d="M11.503,8.594c1.042-0.575,2.231-0.911,3.504-0.911c4.034,0,7.316,3.282,7.316,7.317h3.658
	c0-6.061-4.914-10.975-10.974-10.975c-1.971,0-3.816,0.527-5.413,1.438L8.16,3.11l-5.055,8.232h10.073L11.503,8.594z M16.824,18.658
	l1.687,2.747c-1.042,0.573-2.232,0.911-3.504,0.911c-4.034,0-7.317-3.283-7.317-7.317H4.031c0,6.061,4.914,10.975,10.975,10.975
	c1.976,0,3.823-0.53,5.422-1.445l1.449,2.36l5.018-8.232L16.824,18.658L16.824,18.658z"/>
</svg>
