<?xml version="1.0" encoding="utf-8"?>
<!-- Generator: Adobe Illustrator 17.1.0, SVG Export Plug-In . SVG Version: 6.00 Build 0)  -->
<!DOCTYPE svg PUBLIC "-//W3C//DTD SVG 1.1//EN" "http://www.w3.org/Graphics/SVG/1.1/DTD/svg11.dtd">
<svg version="1.1" id="图层_1" xmlns="http://www.w3.org/2000/svg" xmlns:xlink="http://www.w3.org/1999/xlink" x="0px" y="0px"
	 width="30px" height="30px" viewBox="0 0 30 30" enable-background="new 0 0 30 30" xml:space="preserve">
<rect fill="none" width="30" height="30"/>
<path fill-opacity="0.3" d="M25.372,21.381l-4.173-4.174c0.888-1.424,1.409-3.101,1.409-4.903C22.607,7.165,18.442,3,13.304,3
	S4,7.166,4,12.304c0,5.137,4.166,9.304,9.304,9.304c1.802,0,3.479-0.522,4.905-1.409l4.173,4.173c0.827,0.827,2.165,0.827,2.99,0
	C26.197,23.545,26.197,22.207,25.372,21.381z M13.304,18.647c-3.499,0-6.343-2.846-6.343-6.343c0-3.498,2.844-6.343,6.343-6.343
	s6.343,2.845,6.343,6.343C19.647,15.801,16.803,18.647,13.304,18.647z"/>
<path fill-opacity="0.15" d="M23.878,26.992c-0.832,0-1.614-0.324-2.203-0.913l-3.634-3.634c-1.467,0.763-3.089,1.163-4.737,1.163
	C7.623,23.608,3,18.986,3,13.304C3,7.623,7.623,3,13.304,3s10.303,4.623,10.304,10.304c0,1.649-0.4,3.271-1.163,4.735l3.634,3.635
	c1.213,1.214,1.213,3.189,0.001,4.404C25.492,26.668,24.71,26.992,23.878,26.992z M13.304,7.961c-2.946,0-5.343,2.397-5.343,5.343
	s2.397,5.343,5.343,5.343s5.343-2.397,5.343-5.343S16.25,7.961,13.304,7.961z"/>
<path fill="#F5F5F5" d="M25.372,22.381l-4.173-4.174c0.888-1.424,1.409-3.101,1.409-4.903C22.607,8.165,18.442,4,13.304,4
	S4,8.166,4,13.304c0,5.137,4.166,9.304,9.304,9.304c1.802,0,3.479-0.522,4.905-1.409l4.173,4.173c0.827,0.827,2.165,0.827,2.99,0
	C26.197,24.545,26.197,23.207,25.372,22.381z M13.304,19.647c-3.499,0-6.343-2.846-6.343-6.343c0-3.498,2.844-6.343,6.343-6.343
	s6.343,2.845,6.343,6.343C19.647,16.801,16.803,19.647,13.304,19.647z"/>
</svg>
