<?xml version="1.0" encoding="utf-8"?>
<!-- Generator: Adobe Illustrator 17.1.0, SVG Export Plug-In . SVG Version: 6.00 Build 0)  -->
<!DOCTYPE svg PUBLIC "-//W3C//DTD SVG 1.1//EN" "http://www.w3.org/Graphics/SVG/1.1/DTD/svg11.dtd">
<svg version="1.1" id="图层_1" xmlns="http://www.w3.org/2000/svg" xmlns:xlink="http://www.w3.org/1999/xlink" x="0px" y="0px"
	 width="30px" height="30px" viewBox="0 0 30 30" enable-background="new 0 0 30 30" xml:space="preserve">
<rect fill="none" width="30" height="30"/>
<path fill="#FFFFFF" d="M25.372,23.381l-4.173-4.174c0.888-1.424,1.409-3.101,1.409-4.903C22.607,9.165,18.442,5,13.304,5
	S4,9.166,4,14.304c0,5.137,4.166,9.304,9.304,9.304c1.802,0,3.479-0.522,4.905-1.409l4.173,4.173c0.827,0.827,2.165,0.827,2.99,0
	C26.197,25.545,26.197,24.207,25.372,23.381z M13.304,20.647c-3.499,0-6.343-2.846-6.343-6.343c0-3.498,2.844-6.343,6.343-6.343
	s6.343,2.845,6.343,6.343C19.647,17.801,16.803,20.647,13.304,20.647z"/>
<linearGradient id="SVGID_1_" gradientUnits="userSpaceOnUse" x1="-564.0447" y1="459.1951" x2="-564.0447" y2="478.0045" gradientTransform="matrix(1 0 0 -1 579.04 484.34)">
	<stop  offset="0" style="stop-color:#636363"/>
	<stop  offset="1" style="stop-color:#000000"/>
</linearGradient>
<path fill="url(#SVGID_1_)" d="M25.372,22.381l-4.173-4.174c0.888-1.424,1.409-3.101,1.409-4.903C22.607,8.165,18.442,4,13.304,4
	S4,8.166,4,13.304c0,5.137,4.166,9.304,9.304,9.304c1.802,0,3.479-0.522,4.905-1.409l4.173,4.173c0.827,0.827,2.165,0.827,2.99,0
	C26.197,24.545,26.197,23.207,25.372,22.381z M13.304,19.647c-3.499,0-6.343-2.846-6.343-6.343c0-3.498,2.844-6.343,6.343-6.343
	s6.343,2.845,6.343,6.343C19.647,16.801,16.803,19.647,13.304,19.647z"/>
</svg>
