<?xml version="1.0" encoding="utf-8"?>
<!-- Generator: Adobe Illustrator 17.1.0, SVG Export Plug-In . SVG Version: 6.00 Build 0)  -->
<!DOCTYPE svg PUBLIC "-//W3C//DTD SVG 1.1//EN" "http://www.w3.org/Graphics/SVG/1.1/DTD/svg11.dtd">
<svg version="1.1" id="图层_1" xmlns="http://www.w3.org/2000/svg" xmlns:xlink="http://www.w3.org/1999/xlink" x="0px" y="0px"
	 width="30px" height="30px" viewBox="0 0 30 30" enable-background="new 0 0 30 30" xml:space="preserve">
<rect fill="none" width="30" height="30"/>
<path fill-opacity="0.3" d="M24.998,11.598c-1.175-0.222-1.561-1.237-2.096-2.172c-0.664-1.164-1.143-1.977-0.682-3.277
	c0.338-0.953,0.43-1.376-0.484-1.953c-0.589-0.372-1.208-0.705-1.811-1.053c-0.946-0.545-1.4,0.321-1.965,0.978
	c-0.893,1.043-2.182,0.67-3.391,0.725c-1.025,0.045-1.886-0.061-2.571-0.869C11.3,3.154,10.977,2.689,9.92,3.248
	c-0.563,0.3-1.107,0.638-1.661,0.954C7.198,4.807,7.622,5.515,7.96,6.479c0.464,1.318-0.538,2.21-1.086,3.298
	c-0.531,1.053-1.102,1.627-2.243,1.833c-0.996,0.181-1.406,0.315-1.445,1.395c-0.026,0.698-0.005,1.399-0.008,2.097
	c-0.003,0.954,0.67,0.994,1.439,1.138c0.709,0.131,1.355,0.408,1.853,0.993c0.509,1.326,1.74,2.365,1.515,3.858
	c-0.083,0.548-0.462,1.062-0.532,1.62c-0.099,0.781,2.194,2,2.857,2.187c0.8,0.462,1.317-0.727,1.779-1.157
	c0.887-0.826,1.753-0.667,2.888-0.666c1.078,0.003,2.07-0.189,2.884,0.682c0.456,0.429,0.975,1.627,1.77,1.167
	c0.669-0.185,2.968-1.386,2.87-2.171c-0.068-0.563-0.447-1.079-0.527-1.636c-0.099-0.686,0.016-1.292,0.425-1.85
	c0.486-0.664,0.724-1.649,1.313-2.198c1.005-0.934,3.243-0.474,3.107-2.164c0.003-0.64,0.006-1.278,0.008-1.918
	C26.825,11.773,26.003,11.786,24.998,11.598z M14.744,20.609c-3.601-0.123-6.508-3.234-6.385-6.837
	c0.123-3.602,3.234-6.509,6.838-6.386c3.602,0.123,6.507,3.236,6.384,6.839S18.345,20.732,14.744,20.609z"/>
<path fill-opacity="0.15" d="M19.276,27.027c-0.918,0-1.479-0.742-1.851-1.232c-0.089-0.118-0.168-0.233-0.249-0.31
	c-0.315-0.334-0.607-0.427-1.248-0.427c-0.139,0-0.757,0.017-0.927,0.017c-0.195,0-0.921-0.013-0.921-0.013
	c-0.601,0-0.933,0.059-1.311,0.41c-0.083,0.077-0.163,0.192-0.253,0.311c-0.371,0.485-0.933,1.22-1.848,1.22
	c-0.276,0-0.547-0.07-0.806-0.209c-0.746-0.297-3.611-1.56-3.402-3.209c0.053-0.424,0.207-0.784,0.343-1.103
	c0.088-0.206,0.171-0.4,0.192-0.541c0.089-0.592-0.205-1.107-0.691-1.898c-0.244-0.396-0.495-0.806-0.693-1.267
	c-0.284-0.284-0.653-0.456-1.176-0.553l-0.172-0.031c-0.679-0.122-2.091-0.375-2.085-2.095L2.176,15.4
	c-0.003-0.478-0.007-0.956,0.011-1.433c0.07-1.942,1.339-2.173,2.266-2.342c0.746-0.135,1.088-0.426,1.529-1.299
	c0.152-0.301,0.334-0.59,0.515-0.875c0.513-0.806,0.691-1.156,0.521-1.64L6.909,7.515C6.62,6.738,6.083,5.292,7.763,4.333
	l0.591-0.344C8.716,3.776,9.079,3.563,9.45,3.365c0.468-0.247,0.867-0.362,1.259-0.362c0.931,0,1.456,0.622,1.964,1.223l0.088,0.104
	c0.329,0.388,0.706,0.525,1.441,0.525c0.105,0,0.539-0.015,0.649-0.015c0.201,0,0.404,0.007,0.606,0.014
	c0.176,0.006,0.352,0.013,0.525,0.013c0.657,0,0.965-0.1,1.219-0.397c0.077-0.089,0.149-0.181,0.222-0.271
	c0.414-0.518,0.98-1.228,1.94-1.228c0.353,0,0.71,0.103,1.062,0.305l0.541,0.308c0.439,0.249,0.88,0.498,1.305,0.766
	c1.637,1.033,1.207,2.247,0.893,3.133c-0.287,0.811-0.074,1.25,0.584,2.403l0.246,0.444c0.456,0.839,0.691,1.19,1.191,1.285
	l0.308,0.053c0.815,0.137,2.333,0.393,2.336,2.316l-0.008,1.911c0.147,1.8-1.479,2.242-2.354,2.479
	c-0.428,0.116-0.869,0.236-1.073,0.426s-0.39,0.578-0.569,0.953c-0.177,0.369-0.359,0.75-0.616,1.102
	c-0.237,0.323-0.31,0.658-0.243,1.118c0.021,0.146,0.104,0.343,0.192,0.553c0.134,0.318,0.285,0.679,0.338,1.104
	c0.205,1.65-2.669,2.896-3.42,3.189C19.818,26.958,19.551,27.027,19.276,27.027L19.276,27.027z M14.976,9.382
	c-2.996,0-5.516,2.433-5.618,5.424c-0.104,3.042,2.378,5.7,5.42,5.804l0.187,0.003c2.995,0,5.515-2.433,5.617-5.422
	c0.05-1.476-0.492-2.899-1.527-4.008c-1.035-1.108-2.417-1.747-3.892-1.797L14.976,9.382z"/>
<path fill="#F5F5F5" d="M24.998,12.598c-1.175-0.222-1.561-1.237-2.096-2.172c-0.664-1.164-1.143-1.977-0.682-3.277
	c0.338-0.953,0.43-1.376-0.484-1.953c-0.589-0.372-1.208-0.705-1.811-1.053c-0.946-0.545-1.4,0.321-1.965,0.978
	c-0.893,1.043-2.182,0.67-3.391,0.725c-1.025,0.045-1.886-0.061-2.571-0.869C11.3,4.154,10.977,3.689,9.92,4.248
	c-0.563,0.3-1.107,0.638-1.661,0.954C7.198,5.807,7.622,6.515,7.96,7.479c0.464,1.318-0.538,2.21-1.086,3.298
	c-0.531,1.053-1.102,1.627-2.243,1.833c-0.996,0.181-1.406,0.315-1.445,1.395c-0.026,0.698-0.005,1.399-0.008,2.097
	c-0.003,0.954,0.67,0.994,1.439,1.138c0.709,0.131,1.355,0.408,1.853,0.993c0.509,1.326,1.74,2.365,1.515,3.858
	c-0.083,0.548-0.462,1.062-0.532,1.62c-0.099,0.781,2.194,2,2.857,2.187c0.8,0.462,1.317-0.727,1.779-1.157
	c0.887-0.826,1.753-0.667,2.888-0.666c1.078,0.003,2.07-0.189,2.884,0.682c0.456,0.429,0.975,1.627,1.77,1.167
	c0.669-0.185,2.968-1.386,2.87-2.171c-0.068-0.563-0.447-1.079-0.527-1.636c-0.099-0.686,0.016-1.292,0.425-1.85
	c0.486-0.664,0.724-1.649,1.313-2.198c1.005-0.934,3.243-0.474,3.107-2.164c0.003-0.64,0.006-1.278,0.008-1.918
	C26.825,12.773,26.003,12.786,24.998,12.598z M14.744,21.609c-3.601-0.123-6.508-3.234-6.385-6.837
	c0.123-3.602,3.234-6.509,6.838-6.386c3.602,0.123,6.507,3.236,6.384,6.839S18.345,21.732,14.744,21.609z"/>
</svg>
