<?xml version="1.0" encoding="utf-8"?>
<!-- Generator: Adobe Illustrator 17.1.0, SVG Export Plug-In . SVG Version: 6.00 Build 0)  -->
<!DOCTYPE svg PUBLIC "-//W3C//DTD SVG 1.1//EN" "http://www.w3.org/Graphics/SVG/1.1/DTD/svg11.dtd">
<svg version="1.1" id="图层_1" xmlns="http://www.w3.org/2000/svg" xmlns:xlink="http://www.w3.org/1999/xlink" x="0px" y="0px"
	 width="30px" height="30px" viewBox="0 0 30 30" enable-background="new 0 0 30 30" xml:space="preserve">
<rect fill="none" width="30" height="30"/>
<path fill="#FFFFFF" d="M24.998,13.598c-1.175-0.222-1.561-1.237-2.096-2.172c-0.664-1.164-1.143-1.977-0.682-3.277
	c0.338-0.953,0.43-1.376-0.484-1.953c-0.589-0.372-1.208-0.705-1.811-1.053c-0.946-0.545-1.4,0.321-1.965,0.978
	c-0.893,1.043-2.182,0.67-3.391,0.725c-1.025,0.045-1.886-0.061-2.571-0.869c-0.698-0.823-1.021-1.288-2.078-0.729
	c-0.563,0.3-1.107,0.638-1.661,0.954C7.198,6.807,7.622,7.515,7.96,8.479c0.464,1.318-0.538,2.21-1.086,3.298
	c-0.531,1.053-1.102,1.627-2.243,1.833c-0.996,0.181-1.406,0.315-1.445,1.395c-0.026,0.698-0.005,1.399-0.008,2.097
	c-0.003,0.954,0.67,0.994,1.439,1.138c0.709,0.131,1.355,0.408,1.853,0.993c0.509,1.326,1.74,2.365,1.515,3.858
	c-0.083,0.548-0.462,1.062-0.532,1.62c-0.099,0.781,2.194,2,2.857,2.187c0.8,0.462,1.317-0.727,1.779-1.157
	c0.887-0.826,1.753-0.667,2.888-0.666c1.078,0.003,2.07-0.189,2.884,0.682c0.456,0.429,0.975,1.627,1.77,1.167
	c0.669-0.185,2.968-1.386,2.87-2.171c-0.068-0.563-0.447-1.079-0.527-1.636c-0.099-0.686,0.016-1.292,0.425-1.85
	c0.486-0.664,0.724-1.649,1.313-2.198c1.005-0.934,3.243-0.474,3.107-2.164c0.003-0.64,0.006-1.278,0.008-1.918
	C26.825,13.773,26.003,13.786,24.998,13.598z M14.744,22.609c-3.601-0.123-6.508-3.234-6.385-6.837
	c0.123-3.602,3.234-6.509,6.838-6.386c3.602,0.123,6.507,3.236,6.384,6.839S18.345,22.732,14.744,22.609z"/>
<linearGradient id="SVGID_1_" gradientUnits="userSpaceOnUse" x1="15" y1="3.9708" x2="15" y2="24.0225">
	<stop  offset="0" style="stop-color:#000000"/>
	<stop  offset="1" style="stop-color:#636363"/>
</linearGradient>
<path fill="url(#SVGID_1_)" d="M24.998,12.598c-1.175-0.222-1.561-1.237-2.096-2.172c-0.664-1.164-1.143-1.977-0.682-3.277
	c0.338-0.953,0.43-1.376-0.484-1.953c-0.589-0.372-1.208-0.705-1.811-1.053c-0.946-0.545-1.4,0.321-1.965,0.978
	c-0.893,1.043-2.182,0.67-3.391,0.725c-1.025,0.045-1.886-0.061-2.571-0.869c-0.698-0.823-1.021-1.288-2.078-0.729
	c-0.563,0.3-1.107,0.638-1.661,0.954C7.198,5.807,7.622,6.515,7.96,7.479c0.464,1.318-0.538,2.21-1.086,3.298
	c-0.531,1.053-1.102,1.627-2.243,1.833c-0.996,0.181-1.406,0.315-1.445,1.395c-0.026,0.698-0.005,1.399-0.008,2.097
	c-0.003,0.954,0.67,0.994,1.439,1.138c0.709,0.131,1.355,0.408,1.853,0.993c0.509,1.326,1.74,2.365,1.515,3.858
	c-0.083,0.548-0.462,1.062-0.532,1.62c-0.099,0.781,2.194,2,2.857,2.187c0.8,0.462,1.317-0.727,1.779-1.157
	c0.887-0.826,1.753-0.667,2.888-0.666c1.078,0.003,2.07-0.189,2.884,0.682c0.456,0.429,0.975,1.627,1.77,1.167
	c0.669-0.185,2.968-1.386,2.87-2.171c-0.068-0.563-0.447-1.079-0.527-1.636c-0.099-0.686,0.016-1.292,0.425-1.85
	c0.486-0.664,0.724-1.649,1.313-2.198c1.005-0.934,3.243-0.474,3.107-2.164c0.003-0.64,0.006-1.278,0.008-1.918
	C26.825,12.773,26.003,12.786,24.998,12.598z M14.744,21.609c-3.601-0.123-6.508-3.234-6.385-6.837
	c0.123-3.602,3.234-6.509,6.838-6.386c3.602,0.123,6.507,3.236,6.384,6.839S18.345,21.732,14.744,21.609z"/>
</svg>
