<?xml version="1.0" encoding="utf-8"?>
<!-- Generator: Adobe Illustrator 17.1.0, SVG Export Plug-In . SVG Version: 6.00 Build 0)  -->
<!DOCTYPE svg PUBLIC "-//W3C//DTD SVG 1.1//EN" "http://www.w3.org/Graphics/SVG/1.1/DTD/svg11.dtd">
<svg version="1.1" id="图层_1" xmlns="http://www.w3.org/2000/svg" xmlns:xlink="http://www.w3.org/1999/xlink" x="0px" y="0px"
	 width="30px" height="30px" viewBox="0 0 30 30" enable-background="new 0 0 30 30" xml:space="preserve">
<rect fill="none" width="30" height="30"/>
<path fill-opacity="0.3" d="M21.978,16.96c-0.952,0-1.816,0.345-2.503,0.899L14.43,15c0.091-0.39,0.146-0.794,0.146-1.213
	c0-0.371-0.04-0.733-0.113-1.082l4.932-2.63c0.701,0.592,1.593,0.964,2.583,0.964c2.221,0,4.019-1.8,4.019-4.019S24.199,3,21.978,3
	c-2.219,0-4.019,1.8-4.019,4.019c0,0.151,0.028,0.295,0.045,0.442l-4.936,2.632C12.108,9.112,10.769,8.5,9.287,8.5
	C6.368,8.499,4,10.866,4,13.787c0,2.92,2.368,5.288,5.288,5.288c1.434,0,2.732-0.572,3.684-1.498l5.043,2.859
	c-0.025,0.179-0.054,0.357-0.054,0.545c0,2.219,1.8,4.019,4.019,4.019c2.221,0,4.019-1.8,4.019-4.019S24.199,16.96,21.978,16.96z"/>
<path fill-opacity="0.15" d="M21.98,27c-2.766,0-5.017-2.248-5.02-5.013l-3.871-2.193c-1.09,0.831-2.415,1.281-3.802,1.281
	C5.821,21.075,3,18.254,3,14.787S5.819,8.5,9.285,8.5c1.449,0,2.82,0.485,3.932,1.38l3.744-1.996C17.033,5.179,19.256,3,21.978,3
	c2.768,0,5.02,2.252,5.02,5.02s-2.252,5.019-5.02,5.019c-0.953,0-1.863-0.27-2.667-0.786l-3.757,2.003
	c0.015,0.177,0.023,0.354,0.023,0.53c0,0.229-0.013,0.458-0.04,0.69l3.883,2.202c0.777-0.472,1.65-0.719,2.559-0.719
	c2.769,0,5.021,2.253,5.021,5.021C26.999,24.749,24.748,27,21.98,27z"/>
<path fill="#F5F5F5" d="M21.978,17.96c-0.952,0-1.816,0.345-2.503,0.899L14.43,16c0.091-0.39,0.146-0.794,0.146-1.213
	c0-0.371-0.04-0.733-0.113-1.082l4.932-2.63c0.701,0.592,1.593,0.964,2.583,0.964c2.221,0,4.019-1.8,4.019-4.019S24.199,4,21.978,4
	c-2.219,0-4.019,1.8-4.019,4.019c0,0.151,0.028,0.295,0.045,0.442l-4.936,2.632C12.108,10.112,10.769,9.5,9.287,9.5
	C6.368,9.499,4,11.866,4,14.787c0,2.92,2.368,5.288,5.288,5.288c1.434,0,2.732-0.572,3.684-1.498l5.043,2.859
	c-0.025,0.179-0.054,0.357-0.054,0.545c0,2.219,1.8,4.019,4.019,4.019c2.221,0,4.019-1.8,4.019-4.019S24.199,17.96,21.978,17.96z"/>
</svg>
