<?xml version="1.0" encoding="utf-8"?>
<!-- Generator: Adobe Illustrator 17.1.0, SVG Export Plug-In . SVG Version: 6.00 Build 0)  -->
<!DOCTYPE svg PUBLIC "-//W3C//DTD SVG 1.1//EN" "http://www.w3.org/Graphics/SVG/1.1/DTD/svg11.dtd">
<svg version="1.1" id="图层_1" xmlns="http://www.w3.org/2000/svg" xmlns:xlink="http://www.w3.org/1999/xlink" x="0px" y="0px"
	 width="30px" height="30px" viewBox="0 0 30 30" enable-background="new 0 0 30 30" xml:space="preserve">
<rect fill="none" width="30" height="30"/>
<path fill="#FFFFFF" d="M21.978,18.96c-0.952,0-1.816,0.345-2.503,0.899L14.43,17c0.091-0.39,0.146-0.794,0.146-1.213
	c0-0.371-0.04-0.733-0.113-1.082l4.932-2.63c0.701,0.592,1.593,0.964,2.583,0.964c2.221,0,4.019-1.8,4.019-4.019S24.199,5,21.978,5
	c-2.219,0-4.019,1.8-4.019,4.019c0,0.151,0.028,0.295,0.045,0.442l-4.936,2.632c-0.96-0.981-2.299-1.593-3.781-1.593
	C6.368,10.499,4,12.866,4,15.787c0,2.92,2.368,5.288,5.288,5.288c1.434,0,2.732-0.572,3.684-1.498l5.043,2.859
	c-0.025,0.179-0.054,0.357-0.054,0.545c0,2.219,1.8,4.019,4.019,4.019c2.221,0,4.019-1.8,4.019-4.019S24.199,18.96,21.978,18.96z"/>
<linearGradient id="SVGID_1_" gradientUnits="userSpaceOnUse" x1="-564.0412" y1="459.1891" x2="-564.0412" y2="478.0039" gradientTransform="matrix(1 0 0 -1 579.04 484.34)">
	<stop  offset="0" style="stop-color:#636363"/>
	<stop  offset="1" style="stop-color:#000000"/>
</linearGradient>
<path fill="url(#SVGID_1_)" d="M21.978,17.96c-0.952,0-1.816,0.345-2.503,0.899L14.43,16c0.091-0.39,0.146-0.794,0.146-1.213
	c0-0.371-0.04-0.733-0.113-1.082l4.932-2.63c0.701,0.592,1.593,0.964,2.583,0.964c2.221,0,4.019-1.8,4.019-4.019S24.199,4,21.978,4
	c-2.219,0-4.019,1.8-4.019,4.019c0,0.151,0.028,0.295,0.045,0.442l-4.936,2.632c-0.96-0.981-2.299-1.593-3.781-1.593
	C6.368,9.499,4,11.866,4,14.787c0,2.92,2.368,5.288,5.288,5.288c1.434,0,2.732-0.572,3.684-1.498l5.043,2.859
	c-0.025,0.179-0.054,0.357-0.054,0.545c0,2.219,1.8,4.019,4.019,4.019c2.221,0,4.019-1.8,4.019-4.019S24.199,17.96,21.978,17.96z"/>
</svg>
