<?xml version="1.0" encoding="utf-8"?>
<!-- Generator: Adobe Illustrator 17.1.0, SVG Export Plug-In . SVG Version: 6.00 Build 0)  -->
<!DOCTYPE svg PUBLIC "-//W3C//DTD SVG 1.1//EN" "http://www.w3.org/Graphics/SVG/1.1/DTD/svg11.dtd">
<svg version="1.1" id="图层_1" xmlns="http://www.w3.org/2000/svg" xmlns:xlink="http://www.w3.org/1999/xlink" x="0px" y="0px"
	 width="96px" height="96px" viewBox="0 0 96 96" enable-background="new 0 0 96 96" xml:space="preserve">
<path fill-opacity="0.4" d="M88,49c0,29.6-10.4,40-40,40S8,78.6,8,49S18.4,9,48,9C77.7,9,88,19.4,88,49z"/>
<linearGradient id="SVGID_1_" gradientUnits="userSpaceOnUse" x1="25.6602" y1="113.96" x2="25.6602" y2="193.96" gradientTransform="matrix(1 0 0 1 22.3398 -105.96)">
	<stop  offset="0" style="stop-color:#FAFAFA"/>
	<stop  offset="0.3317" style="stop-color:#F1F1F1"/>
	<stop  offset="0.8711" style="stop-color:#D9D9D9"/>
	<stop  offset="1" style="stop-color:#D2D2D2"/>
</linearGradient>
<path fill="url(#SVGID_1_)" d="M8,48c0,29.6,10.4,40,40,40s40-10.4,40-40c0-29-9.9-39.5-38.1-40h-3.8C17.9,8.5,8,19,8,48z"/>
<linearGradient id="SVGID_2_" gradientUnits="userSpaceOnUse" x1="25.6602" y1="113.96" x2="25.6602" y2="193.96" gradientTransform="matrix(1 0 0 1 22.3398 -105.96)">
	<stop  offset="0" style="stop-color:#FFFFFF"/>
	<stop  offset="0.2292" style="stop-color:#FBFBFB"/>
	<stop  offset="0.4667" style="stop-color:#F0EFEE"/>
	<stop  offset="0.7079" style="stop-color:#DCDBDA"/>
	<stop  offset="0.9504" style="stop-color:#C1C0BD"/>
	<stop  offset="1" style="stop-color:#BBB9B6"/>
</linearGradient>
<path fill="url(#SVGID_2_)" fill-opacity="0.8" d="M48,8C18.4,8,8,18.4,8,48s10.4,40,40,40s40-10.4,40-40S77.6,8,48,8z M48,87
	C18.8,87,9,77.2,9,48S18.8,9,48,9s39,9.8,39,39S77.2,87,48,87z"/>
<path opacity="0.5" fill="#FFFFFF" enable-background="new    " d="M43.5,72.9c-12.1,0-24.7-6-24.7-16c0-5.1,3.1-10.9,8.7-16.6
	c5.3-5.3,11.5-8.7,15.9-8.7c1.7,0,3.1,0.5,4.1,1.5c1.5,1.5,1.9,3.9,1.1,6.9c2.9-1.2,5.7-1.8,8-1.8c2.6,0,4.5,0.8,5.6,2.3
	c1.1,1.6,1.2,3.8,0.1,6.6l0,0c0.1,0,0.2,0.1,0.3,0.1c4.7,1.5,7.6,4.7,7.6,8.7C70,63.9,58.7,72.9,43.5,72.9z M43.8,47.2
	c-0.8,0-1.6,0-2.5,0.1c-4.3,0.4-8.3,1.9-11.1,4.2c-2.7,2.2-4.1,4.8-3.8,7.5c0.5,4.9,6.7,8.7,14.5,8.7c0.8,0,1.6,0,2.5-0.1
	c8.8-0.9,15.5-6.1,14.9-11.7C57.8,50.9,51.6,47.2,43.8,47.2z M40.4,67.3c-1.1,0-2.2-0.2-3.3-0.5c-2.5-0.8-4.4-2.5-5.3-4.6
	c-0.9-2.1-0.8-4.5,0.3-6.6c1.7-3.5,5.7-5.8,9.9-5.8c0.9,0,1.8,0.1,2.7,0.3c2.6,0.7,4.7,2.3,5.7,4.5c1,2.1,1,4.4,0,6.6
	C48.8,64.9,44.8,67.3,40.4,67.3L40.4,67.3z M38.8,58.3c-0.9,0-1.7,0.5-2.2,1.2c-0.3,0.5-0.4,1-0.3,1.4c0.1,0.4,0.4,0.7,0.8,0.9
	c0.3,0.1,0.5,0.2,0.8,0.2c0.9,0,1.7-0.5,2.2-1.2c0.3-0.5,0.4-1,0.2-1.4c-0.1-0.4-0.4-0.7-0.8-0.9C39.4,58.3,39.1,58.3,38.8,58.3z
	 M73.4,48.2c-0.3,0-0.7-0.1-1-0.2c-0.8-0.3-1.5-0.8-1.8-1.6s-0.5-1.6-0.2-2.4c1.1-3.3,0.3-6.9-2-9.4c-1.8-2-4.4-3.2-7.2-3.2
	c-0.7,0-1.4,0.1-2,0.2c-0.2,0-0.4,0.1-0.7,0.1c-1.5,0-2.8-1.1-3.1-2.5c-0.2-0.8,0-1.7,0.4-2.4c0.5-0.7,1.2-1.2,2-1.4
	c1.1-0.2,2.2-0.4,3.3-0.4c4.5,0,8.8,1.9,11.8,5.3c3.8,4.2,5.1,10.1,3.4,15.5c0,0,0,0,0,0.1C76,47.3,74.8,48.2,73.4,48.2z M66.4,45.6
	c-0.3,0-0.6,0-0.9-0.1c-1.5-0.5-2.3-2.1-1.8-3.6c0.3-0.9,0.1-1.8-0.5-2.5c-0.5-0.5-1.2-0.8-1.9-0.8c-0.2,0-0.4,0-0.5,0.1
	c-0.2,0-0.4,0.1-0.6,0.1c-1.3,0-2.5-1-2.8-2.3c-0.2-0.7,0-1.5,0.4-2.2s1.1-1.1,1.8-1.2c0.6-0.1,1.2-0.2,1.7-0.2c2.3,0,4.6,1,6.1,2.7
	c2,2.2,2.6,5.3,1.7,8.1C68.8,44.8,67.7,45.6,66.4,45.6z"/>
<path opacity="0.5" fill="#FFFFFF" enable-background="new    " d="M43.5,68.5c-9.3,0.9-17.4-3.3-18-9.4S32,47.2,41.3,46.3
	s17.4,3.3,18,9.4C59.9,61.9,52.8,67.6,43.5,68.5 M62.2,48.2c-0.8-0.2-1.3-0.4-0.9-1.4c0.9-2.3,1-4.2,0-5.6
	c-1.8-2.6-6.8-2.5-12.6-0.1c0,0-1.8,0.8-1.3-0.6c0.9-2.8,0.8-5.2-0.6-6.6c-3.1-3.1-11.4,0.1-18.5,7.2c-5.3,5.3-8.4,11-8.4,15.8
	c0,9.3,12,15,23.7,15c15.4,0,25.6-8.9,25.6-16C69,51.6,65.4,49.2,62.2,48.2 M72.4,31.1c-3.7-4.1-9.2-5.7-14.2-4.6l0,0
	c-1.2,0.2-1.9,1.4-1.7,2.6s1.4,1.9,2.6,1.7c3.6-0.8,7.5,0.4,10.1,3.3s3.3,6.9,2.2,10.4l0,0c-0.4,1.1,0.3,2.4,1.4,2.7
	c1.1,0.4,2.4-0.3,2.7-1.4l0,0C77.1,40.8,76.1,35.2,72.4,31.1 M66.7,36.2c-1.8-2-4.5-2.8-6.9-2.2c-1,0.2-1.6,1.2-1.4,2.2
	c0.2,1,1.2,1.6,2.2,1.4l0,0c1.2-0.3,2.5,0.1,3.4,1.1c0.9,1,1.1,2.3,0.7,3.5l0,0c-0.3,1,0.2,2,1.2,2.3s2-0.2,2.3-1.2
	C69,40.9,68.5,38.2,66.7,36.2 M44,57.4c-0.3,0.6-1,0.8-1.6,0.6s-0.7-0.9-0.4-1.4s1-0.8,1.6-0.6C44.1,56.2,44.3,56.8,44,57.4
	 M41,61.2c-0.9,1.4-2.8,2.1-4.3,1.4c-1.4-0.7-1.9-2.3-1-3.7s2.8-2,4.2-1.4C41.4,58.1,41.9,59.8,41,61.2 M44.4,51
	c-4.4-1.2-9.5,1.1-11.4,5c-2,4-0.1,8.4,4.4,9.9c4.7,1.5,10.1-0.8,12-5.1C51.4,56.6,49,52.2,44.4,51"/>
<rect fill="none" width="96" height="96"/>
<linearGradient id="SVGID_3_" gradientUnits="userSpaceOnUse" x1="44.55" y1="27.1" x2="44.55" y2="66.2826" gradientTransform="matrix(1 0 0 -1 0 98)">
	<stop  offset="0" style="stop-color:#F01423"/>
	<stop  offset="0.4068" style="stop-color:#E31221"/>
	<stop  offset="1" style="stop-color:#C80F1E"/>
</linearGradient>
<path fill="url(#SVGID_3_)" d="M43.5,67.5c-9.3,0.9-17.4-3.3-18-9.4S32,46.2,41.3,45.3s17.4,3.3,18,9.4
	C59.9,60.9,52.8,66.6,43.5,67.5 M62.2,47.2c-0.8-0.2-1.3-0.4-0.9-1.4c0.9-2.3,1-4.2,0-5.6c-1.8-2.6-6.8-2.5-12.6-0.1
	c0,0-1.8,0.8-1.3-0.6c0.9-2.8,0.8-5.2-0.6-6.6c-3.1-3.1-11.4,0.1-18.5,7.2c-5.3,5.3-8.4,11-8.4,15.8c0,9.3,12,15,23.7,15
	c15.4,0,25.6-8.9,25.6-16C69,50.6,65.4,48.2,62.2,47.2"/>
<path fill="#FF9933" d="M72.4,30.1c-3.7-4.1-9.2-5.7-14.2-4.6l0,0c-1.2,0.2-1.9,1.4-1.7,2.6s1.4,1.9,2.6,1.7
	c3.6-0.8,7.5,0.4,10.1,3.3s3.3,6.9,2.2,10.4l0,0c-0.4,1.1,0.3,2.4,1.4,2.7c1.1,0.4,2.4-0.3,2.7-1.4l0,0
	C77.1,39.8,76.1,34.2,72.4,30.1"/>
<path fill="#FF9933" d="M66.7,35.2c-1.8-2-4.5-2.8-6.9-2.2c-1,0.2-1.6,1.2-1.4,2.2c0.2,1,1.2,1.6,2.2,1.4l0,0
	c1.2-0.3,2.5,0.1,3.4,1.1c0.9,1,1.1,2.3,0.7,3.5l0,0c-0.3,1,0.2,2,1.2,2.3s2-0.2,2.3-1.2C69,39.9,68.5,37.2,66.7,35.2"/>
<path d="M44,56.4c-0.3,0.6-1,0.8-1.6,0.6s-0.7-0.9-0.4-1.4s1-0.8,1.6-0.6C44.1,55.2,44.3,55.8,44,56.4 M41,60.2
	c-0.9,1.4-2.8,2.1-4.3,1.4c-1.4-0.7-1.9-2.3-1-3.7s2.8-2,4.2-1.4C41.4,57.1,41.9,58.8,41,60.2 M44.4,50c-4.4-1.2-9.5,1.1-11.4,5
	c-2,4-0.1,8.4,4.4,9.9c4.7,1.5,10.1-0.8,12-5.1C51.4,55.6,49,51.2,44.4,50"/>
<g opacity="0.06">
	<path d="M66.7,35.2L66.7,35.2L66.7,35.2z"/>
	<path d="M64.8,42.6c0-0.3-0.1-0.6-0.2-0.9C64.6,42.1,64.7,42.4,64.8,42.6z"/>
	<path d="M47.8,40.2c-0.1,0.7-0.2,1.4-0.5,2.1c-0.5,1.4,1.3,0.6,1.3,0.6c5.7-2.4,10.8-2.5,12.6,0.1c0.2,0.3,0.4,0.7,0.5,1
		c0.4-1.6,0.2-3-0.5-4c-0.1-0.2-0.3-0.4-0.5-0.5c-0.1,0-0.2,0-0.3,0l0,0c-0.9,0.2-1.9-0.4-2.1-1.2c-2.4-0.5-5.9,0.1-9.7,1.7
		C48.7,40,48.2,40.2,47.8,40.2z"/>
	<path d="M66.7,35.2c-1.8-2-4.5-2.8-6.9-2.2c-1,0.2-1.6,1.2-1.4,2.2c0.1,0.5,0.4,0.8,0.7,1.1c0.2-0.1,0.4-0.3,0.7-0.3
		c2.5-0.5,5.1,0.2,6.9,2.2l0,0l0,0l0,0c0.9,1,1.5,2.1,1.7,3.4C68.8,39.4,68.3,37,66.7,35.2z"/>
	<path d="M71.8,41.6c-0.1,0.6-0.2,1.2-0.4,1.8l0,0c-0.2,0.7-0.1,1.4,0.3,1.9C71.9,44,71.9,42.8,71.8,41.6z"/>
	<path d="M57,29.1c0.3-0.3,0.7-0.5,1.1-0.6l0,0c5-1.1,10.5,0.5,14.2,4.6l0,0c2.2,2.5,3.5,5.5,3.8,8.5c0.4-4.1-0.8-8.3-3.8-11.5l0,0
		c-3.7-4.1-9.2-5.7-14.2-4.6l0,0c-1.2,0.2-1.9,1.4-1.7,2.6C56.6,28.4,56.8,28.8,57,29.1z"/>
	<path d="M44.4,50C40,48.9,35,51.1,33,55c-0.8,1.6-0.9,3.2-0.6,4.7c0.1-0.6,0.3-1.1,0.6-1.7c1.9-3.9,7-6.1,11.4-5
		c2.9,0.8,5,2.8,5.5,5.3C50.8,54.6,48.5,51.1,44.4,50z"/>
	<path d="M43.5,70.5c9.3-0.9,16.4-6.6,15.8-12.8c0-0.2-0.1-0.5-0.1-0.7c-1,4.9-6.8,9.2-14.3,10.3c-2.3,1.1-5,1.3-7.4,0.5
		c-0.7-0.2-1.3-0.5-1.8-0.8c-5.3-1.2-9.2-4.3-10-8.2c-0.2,0.7-0.2,1.5-0.1,2.3c0.4,4,4,7.2,9.1,8.7c1.3,0.3,2.5,0.6,3.9,0.7
		C40.1,70.7,41.8,70.7,43.5,70.5z"/>
	<path d="M62.2,47.2L62.2,47.2c-0.1,0-0.3-0.1-0.4-0.1c-0.1,0.5-0.3,1.1-0.5,1.7c-0.4,1,0.1,1.2,0.9,1.4l0,0c2.8,0.9,6,2.9,6.7,6.2
		c0.1-0.5,0.2-1,0.2-1.5C69,50.6,65.4,48.2,62.2,47.2z"/>
	<path d="M42.4,60c0.6,0.2,1.3,0,1.6-0.6s0.1-1.2-0.5-1.4s-1.2,0-1.6,0.6C41.7,59.1,41.8,59.8,42.4,60z"/>
	<path d="M28.2,43c7.1-7.1,15.4-10.3,18.5-7.2c0.5,0.5,0.8,1.2,1,1.9c0.4-2.1,0.1-3.8-1-4.9c-3.1-3.1-11.4,0.1-18.5,7.2
		c-5.3,5.3-8.4,11-8.4,15.8c0,0.5,0,1,0.1,1.5C20.5,52.8,23.4,47.8,28.2,43z"/>
	<path d="M41,63.2c0.6-1,0.6-2.2,0-3c-0.9,1.4-2.8,2-4.3,1.4c-0.4-0.2-0.7-0.4-0.9-0.8l0,0c-0.9,1.4-0.5,3,0.8,3.7
		c0.2,0.1,0.5,0.2,0.7,0.3C38.7,65.1,40.2,64.5,41,63.2z"/>
</g>
<g opacity="0.1">
	<path d="M43.9,44.2c-0.9,0-1.8,0-2.7,0.1c-4.7,0.5-9,2.1-12.2,4.7c-3.3,2.6-4.9,5.9-4.5,9.2C25.1,64.3,32,68.7,41,68.7
		c0.9,0,1.8,0,2.6-0.1c9.9-1,17.4-7.2,16.7-13.9C59.7,48.6,52.8,44.2,43.9,44.2z M43.5,67.5c-9.3,0.9-17.4-3.3-18-9.4
		S32,46.2,41.3,45.3s17.4,3.3,18,9.4C59.9,60.9,52.8,66.6,43.5,67.5z"/>
	<path d="M44.4,50C40,48.9,35,51.1,33,55c-2,4-0.1,8.4,4.4,9.9c4.7,1.5,10.1-0.8,12-5.1C51.4,55.6,49,51.2,44.4,50z M48.6,59.4
		c-1.3,2.9-4.7,5-8.2,5l0,0c-0.9,0-1.8-0.1-2.7-0.4c-1.9-0.6-3.4-1.9-4.1-3.5c-0.7-1.6-0.6-3.3,0.2-5c1.4-2.8,4.6-4.7,8.1-4.7
		c0.7,0,1.5,0.1,2.2,0.3c2,0.5,3.6,1.8,4.4,3.4C49.3,55.9,49.3,57.7,48.6,59.4z"/>
	<path d="M43.9,54.1C43.7,54,43.4,54,43.1,54c-0.8,0-1.6,0.4-2,1.2c-0.1,0.2-0.2,0.5-0.3,0.7c-0.1-0.1-0.3-0.2-0.5-0.2
		c-0.5-0.2-1-0.3-1.6-0.3c-1.6,0-3,0.8-3.9,2.1c-0.6,0.9-0.8,2.1-0.5,3.1s0.9,1.7,1.9,2.1c0.5,0.2,1.1,0.4,1.7,0.4
		c1.5,0,3.1-0.8,3.9-2.1c0.5-0.9,0.7-1.8,0.5-2.7c0.1,0,0.3,0,0.4,0c0.8,0,1.6-0.5,2-1.2c0.3-0.6,0.4-1.2,0.2-1.7
		C44.8,54.7,44.4,54.3,43.9,54.1z M41,60.2c-0.9,1.4-2.8,2.1-4.3,1.4c-1.4-0.7-1.9-2.3-1-3.7s2.8-2,4.2-1.4
		C41.4,57.1,41.9,58.8,41,60.2z M44,56.4c-0.3,0.6-1,0.8-1.6,0.6s-0.7-0.9-0.4-1.4s1-0.8,1.6-0.6C44.1,55.2,44.3,55.8,44,56.4z"/>
	<path d="M66.7,35.2L66.7,35.2L66.7,35.2z"/>
	<path d="M59.8,33c-1,0.2-1.6,1.2-1.4,2.2c0.2,1,1.2,1.6,2.2,1.4l0,0c1.2-0.3,2.5,0.1,3.4,1.1s1.1,2.3,0.7,3.5l0,0
		c-0.3,1,0.2,2,1.2,2.3s2-0.2,2.3-1.2c0.8-2.4,0.3-5.1-1.5-7.1C64.9,33.2,62.2,32.4,59.8,33z M67.2,42c-0.1,0.4-0.4,0.6-0.8,0.6
		c-0.1,0-0.2,0-0.3,0c-0.4-0.1-0.7-0.6-0.5-1.1c0.5-1.5,0.1-3.3-1-4.5c-0.9-1-2.1-1.5-3.4-1.5c-0.3,0-0.6,0-1,0.1
		c-0.1,0-0.1,0-0.2,0c-0.4,0-0.8-0.3-0.8-0.7c0-0.2,0-0.5,0.1-0.6c0.1-0.2,0.3-0.3,0.5-0.4c0.4-0.1,0.9-0.1,1.3-0.1
		c1.8,0,3.5,0.8,4.7,2.1C67.4,37.5,67.9,39.9,67.2,42z"/>
	<path d="M72.4,30.1L72.4,30.1c-3.7-4.1-9.2-5.7-14.2-4.6l0,0c-1.2,0.2-1.9,1.4-1.7,2.6s1.4,1.9,2.6,1.7c3.6-0.8,7.5,0.4,10.1,3.3
		s3.3,6.9,2.2,10.4l0,0c-0.4,1.1,0.3,2.4,1.4,2.7c1.1,0.4,2.4-0.3,2.7-1.4l0,0C77.1,39.8,76.1,34.2,72.4,30.1z M74.5,44.4L74.5,44.4
		c-0.2,0.5-0.6,0.8-1.1,0.8c-0.1,0-0.2,0-0.4-0.1c-0.3-0.1-0.5-0.3-0.7-0.6c-0.1-0.3-0.2-0.6-0.1-0.9c1.3-3.9,0.3-8.3-2.4-11.4
		c-2.2-2.4-5.4-3.8-8.6-3.8c-0.8,0-1.6,0.1-2.4,0.3c-0.1,0-0.2,0-0.2,0c-0.5,0-1-0.4-1.1-0.9c-0.1-0.3,0-0.6,0.2-0.9
		s0.4-0.4,0.7-0.5c1-0.2,1.9-0.3,2.9-0.3c3.9,0,7.7,1.7,10.4,4.6C75,34.4,76.1,39.6,74.5,44.4z"/>
	<path d="M62.2,47.2L62.2,47.2c-0.8-0.2-1.3-0.4-0.9-1.4c0.9-2.3,1-4.2,0-5.6c-1.8-2.6-6.8-2.5-12.6-0.1c0,0-1.8,0.8-1.3-0.6
		c0.9-2.8,0.8-5.2-0.6-6.6c-3.1-3.1-11.4,0.1-18.5,7.2c-5.3,5.3-8.4,11-8.4,15.8c0,9.3,12,15,23.7,15c15.4,0,25.6-8.9,25.6-16
		C69,50.6,65.4,48.2,62.2,47.2z M43.5,69.9c-11.1,0-22.7-5.2-22.7-14c0-4.5,2.9-9.9,8.1-15.1c4.9-4.9,10.6-8.1,14.5-8.1
		c1.2,0,2,0.3,2.6,0.9c1,1,1.2,3,0.4,5.6c-0.2,0.6-0.2,1.2,0.1,1.6c0.2,0.2,0.5,0.6,1.2,0.6c0.5,0,0.9-0.2,1.3-0.3l0,0
		c2.8-1.2,5.3-1.8,7.4-1.8c1.3,0,3.1,0.3,4,1.5c0.7,1,0.7,2.6-0.1,4.7c-0.1,0.2-0.4,1-0.1,1.7c0.3,0.7,1,0.9,1.6,1.1
		c1.4,0.4,6.1,2.3,6.1,6.8C68,61.1,58.7,69.9,43.5,69.9z"/>
</g>
<g opacity="0.08">
	<path d="M66.7,35.2L66.7,35.2L66.7,35.2z"/>
	<path d="M66.7,35.2c-1.8-2-4.5-2.8-6.9-2.2c-1,0.2-1.6,1.2-1.4,2.2c0,0.2,0.1,0.4,0.3,0.6c0.3-0.4,0.7-0.7,1.2-0.8
		c2.5-0.5,5.1,0.2,6.9,2.2l0,0l0,0l0,0c1,1.1,1.6,2.5,1.8,3.9C68.8,39,68.2,36.9,66.7,35.2z"/>
	<path d="M47.6,40.2c-0.1,0.4-0.2,0.8-0.3,1.2c-0.5,1.4,1.3,0.6,1.3,0.6c5.7-2.4,10.8-2.5,12.6,0.1c0.3,0.4,0.5,0.9,0.6,1.5
		c0.2-1.4,0.1-2.5-0.6-3.5c-1.8-2.6-6.8-2.5-12.6-0.1C48.7,40,48.1,40.3,47.6,40.2z"/>
	<path d="M71.8,41.1c-0.1,0.8-0.2,1.6-0.5,2.3l0,0c-0.2,0.5-0.1,1.1,0.1,1.6C71.8,43.7,72,42.4,71.8,41.1z"/>
	<path d="M56.7,28.6c0.3-0.5,0.8-1,1.5-1.1l0,0c5-1.1,10.5,0.5,14.2,4.6l0,0c2.3,2.6,3.6,5.8,3.8,9c0.3-3.9-1-7.9-3.8-11l0,0
		c-3.7-4.1-9.2-5.7-14.2-4.6l0,0c-1.2,0.2-1.9,1.4-1.7,2.6C56.5,28.2,56.6,28.4,56.7,28.6z"/>
	<path d="M64.7,41.2c-0.2,0.5-0.1,1,0.1,1.4C64.9,42.1,64.8,41.6,64.7,41.2C64.7,41.1,64.7,41.1,64.7,41.2L64.7,41.2z"/>
	<path d="M42.4,59c0.6,0.2,1.3,0,1.6-0.6s0.1-1.2-0.5-1.4c-0.1,0-0.1,0-0.2,0c-0.2,0.1-0.5,0.1-0.7,0.1c-0.3,0.1-0.5,0.3-0.6,0.6
		C41.7,58.1,41.8,58.8,42.4,59z"/>
	<path d="M28.2,42c7.1-7.1,15.4-10.3,18.5-7.2c0.6,0.6,1,1.4,1.1,2.4c0.2-1.9-0.1-3.4-1.1-4.4c-3.1-3.1-11.4,0.1-18.5,7.2
		c-5.3,5.3-8.4,11-8.4,15.8c0,0.3,0,0.7,0,1C20.2,52.2,23.2,47,28.2,42z"/>
	<path d="M36.7,63.6c1.5,0.7,3.4,0,4.3-1.4c0.5-0.8,0.6-1.7,0.2-2.5c-0.1,0.2-0.1,0.3-0.2,0.5c-0.9,1.4-2.8,2.1-4.3,1.4
		c-0.6-0.3-1-0.7-1.2-1.2C35,61.7,35.5,63.1,36.7,63.6z"/>
	<path d="M62.2,47.2L62.2,47.2c-0.2-0.1-0.5-0.1-0.6-0.2c-0.1,0.3-0.2,0.5-0.3,0.8c-0.4,1,0.1,1.2,0.9,1.4l0,0
		c3,0.9,6.3,3.1,6.8,6.7c0-0.3,0.1-0.7,0.1-1C69,50.6,65.4,48.2,62.2,47.2z"/>
	<path d="M25.5,60.1c0.6,6.1,8.7,10.4,18,9.4c9.3-0.9,16.4-6.6,15.8-12.8c0-0.1,0-0.2-0.1-0.3c-0.7,5.5-7.3,10.2-15.8,11.1
		c-9.2,0.9-17.1-3.2-18-9.2C25.4,58.9,25.4,59.5,25.5,60.1z"/>
	<path d="M44.4,50C40,48.9,35,51.1,33,55c-0.7,1.4-0.9,2.8-0.7,4.2c0.1-0.7,0.3-1.5,0.7-2.2c1.9-3.9,7-6.1,11.4-5
		c3.1,0.8,5.2,3.1,5.6,5.8C50.6,54.3,48.3,51,44.4,50z"/>
</g>
<path opacity="0.12" enable-background="new    " d="M66.7,35.2L66.7,35.2L66.7,35.2L66.7,35.2z M66.7,35.2c-1.8-2-4.5-2.8-6.9-2.2
	c-1,0.2-1.6,1.2-1.4,2.2v0.1c0.2-0.6,0.7-1.2,1.4-1.3c2.5-0.5,5.1,0.2,6.9,2.2l0,0l0,0l0,0c1.1,1.3,1.7,2.8,1.9,4.3
	C68.7,38.7,68.1,36.7,66.7,35.2z M64.7,41.2c-0.1,0.4-0.1,0.7,0,1.1v-0.1l0,0c0.2-0.5,0.2-1.1,0.1-1.6C64.8,40.8,64.7,41,64.7,41.2
	L64.7,41.2z M47.4,40.1c0,0.1,0,0.2-0.1,0.3c-0.5,1.4,1.3,0.6,1.3,0.6c5.7-2.4,10.8-2.5,12.6,0.1c0.4,0.5,0.6,1.2,0.7,1.9
	c0.1-1.1-0.1-2.1-0.7-2.9c-1.8-2.6-6.8-2.5-12.6-0.1C48.7,40,47.8,40.4,47.4,40.1z M56.5,28.1c0.2-0.8,0.8-1.4,1.6-1.6l0,0
	c5-1.1,10.5,0.5,14.2,4.6l0,0c2.5,2.7,3.7,6.1,3.8,9.5c0.1-3.7-1.1-7.5-3.8-10.5l0,0c-3.7-4.1-9.2-5.7-14.2-4.6l0,0
	C57,25.7,56.2,26.9,56.5,28.1C56.5,28,56.5,28.1,56.5,28.1z M71.4,44.4c0.4-1.2,0.5-2.4,0.5-3.6c-0.1,0.9-0.2,1.8-0.5,2.6l0,0
	c-0.1,0.4-0.1,0.8,0,1.2C71.4,44.5,71.4,44.4,71.4,44.4L71.4,44.4z M42.4,58c0.6,0.2,1.3,0,1.6-0.6c0.2-0.4,0.2-0.7,0-1l0,0
	c-0.3,0.6-1,0.8-1.6,0.6c-0.2-0.1-0.3-0.2-0.4-0.4C41.7,57.2,41.8,57.8,42.4,58z M25.5,59.1c0.6,6.1,8.7,10.4,18,9.4
	C52.7,67.6,59.7,62,59.3,56c-0.4,5.6-7.1,10.6-15.8,11.5c-9.3,0.9-17.4-3.3-18-9.4c0-0.1,0-0.2,0-0.3C25.4,58.2,25.4,58.6,25.5,59.1
	z M62.2,47.2L62.2,47.2c-0.4-0.1-0.7-0.2-0.9-0.4c-0.4,1,0.1,1.2,0.9,1.4l0,0c3.1,1,6.6,3.3,6.8,7.3c0-0.2,0-0.4,0-0.5
	C69,50.6,65.4,48.2,62.2,47.2z M28.2,41c7.1-7.1,15.4-10.3,18.5-7.2c0.7,0.7,1.1,1.7,1.2,2.8c0.1-1.6-0.3-2.9-1.2-3.8
	c-3.1-3.1-11.4,0.1-18.5,7.2c-5.3,5.3-8.4,11-8.4,15.8c0,0.2,0,0.3,0,0.5C20,51.6,23.1,46.1,28.2,41z M44.4,50
	C40,48.9,35,51.1,33,55c-0.6,1.3-0.9,2.5-0.7,3.8c0.1-0.9,0.3-1.9,0.7-2.8c1.9-3.9,7-6.1,11.4-5c3.4,0.9,5.5,3.4,5.7,6.3
	C50.4,54,48.1,51,44.4,50z M36.7,62.6c1.5,0.7,3.4,0,4.3-1.4c0.4-0.7,0.5-1.4,0.4-2c-0.1,0.3-0.2,0.7-0.4,1
	c-0.9,1.4-2.8,2.1-4.3,1.4c-0.8-0.3-1.2-1-1.4-1.7C35.1,61,35.6,62.1,36.7,62.6z"/>
<g opacity="0.04">
	<path d="M59.3,58.7c0-0.4-0.1-0.9-0.3-1.3c-1.1,4.2-5.8,7.9-11.9,9.4c-2.6,2.2-6.3,3.1-9.7,2c-1.5-0.5-2.7-1.3-3.6-2.3
		c-4.2-1.4-7.2-4-8.2-7.2c-0.2,0.9-0.3,1.8-0.3,2.7c0.2,2.1,1.3,3.9,2.9,5.4c4.3,2.2,9.7,3.4,15.1,3.4c1.7,0,3.4-0.1,5-0.3
		C55.2,68.5,59.8,63.7,59.3,58.7z"/>
	<path d="M66.7,35.2L66.7,35.2L66.7,35.2z"/>
	<path d="M59,33.7c-0.1,0-0.3,0-0.4,0c-0.3,0.4-0.4,0.9-0.3,1.4c0.2,1,1.2,1.6,2.2,1.4l0,0c0.9-0.2,1.8,0,2.6,0.5
		c1.3,0.3,2.5,1.1,3.5,2.1l0,0l0,0l0,0c0.8,0.9,1.3,1.8,1.6,2.9c0.7-2.3,0.2-4.9-1.6-6.9c-0.2-0.2-0.4-0.4-0.6-0.6
		C63.9,33.5,61.4,33.2,59,33.7z"/>
	<path d="M71.7,42.1c-0.1,0.4-0.2,0.9-0.3,1.3l0,0c-0.2,0.7-0.1,1.5,0.4,2.1C71.9,44.3,71.9,43.2,71.7,42.1z"/>
	<path d="M57.8,29.6c0.1,0,0.2-0.1,0.4-0.1l0,0c5-1.1,10.5,0.5,14.2,4.6l0,0c2.1,2.3,3.3,5.1,3.7,8c0.6-4.2-0.7-8.6-3.7-12l0,0
		c-3.7-4.1-9.2-5.7-14.2-4.6l0,0c-1.2,0.2-1.9,1.4-1.7,2.6C56.6,28.8,57.1,29.3,57.8,29.6z"/>
	<path d="M47.3,43.4c-0.5,1.4,1.3,0.6,1.3,0.6c5.7-2.4,10.8-2.5,12.6,0.1c0.1,0.2,0.2,0.4,0.3,0.6c0.5-1.6,0.5-3-0.1-4.1
		c-0.3,0-0.7,0-1,0.1l0,0c-1,0.2-2-0.4-2.2-1.4c-0.1-0.3,0-0.6,0-0.8c-2.4-0.5-5.9,0.1-9.7,1.7c0,0-0.4,0.2-0.8,0.2
		C47.9,41.2,47.7,42.2,47.3,43.4z"/>
	<path d="M39.9,65.3c0.4-0.3,0.8-0.6,1.1-1.1c0.8-1.2,0.5-2.6-0.5-3.4c-1,1-2.6,1.4-3.8,0.8c-0.2-0.1-0.3-0.2-0.5-0.3
		c-0.2,0.2-0.3,0.4-0.5,0.6c-0.4,0.6-0.5,1.3-0.4,2c0.6,0.4,1.3,0.8,2.1,1C38.2,65.1,39.1,65.3,39.9,65.3z"/>
	<path d="M62.2,47.2L62.2,47.2c-0.1,0-0.2-0.1-0.2-0.1c-0.1,0.8-0.3,1.7-0.7,2.6c-0.4,1,0.1,1.2,0.9,1.4l0,0
		c2.7,0.8,5.7,2.7,6.6,5.8c0.2-0.7,0.3-1.4,0.3-2.1C69,50.6,65.4,48.2,62.2,47.2z"/>
	<path d="M44.4,50c-4.4-1.2-9.5,1.1-11.4,5c-0.9,1.7-1,3.6-0.5,5.2c0.1-0.4,0.3-0.8,0.5-1.2c1.9-3.9,7-6.1,11.4-5
		c2.8,0.7,4.7,2.6,5.4,4.8C51,54.9,48.7,51.1,44.4,50z"/>
	<path d="M28.2,44c7.1-7.1,15.4-10.3,18.5-7.2c0.4,0.4,0.7,1,0.9,1.5c0.5-2.4,0.3-4.3-0.9-5.5c-3.1-3.1-11.4,0.1-18.5,7.2
		c-5.3,5.3-8.4,11-8.4,15.8c0,0.7,0.1,1.3,0.2,1.9C20.7,53.4,23.6,48.6,28.2,44z"/>
	<path d="M42.4,61c0.6,0.2,1.3,0,1.6-0.6s0.1-1.2-0.5-1.4s-1.2,0-1.6,0.6C41.7,60.1,41.8,60.8,42.4,61z"/>
</g>
</svg>
