<?xml version="1.0" encoding="utf-8"?>
<!-- Generator: Adobe Illustrator 17.1.0, SVG Export Plug-In . SVG Version: 6.00 Build 0)  -->
<!DOCTYPE svg PUBLIC "-//W3C//DTD SVG 1.1//EN" "http://www.w3.org/Graphics/SVG/1.1/DTD/svg11.dtd">
<svg version="1.1" id="图层_1" xmlns="http://www.w3.org/2000/svg" xmlns:xlink="http://www.w3.org/1999/xlink" x="0px" y="0px"
	 width="96px" height="96px" viewBox="0 0 96 96" enable-background="new 0 0 96 96" xml:space="preserve">
<rect fill="none" width="96" height="96"/>
<path fill-opacity="0.4" d="M88.023,49c0,29.633-10.364,40-40,40c-29.635,0-40-10.367-40-40c0-29.634,10.366-40,40-40
	C77.659,9,88.023,19.365,88.023,49z"/>
<linearGradient id="SVGID_1_" gradientUnits="userSpaceOnUse" x1="25.6602" y1="111.97" x2="25.6602" y2="191.949" gradientTransform="matrix(1 0 0 1 22.3398 -103.96)">
	<stop  offset="0" style="stop-color:#FAFAFA"/>
	<stop  offset="0.3317" style="stop-color:#F1F1F1"/>
	<stop  offset="0.8711" style="stop-color:#D9D9D9"/>
	<stop  offset="1" style="stop-color:#D2D2D2"/>
</linearGradient>
<path fill="url(#SVGID_1_)" d="M8,47.989c0,29.633,10.365,40,40,40c29.637,0,40-10.367,40-40c0-28.985-9.926-39.53-38.091-39.979
	h-3.817C17.928,8.459,8,19.004,8,47.989z"/>
<linearGradient id="SVGID_2_" gradientUnits="userSpaceOnUse" x1="25.6602" y1="111.96" x2="25.6602" y2="191.96" gradientTransform="matrix(1 0 0 1 22.3398 -103.96)">
	<stop  offset="0" style="stop-color:#FFFFFF"/>
	<stop  offset="0.2292" style="stop-color:#FBFBFB"/>
	<stop  offset="0.4667" style="stop-color:#F0EFEE"/>
	<stop  offset="0.7079" style="stop-color:#DCDBDA"/>
	<stop  offset="0.9504" style="stop-color:#C1C0BD"/>
	<stop  offset="1" style="stop-color:#BBB9B6"/>
</linearGradient>
<path fill="url(#SVGID_2_)" fill-opacity="0.8" d="M48,8C18.365,8,8,18.365,8,48c0,29.633,10.365,40,40,40c29.637,0,40-10.367,40-40
	C88,18.365,77.637,8,48,8z M48,87.023C18.842,87.023,9,77.176,9,48S18.842,8.977,48,8.977S87,18.824,87,48S77.158,87.023,48,87.023z
	"/>
<path opacity="0.5" fill="#FFFFFF" d="M24.42,72.157c-0.51,0-0.997-0.257-1.371-0.725c-1.332-1.661-1.254-6.046,0.226-12.679
	c0.864-3.87,2.428-7.219,4.051-9.9c-0.259,0.103-0.536,0.154-0.824,0.154c-1.118,0-2.042-0.802-2.144-0.894
	c-0.095-0.085-0.173-0.188-0.229-0.303c-1.151-2.348-1.681-4.965-1.533-7.57c0.46-8.074,7.149-14.398,15.229-14.398
	c0.292,0,0.586,0.008,0.882,0.025c8.403,0.479,14.852,7.705,14.375,16.108c-0.458,8.074-7.147,14.399-15.228,14.399c0,0,0,0,0,0
	c-0.292,0-0.586-0.008-0.882-0.025c-1.375-0.077-2.761-0.354-4.121-0.824l0-0.001c-0.402-0.135-0.685-0.489-0.831-0.715
	c-0.251-0.39-0.606-1.209-0.169-2.327c0.441-1.127,1.332-1.772,2.442-1.772c0.29,0,0.548,0.044,0.749,0.095
	c0.067,0.003,0.136,0.013,0.205,0.032c0.878,0.237,1.761,0.357,2.624,0.357c5.57,0,10.101-4.53,10.101-10.099
	s-4.531-10.1-10.101-10.1c-5.569,0-10.099,4.531-10.099,10.1c0,1.472,0.321,2.906,0.954,4.261c0.034,0.074,0.059,0.15,0.075,0.227
	c0.091,0.286,0.132,0.566,0.132,0.836c1.029-1.436,1.996-2.573,2.727-3.371c-0.237-0.747-0.334-1.52-0.29-2.307
	c0.195-3.427,3.036-6.111,6.467-6.111c0.123,0,0.247,0.003,0.371,0.01c3.566,0.204,6.303,3.271,6.101,6.838
	c-0.196,3.427-3.035,6.111-6.464,6.111h0c-0.124,0-0.249-0.004-0.374-0.011c-0.982-0.056-1.927-0.331-2.775-0.803
	c-5.182,5.604-7.811,12.698-7.817,21.099v0.106c-0.002,1.245-0.006,4.159-2.447,4.177C24.428,72.157,24.422,72.157,24.42,72.157z
	 M74.13,60.79c-1.488,0-3.777-1.116-6.621-3.229c-1.472-1.092-2.616-2.273-3.501-3.405c-0.301,0.61-0.957,1.034-1.838,1.14
	c-0.039,0.005-0.131,0.007-0.137,0.007c-4.975-0.095-9.022-4.218-9.022-9.191c0-5.071,4.126-9.197,9.197-9.197
	c5.072,0,9.198,4.126,9.198,9.197c0,1.922-0.594,3.769-1.718,5.341c-0.038,0.053-0.08,0.101-0.126,0.145
	c-0.27,0.308-0.968,0.989-1.858,0.989c-0.177,0-0.351-0.027-0.518-0.08c1.745,2,3.657,3.166,4.415,3.582
	c0.842,0.463,1.583,0.802,2.177,1.073c1.167,0.535,1.873,0.857,2.136,1.574c0.091,0.249,0.155,0.643-0.059,1.103
	C75.721,60.126,75.285,60.79,74.13,60.79L74.13,60.79z M62.206,40.903c-2.871,0-5.206,2.336-5.206,5.207
	c0,2.818,2.293,5.151,5.111,5.201c0.03,0.001,0.06,0.003,0.089,0.006c-0.237-0.468-0.423-0.892-0.567-1.252
	c-1.933-0.276-3.423-1.942-3.423-3.948c0-2.201,1.791-3.991,3.992-3.991c2.2,0,3.99,1.79,3.99,3.991c0,1.104-0.47,2.153-1.267,2.899
	c0.286,0.632,0.611,1.222,0.962,1.768c-0.022-0.412,0.075-0.854,0.298-1.287c0.03-0.058,0.065-0.112,0.105-0.163
	c0.736-0.931,1.125-2.045,1.125-3.223C67.414,43.239,65.078,40.903,62.206,40.903z"/>
<path opacity="0.5" fill="#FFFFFF" d="M37.527,46.58c3.021,0.172,5.61-2.138,5.783-5.158c0.172-3.022-2.138-5.611-5.159-5.784
	c-3.021-0.171-5.611,2.138-5.783,5.16c-0.05,0.88,0.116,1.722,0.444,2.481c-1.988,2.081-6.789,7.757-8.562,15.693
	c-2.255,10.111-0.643,12.191,0.172,12.185c0.815-0.006,1.451-0.426,1.455-3.178c0.004-2.669-0.102-13.509,8.664-22.495
	C35.377,46.116,36.402,46.516,37.527,46.58z M38.648,26.866c-7.866-0.448-14.606,5.565-15.055,13.432
	c-0.144,2.534,0.39,4.946,1.433,7.073c0,0,1.118,1.006,2.065,0.49c0.587-0.319,1.081-1.155,0.713-2.094l0.015,0.012
	c-0.665-1.424-1.047-3.007-1.047-4.684c0-6.129,4.969-11.099,11.099-11.099s11.101,4.97,11.101,11.099
	c0,6.131-4.969,11.099-11.101,11.099c-1,0-1.965-0.143-2.885-0.393l0.07,0.058c0,0-1.605-0.718-2.274,0.988
	c-0.435,1.111,0.303,1.726,0.396,1.731c0.001,0-0.003,0.002-0.002,0.002c1.216,0.42,2.504,0.695,3.852,0.772
	c7.866,0.448,14.607-5.565,15.054-13.432C52.528,34.052,46.514,27.314,38.648,26.866z M62.083,52.316l0.01-0.006
	C58.719,52.251,56,49.5,56,46.11c0-3.427,2.778-6.207,6.206-6.207c3.428,0,6.208,2.779,6.208,6.207c0,1.453-0.504,2.785-1.34,3.843
	c-0.127,0.247-0.439,0.991,0.172,1.47c0.734,0.579,1.625-0.559,1.625-0.559l0.003,0.006c0.96-1.343,1.532-2.983,1.532-4.759
	c0-4.528-3.67-8.197-8.198-8.197s-8.197,3.67-8.197,8.197c0,4.475,3.586,8.106,8.042,8.191c0.287-0.034,1.209-0.209,1.135-1.042
	C63.097,52.281,62.083,52.316,62.083,52.316z M71.121,56.966c-2.413-1.324-5.828-4.14-7.417-8.28
	c0.886-0.518,1.488-1.469,1.488-2.57c0-1.653-1.339-2.991-2.99-2.991c-1.652,0-2.992,1.338-2.992,2.991
	c0,1.65,1.34,2.988,2.992,2.988c0.048,0,0.092-0.013,0.138-0.015c0.488,1.447,1.972,4.854,5.766,7.669
	c4.347,3.229,6.485,3.424,6.845,2.657C75.307,58.65,73.725,58.396,71.121,56.966z"/>
<linearGradient id="SVGID_3_" gradientUnits="userSpaceOnUse" x1="49.0492" y1="70.1571" x2="49.0492" y2="25.8429">
	<stop  offset="0" style="stop-color:#3282E6"/>
	<stop  offset="1" style="stop-color:#0A5ABE"/>
</linearGradient>
<path fill="url(#SVGID_3_)" d="M37.527,45.58c3.021,0.172,5.61-2.138,5.783-5.158c0.172-3.022-2.138-5.611-5.159-5.784
	c-3.021-0.171-5.611,2.138-5.783,5.16c-0.05,0.88,0.116,1.722,0.444,2.481c-1.988,2.081-6.789,7.757-8.562,15.693
	c-2.255,10.111-0.643,12.191,0.172,12.185c0.815-0.006,1.451-0.426,1.455-3.178c0.004-2.669-0.102-13.509,8.664-22.495
	C35.377,45.116,36.402,45.516,37.527,45.58z M38.648,25.866c-7.866-0.448-14.606,5.565-15.055,13.432
	c-0.144,2.534,0.39,4.946,1.433,7.073c0,0,1.118,1.006,2.065,0.49c0.587-0.319,1.081-1.155,0.713-2.094l0.015,0.012
	c-0.665-1.424-1.047-3.007-1.047-4.684c0-6.129,4.969-11.099,11.099-11.099s11.101,4.97,11.101,11.099
	c0,6.131-4.969,11.099-11.101,11.099c-1,0-1.965-0.143-2.885-0.393l0.07,0.058c0,0-1.605-0.718-2.274,0.988
	c-0.435,1.111,0.303,1.726,0.396,1.731c0.001,0-0.003,0.002-0.002,0.002c1.216,0.42,2.504,0.695,3.852,0.772
	c7.866,0.448,14.607-5.565,15.054-13.432C52.528,33.052,46.514,26.314,38.648,25.866z M62.083,51.316l0.01-0.006
	C58.719,51.251,56,48.5,56,45.11c0-3.427,2.778-6.207,6.206-6.207c3.428,0,6.208,2.779,6.208,6.207c0,1.453-0.504,2.785-1.34,3.843
	c-0.127,0.247-0.439,0.991,0.172,1.47c0.734,0.579,1.625-0.559,1.625-0.559l0.003,0.006c0.96-1.343,1.532-2.983,1.532-4.759
	c0-4.528-3.67-8.197-8.198-8.197s-8.197,3.67-8.197,8.197c0,4.475,3.586,8.106,8.042,8.191c0.287-0.034,1.209-0.209,1.135-1.042
	C63.097,51.281,62.083,51.316,62.083,51.316z M71.121,55.966c-2.413-1.324-5.828-4.14-7.417-8.28
	c0.886-0.518,1.488-1.469,1.488-2.57c0-1.653-1.339-2.991-2.99-2.991c-1.652,0-2.992,1.338-2.992,2.991
	c0,1.65,1.34,2.988,2.992,2.988c0.048,0,0.092-0.013,0.138-0.015c0.488,1.447,1.972,4.854,5.766,7.669
	c4.347,3.229,6.485,3.424,6.845,2.657C75.307,57.65,73.725,57.396,71.121,55.966z"/>
<path opacity="0.05" d="M38.648,25.866c-7.866-0.448-14.606,5.565-15.055,13.432c-0.144,2.534,0.39,4.946,1.433,7.073
	c0,0,1.118,1.006,2.065,0.49c0.587-0.319,1.081-1.155,0.713-2.094l0.015,0.012c-0.665-1.424-1.047-3.007-1.047-4.684
	c0-6.129,4.969-11.099,11.099-11.099c6.13,0,11.101,4.97,11.101,11.099c0,6.131-4.969,11.099-11.101,11.099
	c-1,0-1.965-0.143-2.885-0.393l0.07,0.058c0,0-1.605-0.718-2.274,0.988c-0.435,1.111,0.303,1.726,0.396,1.731
	c0.001,0-0.003,0.002-0.002,0.002c1.216,0.42,2.504,0.695,3.852,0.772c7.866,0.448,14.607-5.565,15.054-13.432
	S46.514,26.314,38.648,25.866z M51.083,40.863c-0.398,7.016-6.21,12.512-13.23,12.512c0,0,0,0,0,0c-0.254,0-0.511-0.007-0.768-0.021
	c-1.132-0.064-2.276-0.285-3.403-0.658c-0.039-0.078-0.069-0.228,0.031-0.482c0.197-0.503,0.437-0.503,0.58-0.503
	c0.198,0,0.367,0.067,0.368,0.068c0.124,0.051,0.254,0.075,0.382,0.075c0.006,0,0.012,0,0.018,0
	c0.938,0.227,1.882,0.341,2.811,0.341c6.672,0,12.101-5.428,12.101-12.099c0-6.672-5.429-12.1-12.101-12.1
	c-6.671,0-12.099,5.428-12.099,12.1c0,1.716,0.362,3.387,1.078,4.968c0.007,0.023,0.015,0.046,0.024,0.069
	c0.187,0.477-0.133,0.781-0.26,0.85c-0.023,0.013-0.055,0.026-0.113,0.026c-0.216,0-0.499-0.159-0.673-0.279
	c-0.933-1.987-1.36-4.186-1.235-6.375c0.399-7.016,6.212-12.512,13.231-12.512c0.254,0,0.511,0.007,0.768,0.022
	C45.894,27.28,51.498,33.56,51.083,40.863z"/>
<path opacity="0.05" d="M62.083,51.316l0.01-0.005C58.719,51.251,56,48.5,56,45.11c0-3.427,2.778-6.207,6.206-6.207
	s6.208,2.779,6.208,6.207c0,1.453-0.504,2.785-1.34,3.843c-0.127,0.247-0.439,0.991,0.172,1.47c0.734,0.579,1.625-0.559,1.625-0.559
	l0.003,0.006c0.96-1.343,1.532-2.983,1.532-4.759c0-4.528-3.67-8.197-8.198-8.197s-8.197,3.67-8.197,8.197
	c0,4.475,3.586,8.106,8.042,8.191c0.287-0.034,1.209-0.209,1.135-1.042C63.097,51.281,62.083,51.316,62.083,51.316z"/>
<path opacity="0.05" d="M37.527,45.58c3.021,0.172,5.61-2.138,5.783-5.158c0.172-3.022-2.138-5.611-5.159-5.784
	c-3.021-0.171-5.611,2.138-5.783,5.16c-0.05,0.88,0.116,1.722,0.444,2.481c-1.988,2.081-6.789,7.757-8.562,15.693
	c-2.255,10.111-0.643,12.191,0.172,12.185c0.815-0.005,1.451-0.426,1.455-3.178c0.004-2.669-0.102-13.509,8.664-22.495
	C35.377,45.116,36.402,45.516,37.527,45.58z M24.877,66.872v0.106c-0.002,1.596-0.231,2.043-0.305,2.146
	c-0.272-0.441-1.189-2.672,0.654-10.935c1.717-7.687,6.382-13.204,8.309-15.22c0.277-0.291,0.354-0.719,0.194-1.088
	c-0.281-0.649-0.403-1.331-0.363-2.026c0.135-2.37,2.098-4.226,4.47-4.226c0.085,0,0.171,0.002,0.258,0.007
	c2.465,0.141,4.357,2.262,4.217,4.728c-0.135,2.369-2.097,4.224-4.467,4.224c0,0-0.173-0.003-0.26-0.008
	c-0.889-0.05-1.732-0.359-2.439-0.894c-0.179-0.136-0.392-0.203-0.603-0.203c-0.262,0-0.521,0.102-0.716,0.302
	C27.895,49.866,24.884,57.633,24.877,66.872z"/>
<path opacity="0.05" d="M71.121,55.966c-2.413-1.324-5.828-4.14-7.417-8.28c0.886-0.518,1.488-1.469,1.488-2.57
	c0-1.653-1.339-2.991-2.99-2.991c-1.652,0-2.992,1.338-2.992,2.991c0,1.65,1.34,2.988,2.992,2.988c0.048,0,0.092-0.013,0.138-0.015
	c0.488,1.447,1.972,4.854,5.766,7.669c4.347,3.229,6.485,3.424,6.845,2.657C75.307,57.65,73.725,57.396,71.121,55.966z
	 M63.199,46.823c-0.165,0.096-0.292,0.233-0.377,0.392c-0.145-0.08-0.31-0.125-0.482-0.125c-0.015,0-0.177,0.013-0.212,0.019
	c-1.024-0.004-1.917-0.896-1.917-1.992c0-1.098,0.894-1.991,1.992-1.991c1.097,0,1.99,0.893,1.99,1.991
	C64.191,45.821,63.82,46.459,63.199,46.823z"/>
<g opacity="0.04">
	<path d="M56.208,43.539c0.697-2.666,3.114-4.636,5.998-4.636c2.883,0,5.3,1.968,5.999,4.632c0.917,0.986,1.592,2.196,1.937,3.542
		c0.158-0.632,0.265-1.284,0.265-1.965c0-4.528-3.67-8.197-8.198-8.197s-8.197,3.67-8.197,8.197c0,0.691,0.095,1.359,0.256,2
		C54.608,45.754,55.285,44.533,56.208,43.539z"/>
	<path d="M67.247,50.423c0.341,0.269,0.713,0.163,1.016-0.022c0.09-0.418,0.151-0.846,0.151-1.291c0-0.702-0.122-1.375-0.337-2.004
		c-0.231,0.674-0.569,1.299-1.003,1.847C66.948,49.199,66.635,49.944,67.247,50.423z"/>
	<path d="M59.748,43.411c-0.337,0.484-0.538,1.07-0.538,1.705c0,0.772,0.301,1.469,0.782,1.999c0.547-0.604,1.33-0.99,2.209-0.99
		c0.874,0,1.653,0.381,2.199,0.979c0.483-0.527,0.791-1.216,0.791-1.988c0-0.639-0.204-1.229-0.545-1.714
		c-0.749-0.321-1.574-0.499-2.44-0.499C61.332,42.903,60.502,43.085,59.748,43.411z"/>
	<path d="M67.247,54.423c-0.612-0.479-0.299-1.223-0.172-1.47c0.015-0.019,0.025-0.041,0.04-0.06
		c-0.773-0.79-1.501-1.707-2.142-2.723c-0.199,0.514-0.532,0.95-0.962,1.282c0.905,1.375,2.215,2.914,4.095,4.308
		c4.347,3.229,6.485,3.424,6.845,2.657c0.357-0.766-1.224-1.02-3.829-2.45c-0.783-0.43-1.673-1.033-2.571-1.771
		C68.224,54.477,67.705,54.784,67.247,54.423z"/>
	<path d="M62.202,52.104c-1.027,0-1.932-0.518-2.471-1.306c-1.591-0.692-2.83-2.034-3.395-3.689C56.121,47.738,56,48.409,56,49.11
		c0,0.545,0.077,1.071,0.209,1.574c1.464,1.573,3.534,2.575,5.843,2.619c0.14-0.016,0.429-0.068,0.681-0.211
		c-0.166-0.384-0.304-0.735-0.394-1.002C62.293,52.092,62.249,52.104,62.202,52.104z"/>
	<path d="M27.132,46.834c0.568-0.335,1.032-1.15,0.672-2.067l0.015,0.012c-0.398-0.852-0.679-1.765-0.853-2.717
		c-0.122,0.66-0.194,1.337-0.194,2.033C26.771,45.043,26.905,45.957,27.132,46.834z"/>
	<path d="M24.25,61.972c1.773-7.936,6.573-13.612,8.562-15.693c-0.328-0.758-0.494-1.6-0.444-2.481
		c0.026-0.452,0.111-0.886,0.239-1.3c-1.142,1.219-3.009,3.422-4.757,6.429c0.256,0.872-0.205,1.633-0.758,1.934
		c-0.112,0.061-0.227,0.098-0.342,0.12c-1.019,2.061-1.922,4.403-2.5,6.991c-1.176,5.273-1.297,8.348-1.031,10.096
		C23.375,66.463,23.694,64.463,24.25,61.972z"/>
	<path d="M38.648,25.866c-7.866-0.448-14.606,5.565-15.055,13.432c-0.055,0.97-0.009,1.921,0.125,2.845
		c0.593-4.286,3.066-7.916,6.526-10.098c1.989-1.885,4.669-3.05,7.627-3.05c3.036,0,5.784,1.221,7.789,3.196
		c3.355,2.206,5.709,5.771,6.299,9.873c0.052-0.378,0.101-0.758,0.123-1.145C52.528,33.052,46.514,26.314,38.648,25.866z"/>
	<path d="M48.972,44.095c0-0.684-0.071-1.35-0.189-1.999c-0.943,5.174-5.464,9.099-10.912,9.099c-1,0-1.965-0.143-2.885-0.393
		l0.07,0.058c0,0-1.605-0.718-2.274,0.988c-0.435,1.111,0.303,1.726,0.396,1.731c0.001,0-0.003,0.002-0.002,0.002
		c1.216,0.42,2.504,0.695,3.852,0.772c3.138,0.179,6.088-0.684,8.539-2.269C47.663,50.065,48.972,47.235,48.972,44.095z"/>
	<path d="M38.15,34.638c-3.021-0.171-5.611,2.138-5.783,5.16c-0.047,0.812,0.098,1.587,0.377,2.298
		c0.845-2.138,2.985-3.595,5.406-3.458c2.206,0.126,4.028,1.543,4.786,3.474c0.207-0.527,0.339-1.094,0.373-1.691
		C43.481,37.399,41.171,34.81,38.15,34.638z"/>
</g>
<g opacity="0.06">
	<path d="M67.247,50.423c0.209,0.165,0.43,0.182,0.64,0.135c0.327-0.753,0.527-1.574,0.527-2.448c0-0.529-0.073-1.04-0.198-1.531
		c-0.216,0.876-0.599,1.687-1.142,2.374C66.948,49.199,66.635,49.944,67.247,50.423z"/>
	<path d="M62.202,42.126c-1.652,0-2.992,1.338-2.992,2.991c0,0.549,0.159,1.057,0.418,1.499c0.519-0.887,1.472-1.49,2.574-1.49
		c1.104,0,2.058,0.606,2.576,1.497c0.262-0.441,0.414-0.955,0.414-1.506C65.191,43.464,63.852,42.126,62.202,42.126z"/>
	<path d="M62.442,51.368c-0.198-0.054-0.359-0.052-0.359-0.052l0.01-0.005c-2.858-0.051-5.24-2.035-5.903-4.701
		c-0.12,0.481-0.19,0.982-0.19,1.5c0,1.207,0.35,2.33,0.946,3.283c1.387,1.161,3.163,1.873,5.106,1.91
		c0.211-0.025,0.759-0.128,1.01-0.509C62.785,52.237,62.583,51.757,62.442,51.368z"/>
	<path d="M56.942,41.833c1.096-1.757,3.04-2.93,5.264-2.93c2.221,0,4.165,1.17,5.262,2.924c1.425,1.194,2.435,2.862,2.792,4.763
		c0.089-0.481,0.147-0.972,0.147-1.478c0-4.528-3.67-8.197-8.198-8.197s-8.197,3.67-8.197,8.197c0,0.514,0.053,1.015,0.143,1.502
		C54.506,44.706,55.515,43.031,56.942,41.833z"/>
	<path d="M67.247,53.423c-0.292-0.229-0.371-0.518-0.362-0.785c-0.799-0.849-1.544-1.826-2.182-2.92
		c-0.256,0.393-0.592,0.73-0.999,0.968c0.123,0.32,0.274,0.617,0.418,0.92c0.901,1.335,2.174,2.809,3.984,4.152
		c4.347,3.229,6.485,3.424,6.845,2.657c0.357-0.766-1.224-1.02-3.829-2.45c-0.992-0.545-2.152-1.355-3.287-2.393
		C67.64,53.605,67.438,53.574,67.247,53.423z"/>
	<path d="M38.648,25.866c-7.866-0.448-14.606,5.565-15.055,13.432c-0.046,0.802-0.016,1.589,0.069,2.362
		c0.768-7.548,7.336-13.229,14.986-12.793c7.077,0.403,12.638,5.902,13.361,12.73c0.024-0.226,0.06-0.448,0.073-0.677
		C52.528,33.052,46.514,26.314,38.648,25.866z"/>
	<path d="M24.25,60.972c1.773-7.936,6.573-13.612,8.562-15.693c-0.328-0.758-0.494-1.6-0.444-2.481
		c0.001-0.017,0.004-0.032,0.005-0.049c-1.157,1.264-2.903,3.383-4.537,6.2c-0.069,0.2-0.171,0.38-0.296,0.532
		c-1.336,2.396-2.566,5.251-3.29,8.491c-1.096,4.911-1.275,7.917-1.08,9.72C23.297,65.989,23.618,63.805,24.25,60.972z"/>
	<path d="M35.055,53.859l-0.07-0.058c0.921,0.249,1.886,0.393,2.885,0.393c6.132,0,11.101-4.968,11.101-11.099
		c0-0.51-0.046-1.008-0.113-1.5c-0.734,5.419-5.366,9.599-10.988,9.599c-1,0-1.965-0.143-2.885-0.393l0.07,0.058
		c0,0-1.605-0.718-2.274,0.988c-0.435,1.111,0.303,1.726,0.396,1.731c0.001,0-0.003,0.002-0.002,0.002
		c0.211,0.073,0.427,0.135,0.643,0.199C34.444,53.587,35.055,53.859,35.055,53.859z"/>
	<path d="M27.368,46.659c0.448-0.399,0.744-1.107,0.436-1.892l0.015,0.012c-0.463-0.992-0.778-2.065-0.934-3.189
		c-0.067,0.493-0.114,0.993-0.114,1.505C26.771,44.344,26.985,45.54,27.368,46.659z"/>
	<path d="M38.15,37.638c2.393,0.137,4.334,1.791,4.955,3.974c0.109-0.381,0.181-0.779,0.204-1.191
		c0.172-3.022-2.138-5.611-5.159-5.784c-3.021-0.171-5.611,2.138-5.783,5.16c-0.036,0.626,0.042,1.232,0.206,1.803
		C33.262,39.191,35.544,37.491,38.15,37.638z"/>
</g>
<g opacity="0.08">
	<path d="M61.457,38.952c0.246-0.03,0.495-0.049,0.749-0.049c0.253,0,0.502,0.02,0.747,0.049c3.828,0.345,6.89,3.319,7.378,7.104
		c0.036-0.312,0.076-0.623,0.076-0.944c0-4.528-3.67-8.197-8.198-8.197s-8.197,3.67-8.197,8.197c0,0.339,0.027,0.671,0.067,0.999
		C54.542,42.302,57.614,39.302,61.457,38.952z"/>
	<path d="M62.202,42.126c-1.652,0-2.992,1.338-2.992,2.991c0,0.352,0.072,0.685,0.184,0.999c0.413-1.157,1.508-1.99,2.807-1.99
		c1.292,0,2.383,0.825,2.801,1.974c0.111-0.31,0.189-0.634,0.189-0.983C65.191,43.464,63.852,42.126,62.202,42.126z"/>
	<path d="M64.367,49.148c-0.197,0.207-0.415,0.393-0.663,0.538c0.881,2.294,2.324,4.164,3.844,5.617
		c0.188,0.152,0.356,0.307,0.557,0.456c4.347,3.229,6.485,3.424,6.845,2.657c0.357-0.766-1.224-1.02-3.829-2.45
		C69.004,54.804,66.117,52.493,64.367,49.148z"/>
	<path d="M67.247,50.423c0.044,0.035,0.09,0.046,0.135,0.069c0.641-0.975,1.032-2.128,1.032-3.382c0-0.339-0.035-0.669-0.087-0.993
		c-0.175,1.059-0.615,2.028-1.253,2.836C66.948,49.199,66.635,49.944,67.247,50.423z"/>
	<path d="M35.055,52.859l-0.07-0.058c0.921,0.249,1.886,0.393,2.885,0.393c6.132,0,11.101-4.968,11.101-11.099
		c0-0.338-0.021-0.67-0.05-1c-0.506,5.662-5.256,10.099-11.051,10.099c-1,0-1.965-0.143-2.885-0.393l0.07,0.058
		c0,0-1.605-0.718-2.274,0.988c-0.316,0.808-0.013,1.349,0.212,1.589C33.738,52.276,35.055,52.859,35.055,52.859z"/>
	<path d="M38.15,36.638c2.572,0.147,4.622,2.047,5.071,4.473c0.042-0.226,0.075-0.455,0.088-0.69
		c0.172-3.022-2.138-5.611-5.159-5.784c-3.021-0.171-5.611,2.138-5.783,5.16c-0.026,0.451,0.007,0.891,0.087,1.315
		C32.947,38.436,35.363,36.481,38.15,36.638z"/>
	<path d="M62.083,51.316l0.01-0.005c-3.034-0.054-5.532-2.286-6.006-5.2C56.035,46.437,56,46.769,56,47.11
		c0,3.157,2.359,5.757,5.409,6.148c0.213,0.021,0.426,0.04,0.643,0.044c0.287-0.034,1.209-0.209,1.135-1.042
		C63.097,51.281,62.083,51.316,62.083,51.316z"/>
	<path d="M38.648,25.866c-7.866-0.448-14.606,5.565-15.055,13.432c-0.036,0.627-0.029,1.246,0.016,1.855
		c0.523-7.794,7.222-13.733,15.039-13.287c7.26,0.413,12.93,6.188,13.411,13.261c0.005-0.07,0.018-0.137,0.022-0.208
		C52.528,33.052,46.514,26.314,38.648,25.866z"/>
	<path d="M27.643,46.344c0.275-0.409,0.4-0.97,0.161-1.578l0.015,0.012c-0.538-1.153-0.879-2.414-0.994-3.741
		c-0.033,0.348-0.053,0.7-0.053,1.057C26.771,43.606,27.095,45.033,27.643,46.344z"/>
	<path d="M24.25,59.972c1.773-7.936,6.573-13.612,8.562-15.693c-0.212-0.489-0.347-1.016-0.409-1.563
		c-2.174,2.37-6.491,7.821-8.152,15.256c-1.007,4.516-1.241,7.422-1.12,9.264C23.224,65.468,23.551,63.107,24.25,59.972z"/>
</g>
<g opacity="0.12">
	<path d="M35.055,51.859l-0.07-0.058c0.921,0.249,1.886,0.393,2.885,0.393c6.132,0,11.101-4.968,11.101-11.099
		c0-0.169-0.018-0.333-0.025-0.5c-0.263,5.897-5.113,10.599-11.076,10.599c-1,0-1.965-0.143-2.885-0.393l0.07,0.058
		c0,0-1.605-0.718-2.274,0.988c-0.19,0.486-0.152,0.871-0.045,1.158c0.016-0.053,0.023-0.102,0.045-0.158
		C33.45,51.141,35.055,51.859,35.055,51.859z"/>
	<path d="M66.998,50.124c0.027-0.068,0.054-0.129,0.076-0.171c0.836-1.057,1.34-2.39,1.34-3.843c0-0.213-0.011-0.423-0.032-0.631
		c-0.079,1.307-0.544,2.508-1.308,3.473C66.972,49.152,66.756,49.677,66.998,50.124z"/>
	<path d="M64.04,48.428c-0.111,0.088-0.214,0.186-0.336,0.258c1.589,4.14,5.004,6.956,7.417,8.28
		c1.664,0.914,2.903,1.347,3.493,1.741c0.161-0.065,0.276-0.163,0.336-0.291c0.357-0.766-1.224-1.02-3.829-2.45
		C68.858,54.724,65.734,52.155,64.04,48.428z"/>
	<path d="M62.202,42.126c-1.652,0-2.992,1.338-2.992,2.991c0,0.171,0.023,0.336,0.05,0.5c0.239-1.413,1.461-2.49,2.941-2.49
		c1.454,0,2.664,1.039,2.932,2.416c0.021-0.142,0.058-0.278,0.058-0.426C65.191,43.464,63.852,42.126,62.202,42.126z"/>
	<path d="M62.208,37.914c4.321,0,7.853,3.344,8.167,7.584c0.006-0.13,0.031-0.255,0.031-0.387c0-4.528-3.67-8.197-8.198-8.197
		s-8.197,3.67-8.197,8.197c0,0.17,0.015,0.336,0.025,0.503C54.294,41.32,57.848,37.914,62.208,37.914z"/>
	<path d="M62.083,51.316l0.01-0.005c-3.205-0.057-5.815-2.544-6.068-5.698C56.012,45.777,56,45.942,56,46.11
		c0,3.39,2.719,6.141,6.094,6.201l-0.01,0.005c0,0,0.66-0.013,0.96,0.5c0.101-0.142,0.165-0.32,0.144-0.556
		C63.097,51.281,62.083,51.316,62.083,51.316z"/>
	<path d="M38.15,35.638c2.746,0.157,4.897,2.312,5.139,4.972c0.006-0.063,0.017-0.124,0.02-0.188
		c0.172-3.022-2.138-5.611-5.159-5.784c-3.021-0.171-5.611,2.138-5.783,5.16c-0.016,0.274-0.004,0.542,0.021,0.806
		C32.658,37.679,35.195,35.471,38.15,35.638z"/>
	<path d="M38.648,25.866c-7.866-0.448-14.606,5.565-15.055,13.432c-0.025,0.44-0.022,0.875-0.007,1.308
		c0.004-0.103,0.002-0.204,0.007-0.308c0.448-7.866,7.189-13.88,15.055-13.432c7.352,0.418,13.085,6.335,13.437,13.531
		C52.241,32.758,46.338,26.304,38.648,25.866z"/>
	<path d="M27.819,45.779l-0.015-0.012c0.02,0.05,0.028,0.099,0.043,0.149c0.109-0.34,0.121-0.732-0.043-1.149l0.015,0.012
		c-0.602-1.289-0.956-2.712-1.021-4.212c-0.008,0.176-0.027,0.35-0.027,0.529C26.771,42.772,27.154,44.354,27.819,45.779z"/>
	<path d="M24.25,58.972c1.773-7.936,6.573-13.612,8.562-15.693c-0.102-0.236-0.182-0.481-0.251-0.732
		c-2.113,2.267-6.606,7.797-8.31,15.425c-0.932,4.18-1.198,6.971-1.138,8.826C23.161,64.977,23.472,62.462,24.25,58.972z"/>
</g>
</svg>
