<?xml version="1.0" encoding="utf-8"?>
<!-- Generator: Adobe Illustrator 17.1.0, SVG Export Plug-In . SVG Version: 6.00 Build 0)  -->
<!DOCTYPE svg PUBLIC "-//W3C//DTD SVG 1.1//EN" "http://www.w3.org/Graphics/SVG/1.1/DTD/svg11.dtd">
<svg version="1.1" id="图层_1" xmlns="http://www.w3.org/2000/svg" xmlns:xlink="http://www.w3.org/1999/xlink" x="0px" y="0px"
	 width="96px" height="96px" viewBox="0 0 96 96" enable-background="new 0 0 96 96" xml:space="preserve">
<path fill-opacity="0.4" d="M88,49c0,29.6-10.4,40-40,40S8,78.6,8,49S18.4,9,48,9C77.7,9,88,19.4,88,49z"/>
<linearGradient id="SVGID_1_" gradientUnits="userSpaceOnUse" x1="25.6602" y1="-15.96" x2="25.6602" y2="-95.96" gradientTransform="matrix(1 0 0 -1 22.3398 -7.96)">
	<stop  offset="0" style="stop-color:#FAFAFA"/>
	<stop  offset="0.3317" style="stop-color:#F1F1F1"/>
	<stop  offset="0.8711" style="stop-color:#D9D9D9"/>
	<stop  offset="1" style="stop-color:#D2D2D2"/>
</linearGradient>
<path fill="url(#SVGID_1_)" d="M8,48c0,29.6,10.4,40,40,40s40-10.4,40-40c0-29-9.9-39.5-38.1-40h-3.8C17.9,8.5,8,19,8,48z"/>
<linearGradient id="SVGID_2_" gradientUnits="userSpaceOnUse" x1="25.6602" y1="-15.96" x2="25.6602" y2="-95.96" gradientTransform="matrix(1 0 0 -1 22.3398 -7.96)">
	<stop  offset="0" style="stop-color:#FFFFFF"/>
	<stop  offset="0.2292" style="stop-color:#FBFBFB"/>
	<stop  offset="0.4667" style="stop-color:#F0EFEE"/>
	<stop  offset="0.7079" style="stop-color:#DCDBDA"/>
	<stop  offset="0.9504" style="stop-color:#C1C0BD"/>
	<stop  offset="1" style="stop-color:#BBB9B6"/>
</linearGradient>
<path fill="url(#SVGID_2_)" fill-opacity="0.8" d="M48,8C18.4,8,8,18.4,8,48s10.4,40,40,40s40-10.4,40-40S77.6,8,48,8z M48,87
	C18.8,87,9,77.2,9,48S18.8,9,48,9s39,9.8,39,39S77.2,87,48,87z"/>
<rect fill="none" width="96" height="96"/>
<path opacity="0.5" fill="#FFFFFF" enable-background="new    " d="M32.498,71.905c-0.136,0-0.276-0.007-0.421-0.02l-5.409,0.004
	c-0.552,0-1-0.447-1-1v-4.551c0-0.553,0.448-1,1-1h2.844c0.065,0,0.13,0.007,0.194,0.02c0.037,0.007,0.071,0.012,0.104,0.012
	c0,0.001,0.001,0.001,0.002,0.001c0.01,0,0.05-0.042,0.1-0.165l1.653-3.555h-5.086c-0.552,0-1-0.447-1-1V27.665c0-0.552,0.448-1,1-1
	h21.043c0.552,0,1,0.448,1,1v17.375c0.164-0.329,0.503-0.555,0.896-0.555h2.033V27.096c0-0.552,0.447-1,1-1h6.256
	c0.553,0,1,0.448,1,1v1.843h9.237c0.553,0,1,0.448,1,1v5.498c0,0.552-0.447,1-1,1h-9.047v8.047h9.616c0.553,0,1,0.448,1,1v21.045
	c0.076,1.689-0.302,3.005-1.124,3.865c-0.713,0.745-1.718,1.123-2.988,1.123c-0.115,0-0.232-0.003-0.353-0.009L49.417,71.51
	c-0.229,0-0.438-0.076-0.606-0.205c-0.158,0.345-0.506,0.585-0.91,0.585h-5.119c-0.075,0.009-0.222,0.014-0.364,0.014
	c-1.859,0.001-3.211-0.988-3.808-2.784l-1.345-3.02l-1.505,3.243C35.279,70.996,34.124,71.905,32.498,71.905z M44.451,64.79
	c0.226,0.449,0.483,0.549,0.795,0.549H47.9c0.189,0,0.366,0.053,0.517,0.144v-4.575c-0.164,0.329-0.503,0.555-0.896,0.555h-4.576
	L44.451,64.79z M61.171,64.202c0.033,0,0.066,0.002,0.101,0.005c0.079,0.008,0.155,0.013,0.228,0.013l0,0
	c0.259,0,0.338-0.056,0.338-0.057c0,0,0.089-0.127,0.045-0.569l-0.005-11.422h-5.015v12.03H61.171z M33.166,58.206l0.464-0.998
	V36.385c0-0.552,0.448-1,1-1h5.308c0.552,0,1,0.448,1,1v20.637l0.275,0.609v-23.47h-8.048V58.206z"/>
<path opacity="0.5" fill="#FFFFFF" enable-background="new    " d="M47.521,27.664v32.797h-5.308V33.162H32.166v27.489h-5.687
	V27.664H47.521z M34.63,57.428V36.385h5.308v20.853l3.602,7.963c0.379,0.759,0.948,1.137,1.706,1.137h2.654v4.551h-5.119
	c-1.644,0.124-2.719-0.568-3.222-2.086l-2.275-5.119l-2.464,5.309c-0.379,1.389-1.265,2.02-2.654,1.895h-5.498v-4.551h2.844
	c0.631,0.125,1.072-0.126,1.327-0.757L34.63,57.428z M52.451,27.095h6.256v2.844h10.237v5.498H58.896v10.048h10.617v21.044
	c0.124,2.778-1.013,4.105-3.413,3.981H49.417V45.485h3.033V27.095z M62.877,51.172h-7.014v14.03h5.309
	c1.262,0.128,1.831-0.442,1.706-1.706V51.172z"/>
<linearGradient id="SVGID_3_" gradientUnits="userSpaceOnUse" x1="48" y1="69.9045" x2="48" y2="26.0955">
	<stop  offset="0" style="stop-color:#333CEB"/>
	<stop  offset="1" style="stop-color:#2932E1"/>
</linearGradient>
<path fill="url(#SVGID_3_)" d="M47.521,26.664v32.797h-5.308V32.162H32.166v27.489h-5.687V26.664H47.521z M34.63,56.428V35.385
	h5.308v20.853l3.602,7.963c0.379,0.759,0.948,1.137,1.706,1.137h2.654v4.551h-5.119c-1.644,0.124-2.719-0.568-3.222-2.086
	l-2.275-5.119l-2.464,5.309c-0.379,1.389-1.265,2.02-2.654,1.895h-5.498v-4.551h2.844c0.631,0.125,1.072-0.126,1.327-0.757
	L34.63,56.428z M52.451,26.095h6.256v2.844h10.237v5.498H58.896v10.048h10.617v21.044c0.124,2.778-1.013,4.105-3.413,3.981H49.417
	V44.485h3.033V26.095z M62.877,50.172h-7.014v14.03h5.309c1.262,0.128,1.831-0.442,1.706-1.706V50.172z"/>
<g>
	<rect x="49.422" y="44.485" opacity="0.04" width="3.033" height="4"/>
	<polygon opacity="0.04" points="58.711,32.939 68.948,32.939 68.948,28.939 58.711,28.939 58.711,26.096 52.455,26.096 
		52.455,30.096 58.711,30.096 	"/>
	<rect x="26.483" y="26.664" opacity="0.04" width="21.043" height="4"/>
	<path opacity="0.04" d="M61.176,68.202c1.262,0.128,1.831-0.442,1.706-1.706v-3.453c-0.082,0.875-0.646,1.266-1.706,1.159h-5.309v4
		H61.176z"/>
	<rect x="34.634" y="36.162" opacity="0.04" width="5.308" height="3.223"/>
	<rect x="58.901" y="44.485" opacity="0.04" width="10.617" height="4"/>
	<path opacity="0.04" d="M29.516,65.339h-2.844v4h2.844c0.63,0.125,1.072-0.126,1.327-0.758l3.791-8.153v-4l-2.464,5.299v1.924
		h-0.895l-0.432,0.93C30.588,65.212,30.147,65.464,29.516,65.339z"/>
	<path opacity="0.04" d="M43.545,64.202l-0.335-0.74h-0.992v-2.193l-2.275-5.03v4l3.602,7.963c0.379,0.759,0.948,1.137,1.706,1.137
		h2.654v-4h-2.654C44.493,65.339,43.924,64.96,43.545,64.202z"/>
</g>
<g>
	<rect x="49.422" y="44.485" opacity="0.06" width="3.033" height="3"/>
	<path opacity="0.06" d="M61.176,67.202c1.262,0.128,1.831-0.442,1.706-1.706v-2.453c-0.082,0.875-0.646,1.266-1.706,1.159h-5.309v3
		H61.176z"/>
	<polygon opacity="0.06" points="58.711,31.939 68.948,31.939 68.948,28.939 58.711,28.939 58.711,26.096 52.455,26.096 
		52.455,29.096 58.711,29.096 	"/>
	<rect x="26.483" y="26.664" opacity="0.06" width="21.043" height="3"/>
	<path opacity="0.06" d="M29.516,65.339h-2.844v3h2.844c0.63,0.125,1.072-0.126,1.327-0.758l3.791-8.153v-3l-2.464,5.299v0.924
		h-0.43l-0.897,1.93C30.588,65.212,30.147,65.464,29.516,65.339z"/>
	<rect x="58.901" y="44.485" opacity="0.06" width="10.617" height="3"/>
	<rect x="34.634" y="35.385" opacity="0.06" width="5.308" height="3"/>
	<path opacity="0.06" d="M43.545,64.202l-0.787-1.74h-0.54v-1.193l-2.275-5.03v3l3.602,7.963c0.379,0.759,0.948,1.137,1.706,1.137
		h2.654v-3h-2.654C44.493,65.339,43.924,64.96,43.545,64.202z"/>
</g>
<g>
	<rect x="52.455" y="26.096" opacity="0.08" width="6.256" height="2"/>
	<rect x="58.711" y="28.939" opacity="0.08" width="10.237" height="2"/>
	<path opacity="0.08" d="M61.176,66.202c1.262,0.128,1.831-0.442,1.706-1.706v-1.453c-0.082,0.875-0.646,1.266-1.706,1.159h-5.309v2
		H61.176z"/>
	<rect x="49.422" y="44.485" opacity="0.08" width="3.033" height="2"/>
	<rect x="34.634" y="35.385" opacity="0.08" width="5.308" height="2"/>
	<rect x="58.901" y="44.485" opacity="0.08" width="10.617" height="2"/>
	<rect x="26.483" y="26.664" opacity="0.08" width="21.043" height="2"/>
	<path opacity="0.08" d="M43.545,64.202l-1.24-2.74h-0.087v-0.193l-2.275-5.03v2l3.602,7.963c0.379,0.759,0.948,1.137,1.706,1.137
		h2.654v-2h-2.654C44.493,65.339,43.924,64.96,43.545,64.202z"/>
	<path opacity="0.08" d="M29.516,65.339h-2.844v2h2.844c0.63,0.125,1.072-0.126,1.327-0.758l3.791-8.153v-2l-3.791,8.153
		C30.588,65.212,30.147,65.464,29.516,65.339z"/>
</g>
<g opacity="0.12">
	<rect x="52.455" y="26.096" width="6.256" height="1"/>
	<rect x="49.422" y="44.485" width="3.033" height="1"/>
	<path d="M61.176,65.202c1.262,0.128,1.831-0.442,1.706-1.706v-0.453c-0.082,0.875-0.646,1.266-1.706,1.159h-5.309v1H61.176z"/>
	<rect x="58.711" y="28.939" width="10.237" height="1"/>
	<rect x="58.901" y="44.485" width="10.617" height="1"/>
	<rect x="34.634" y="35.385" width="5.308" height="1"/>
	<path d="M43.545,64.202l-3.602-7.963v1l3.602,7.963c0.379,0.759,0.948,1.137,1.706,1.137h2.654v-1h-2.654
		C44.493,65.339,43.924,64.96,43.545,64.202z"/>
	<rect x="26.483" y="26.664" width="21.043" height="1"/>
	<path d="M29.516,65.339h-2.844v1h2.844c0.63,0.125,1.072-0.126,1.327-0.758l3.791-8.153v-1l-3.791,8.153
		C30.588,65.212,30.147,65.464,29.516,65.339z"/>
</g>
<g opacity="0.12">
	<path d="M43.54,64.202l-3.602-7.963V35.385H34.63v21.043l-3.791,8.153c-0.255,0.631-0.697,0.883-1.327,0.758h-2.844v4.551h5.498
		c1.389,0.124,2.275-0.507,2.654-1.895l2.464-5.309l2.275,5.119c0.503,1.517,1.579,2.21,3.222,2.086h5.119v-4.551h-2.654
		C44.488,65.339,43.92,64.96,43.54,64.202z M46.9,68.89h-4.119c-0.174,0.011-0.271,0.014-0.364,0.014
		c-1.009,0-1.579-0.423-1.908-1.414l-2.311-5.211c-0.159-0.358-0.514-0.591-0.906-0.594c-0.002,0-0.005,0-0.008,0
		c-0.389,0-0.743,0.226-0.907,0.579l-2.465,5.31c-0.023,0.051-0.043,0.104-0.058,0.157c-0.266,0.975-0.734,1.175-1.357,1.175
		c-0.078,0-0.159-0.004-0.243-0.012l-4.586-0.003v-2.552h1.757c0.133,0.021,0.262,0.031,0.385,0.031
		c0.879,0,1.592-0.516,1.956-1.413l3.771-8.106c0.061-0.132,0.093-0.276,0.093-0.422V36.385h3.308v19.853
		c0,0.143,0.03,0.282,0.089,0.412l3.603,7.964c0.563,1.125,1.486,1.725,2.617,1.725H46.9V68.89z"/>
	<path d="M54.862,50.172v14.03c0,0.553,0.447,1,1,1h5.262c0.131,0.012,0.256,0.018,0.375,0.018c0.778,0,1.391-0.24,1.819-0.713
		c0.456-0.503,0.643-1.213,0.554-2.11l0.005-12.225c0-0.553-0.447-1-1-1h-7.015C55.31,49.172,54.862,49.619,54.862,50.172z
		 M55.863,50.172h7.014v12.324c0.125,1.264-0.444,1.834-1.706,1.706h-5.309V50.172z"/>
	<path d="M32.166,32.162h10.048v27.299h5.308V26.664H26.478v32.987h5.687V32.162z M31.165,32.162v26.489h-3.687V27.665h19.043
		v30.797h-3.309v-26.3c0-0.552-0.447-1-1-1H32.165C31.612,31.162,31.165,31.61,31.165,32.162z"/>
	<path d="M58.896,44.485V34.437h10.048v-5.498H58.706v-2.844h-6.256v18.389h-3.033V69.51H66.1c2.399,0.124,3.537-1.203,3.413-3.981
		V44.485H58.896z M68.513,65.529c0.053,1.195-0.145,2.039-0.569,2.483c-0.325,0.34-0.83,0.505-1.543,0.505
		c-0.081,0-0.164-0.002-0.249-0.007L50.417,68.51V45.484h2.033c0.553,0,1-0.448,1-1V27.096h4.256v1.843c0,0.552,0.447,1,1,1h9.237
		v3.498h-9.047c-0.553,0-1,0.448-1,1v10.047c0,0.552,0.447,1,1,1h9.616V65.529z"/>
</g>
</svg>
