<?xml version="1.0" encoding="utf-8"?>
<!-- Generator: Adobe Illustrator 17.1.0, SVG Export Plug-In . SVG Version: 6.00 Build 0)  -->
<!DOCTYPE svg PUBLIC "-//W3C//DTD SVG 1.1//EN" "http://www.w3.org/Graphics/SVG/1.1/DTD/svg11.dtd" [
	<!ENTITY ns_extend "http://ns.adobe.com/Extensibility/1.0/">
	<!ENTITY ns_ai "http://ns.adobe.com/AdobeIllustrator/10.0/">
	<!ENTITY ns_graphs "http://ns.adobe.com/Graphs/1.0/">
	<!ENTITY ns_vars "http://ns.adobe.com/Variables/1.0/">
	<!ENTITY ns_imrep "http://ns.adobe.com/ImageReplacement/1.0/">
	<!ENTITY ns_sfw "http://ns.adobe.com/SaveForWeb/1.0/">
	<!ENTITY ns_custom "http://ns.adobe.com/GenericCustomNamespace/1.0/">
	<!ENTITY ns_adobe_xpath "http://ns.adobe.com/XPath/1.0/">
]>
<svg version="1.1"
	 id="svg2" xmlns:x="&ns_extend;" xmlns:i="&ns_ai;" xmlns:graph="&ns_graphs;" xmlns:dc="http://purl.org/dc/elements/1.1/" xmlns:cc="http://creativecommons.org/ns#" xmlns:svg="http://www.w3.org/2000/svg" xmlns:rdf="http://www.w3.org/1999/02/22-rdf-syntax-ns#" xmlns:sodipodi="http://sodipodi.sourceforge.net/DTD/sodipodi-0.dtd" xmlns:inkscape="http://www.inkscape.org/namespaces/inkscape" inkscape:version="0.48.2 r9819" sodipodi:docname="release-refresh-inverse.svg"
	 xmlns="http://www.w3.org/2000/svg" xmlns:xlink="http://www.w3.org/1999/xlink" x="0px" y="0px" width="30px" height="30px"
	 viewBox="0 0 30 30" enable-background="new 0 0 30 30" xml:space="preserve">
<metadata  id="metadata19">
	<rdf:RDF>
		<cc:Work  rdf:about="">
			<dc:format>image/svg+xml</dc:format>
			<dc:type  rdf:resource="http://purl.org/dc/dcmitype/StillImage"></dc:type>
			<dc:title></dc:title>
		</cc:Work>
	</rdf:RDF>
	<sfw  xmlns="&ns_sfw;">
		<slices></slices>
		<sliceSourceBounds  width="30" height="16383" x="234" y="-7941" bottomLeftOrigin="true"></sliceSourceBounds>
	</sfw>
</metadata>
<sodipodi:namedview  objecttolerance="10" guidetolerance="10" bordercolor="#666666" showgrid="false" borderopacity="1" inkscape:cy="15" gridtolerance="10" inkscape:zoom="7.8666667" pagecolor="#ffffff" inkscape:cx="15" id="namedview17" inkscape:current-layer="svg2" inkscape:window-maximized="0" inkscape:window-y="0" inkscape:window-x="0" inkscape:window-height="480" inkscape:window-width="640" inkscape:pageshadow="2" inkscape:pageopacity="0">
	</sodipodi:namedview>
<path id="path6_1_" inkscape:connector-curvature="0" fill="#FFFFFF" d="M7.707,9.707c-0.389-0.389-1.025-0.389-1.414,0
	l-1.586,1.586c-0.389,0.389-0.389,1.025,0,1.414l9.586,9.586c0.389,0.389,1.025,0.389,1.414,0l9.586-9.586
	c0.389-0.389,0.389-1.025,0-1.414l-1.586-1.586c-0.389-0.389-1.025-0.389-1.414,0L15,16.902L7.707,9.707z"/>
<rect id="rect8" fill="none" width="30" height="30"/>
<linearGradient id="path6_3_" gradientUnits="userSpaceOnUse" x1="14.9998" y1="22.5838" x2="14.9998" y2="9.4143" gradientTransform="matrix(-1 0 0 -1 29.9998 30.999)">
	<stop  offset="0" style="stop-color:#000000"/>
	<stop  offset="1" style="stop-color:#636363"/>
</linearGradient>
<path id="path6_2_" inkscape:connector-curvature="0" fill="url(#path6_3_)" d="M7.707,8.707c-0.389-0.389-1.025-0.389-1.414,0
	l-1.586,1.586c-0.389,0.389-0.389,1.025,0,1.414l9.586,9.586c0.389,0.389,1.025,0.389,1.414,0l9.586-9.586
	c0.389-0.389,0.389-1.025,0-1.414l-1.586-1.586c-0.389-0.389-1.025-0.389-1.414,0L15,15.902L7.707,8.707z"/>
</svg>
