<?xml version="1.0" encoding="utf-8"?>
<!-- Generator: Adobe Illustrator 17.1.0, SVG Export Plug-In . SVG Version: 6.00 Build 0)  -->
<!DOCTYPE svg PUBLIC "-//W3C//DTD SVG 1.1//EN" "http://www.w3.org/Graphics/SVG/1.1/DTD/svg11.dtd">
<svg version="1.1"
	 id="svg2" xmlns:dc="http://purl.org/dc/elements/1.1/" xmlns:cc="http://creativecommons.org/ns#" xmlns:svg="http://www.w3.org/2000/svg" xmlns:rdf="http://www.w3.org/1999/02/22-rdf-syntax-ns#" xmlns:sodipodi="http://sodipodi.sourceforge.net/DTD/sodipodi-0.dtd" xmlns:inkscape="http://www.inkscape.org/namespaces/inkscape" inkscape:version="0.48.2 r9819" sodipodi:docname="release-refresh-inverse.svg"
	 xmlns="http://www.w3.org/2000/svg" xmlns:xlink="http://www.w3.org/1999/xlink" x="0px" y="0px" width="30px" height="30px"
	 viewBox="0 0 30 30" enable-background="new 0 0 30 30" xml:space="preserve">
<sodipodi:namedview  objecttolerance="10" guidetolerance="10" bordercolor="#666666" showgrid="false" borderopacity="1" inkscape:cy="15" gridtolerance="10" inkscape:zoom="7.8666667" pagecolor="#ffffff" inkscape:cx="15" id="namedview17" inkscape:current-layer="svg2" inkscape:window-maximized="0" inkscape:window-y="0" inkscape:window-x="0" inkscape:window-height="480" inkscape:window-width="640" inkscape:pageshadow="2" inkscape:pageopacity="0">
	</sodipodi:namedview>
<path id="path6_1_" inkscape:connector-curvature="0" fill-opacity="0.3" d="M22.293,20.292c0.389,0.389,1.025,0.389,1.414,0
	l1.586-1.586c0.389-0.389,0.389-1.025,0-1.414l-9.586-9.586c-0.389-0.389-1.025-0.389-1.414,0l-9.586,9.586
	c-0.389,0.389-0.389,1.025,0,1.414l1.586,1.586c0.389,0.389,1.025,0.389,1.414,0L15,13.097L22.293,20.292z"/>
<rect id="rect8" fill="none" width="30" height="30"/>
<path fill-opacity="0.15" d="M15,7.415c0.535,0,1.037,0.207,1.414,0.583L26,17.585c0.78,0.78,0.78,2.048,0,2.828l-1.586,1.586
	c-0.377,0.377-0.879,0.585-1.414,0.585s-1.037-0.208-1.414-0.585L15,15.502l-6.591,6.502c-0.371,0.372-0.874,0.58-1.409,0.58
	s-1.038-0.208-1.415-0.585L4,20.413c-0.779-0.78-0.779-2.048-0.001-2.828l9.587-9.586C13.963,7.622,14.465,7.415,15,7.415z"/>
<path id="path6_2_" inkscape:connector-curvature="0" fill="#FFFFFF" d="M22.293,21.293c0.389,0.389,1.025,0.389,1.414,0
	l1.586-1.586c0.389-0.389,0.389-1.025,0-1.414l-9.586-9.586c-0.389-0.389-1.025-0.389-1.414,0l-9.586,9.586
	c-0.389,0.389-0.389,1.025,0,1.414l1.586,1.586c0.389,0.389,1.025,0.389,1.414,0L15,14.098L22.293,21.293z"/>
</svg>
