<?xml version="1.0" encoding="utf-8"?>
<!-- Generator: Adobe Illustrator 17.1.0, SVG Export Plug-In . SVG Version: 6.00 Build 0)  -->
<!DOCTYPE svg PUBLIC "-//W3C//DTD SVG 1.1//EN" "http://www.w3.org/Graphics/SVG/1.1/DTD/svg11.dtd">
<svg version="1.1" id="图层_1" xmlns="http://www.w3.org/2000/svg" xmlns:xlink="http://www.w3.org/1999/xlink" x="0px" y="0px"
	 width="100px" height="100px" viewBox="0 0 100 100" enable-background="new 0 0 100 100" xml:space="preserve">
<path opacity="0.5" fill="#787878" d="M50,90.909c-27.807,0-38.636-10.832-38.636-38.636S22.193,13.636,50,13.636
	c27.802,0,38.636,10.832,38.636,38.636S77.802,90.909,50,90.909z"/>
<rect fill="none" width="100" height="100"/>
<path fill="#FFFFFF" d="M48.172,47.367c1.004-1.006,2.647-1.006,3.652,0l16.228,16.23c1.006,1.004,2.649,1.004,3.654,0l1.829-1.829
	c1.006-1.007,1.006-2.65,0-3.654L51.826,36.405c-1.004-1.006-2.647-1.006-3.652,0L26.462,58.114c-1.002,1.004-1.002,2.647,0,3.654
	l1.825,1.829c1.004,1.004,2.652,1.004,3.658,0L48.172,47.367z"/>
</svg>
