<?xml version="1.0" encoding="utf-8"?>
<!-- Generator: Adobe Illustrator 17.1.0, SVG Export Plug-In . SVG Version: 6.00 Build 0)  -->
<!DOCTYPE svg PUBLIC "-//W3C//DTD SVG 1.1//EN" "http://www.w3.org/Graphics/SVG/1.1/DTD/svg11.dtd" [
	<!ENTITY ns_extend "http://ns.adobe.com/Extensibility/1.0/">
	<!ENTITY ns_ai "http://ns.adobe.com/AdobeIllustrator/10.0/">
	<!ENTITY ns_graphs "http://ns.adobe.com/Graphs/1.0/">
	<!ENTITY ns_vars "http://ns.adobe.com/Variables/1.0/">
	<!ENTITY ns_imrep "http://ns.adobe.com/ImageReplacement/1.0/">
	<!ENTITY ns_sfw "http://ns.adobe.com/SaveForWeb/1.0/">
	<!ENTITY ns_custom "http://ns.adobe.com/GenericCustomNamespace/1.0/">
	<!ENTITY ns_adobe_xpath "http://ns.adobe.com/XPath/1.0/">
]>
<svg version="1.1" id="图层_1" xmlns:x="&ns_extend;" xmlns:i="&ns_ai;" xmlns:graph="&ns_graphs;"
	 xmlns="http://www.w3.org/2000/svg" xmlns:xlink="http://www.w3.org/1999/xlink" x="0px" y="0px" width="30px" height="30px"
	 viewBox="0 0 30 30" enable-background="new 0 0 30 30" xml:space="preserve">
<metadata>
</metadata>
<path opacity="0.15" enable-background="new    " d="M14.292,27.199c-1.236,0-3.185-0.079-5.826-0.764
	c-1.288-0.334-2.429-0.783-3.392-1.334l-0.608-0.349l0.143-0.82c0.336-1.348,1.655-2.039,1.804-2.113
	c1.547-0.909,3.121-1.524,3.187-1.55c0.747-0.299,1.223-0.823,1.406-1.558c0.064-0.257,0.106-0.445,0.127-0.574
	c-0.693-0.749-1.086-1.881-1.274-2.566c-0.548-0.343-0.721-1.144-0.846-1.72C8.98,13.7,8.953,13.559,8.92,13.461
	c-0.24-0.77-0.285-1.201-0.263-1.471c-0.003-0.356,0.082-0.659,0.254-0.902C8.746,10.5,8.692,10.025,8.71,9.467
	c0.009-0.267-0.008-0.5-0.023-0.724c-0.074-1.1-0.045-2.009,1.013-3.705c0.154-0.266,0.493-0.59,0.973-0.737
	c0.012-0.024,0.024-0.049,0.038-0.074c0.166-0.315,0.546-1.039,1.655-1.039c0.112,0,0.237,0.007,0.376,0.024
	c0.015-0.006,0.131-0.053,0.217-0.087c0.322-0.129,0.81-0.324,1.538-0.324c0.558,0,1.174,0.112,1.885,0.342l0.878,0.28
	c1.764,0.559,2.423,0.768,2.971,1.591c1.194,1.794,1.245,2.617,1.187,3.758c-0.009,0.171-0.019,0.354-0.02,0.56
	c0,0.559-0.095,1.005-0.187,1.438c-0.015,0.072-0.03,0.143-0.045,0.214c0.011,0.011,0.021,0.022,0.031,0.033
	c0.186,0.21,0.391,0.59,0.314,1.204c-0.012,0.072-0.104,0.544-0.327,1.262c-0.031,0.099-0.062,0.213-0.095,0.335
	c-0.176,0.646-0.403,1.484-1.013,1.795c-0.191,0.682-0.582,1.773-1.263,2.52c0.017,0.108,0.051,0.277,0.117,0.542
	c0.039,0.111,0.431,0.966,1.079,1.411c0.089,0.055,0.222,0.123,0.372,0.181c0.071,0.027,1.646,0.644,3.254,1.584
	c0.092,0.044,1.405,0.734,1.724,2.012l0.197,0.993l-0.636,0.354c-0.923,0.515-1.952,0.916-3.146,1.226
	c-2.642,0.685-4.594,0.764-5.832,0.764c-0.305,0-0.585-0.006-0.843-0.011C14.882,27.194,14.599,27.199,14.292,27.199z"/>
<path opacity="0.3" enable-background="new    " d="M24.389,23.105c-0.216-0.867-1.258-1.39-1.258-1.39
	c-1.558-0.911-3.106-1.513-3.106-1.513c-0.217-0.083-0.407-0.182-0.58-0.29c-0.951-0.653-1.438-1.816-1.485-1.994
	c-0.134-0.536-0.252-1.103-0.062-1.284c0.962-0.834,1.345-2.818,1.345-2.818c0.026-0.077,0.049-0.15,0.077-0.218
	c0.472,0.578,0.714-0.784,0.91-1.41c0.204-0.658,0.29-1.089,0.29-1.089c0.083-0.67-0.426-0.472-0.426-0.472l-0.039,0.044
	c0.074-0.933,0.343-1.502,0.343-2.342c0.006-1.298,0.325-1.77-0.999-3.759c-0.41-0.616-0.977-0.717-3.324-1.474
	c-2.341-0.758-2.674,0.202-3.452,0.11c-0.777-0.094-0.883,0.223-1.034,0.503c-0.151,0.275,0,0.497-0.423,0.516
	c-0.427,0.018-0.616,0.343-0.616,0.343C9.284,6.595,9.753,7.203,9.709,8.5c-0.022,0.687,0.087,1.202,0.447,2.153L10.117,10.6
	c0,0-0.495-0.233-0.458,0.439c0,0-0.069,0.21,0.212,1.111c0.169,0.517,0.298,1.956,0.78,1.5c0.015,0.053,0.038,0.111,0.055,0.164
	c0,0,0.379,1.984,1.342,2.818c0.195,0.182,0.071,0.749-0.062,1.284c-0.055,0.205-0.329,1.608-2.024,2.284
	c0,0-1.547,0.602-3.102,1.513c0,0-1.048,0.523-1.266,1.39l-0.022,0.13c0.885,0.506,1.93,0.918,3.146,1.234
	c2.97,0.769,5.017,0.75,6.404,0.72c1.386,0.03,3.43,0.049,6.402-0.72c1.126-0.292,2.085-0.67,2.912-1.131L24.389,23.105z"/>
<g id="DO_NOT_EDIT_-_BOUNDING_BOX">
	<rect id="BOUNDING_BOX" fill="none" width="30" height="30"/>
</g>
<path fill="#FFFFFF" d="M24.389,24.105c-0.216-0.867-1.258-1.39-1.258-1.39c-1.558-0.911-3.106-1.513-3.106-1.513
	c-0.217-0.083-0.407-0.182-0.58-0.29c-0.951-0.653-1.438-1.816-1.485-1.994c-0.134-0.536-0.252-1.103-0.062-1.284
	c0.962-0.834,1.345-2.818,1.345-2.818c0.026-0.077,0.049-0.15,0.077-0.218c0.472,0.578,0.714-0.784,0.91-1.41
	c0.204-0.658,0.29-1.089,0.29-1.089c0.083-0.67-0.426-0.472-0.426-0.472l-0.039,0.044c0.074-0.933,0.343-1.502,0.343-2.342
	c0.006-1.298,0.325-1.77-0.999-3.759c-0.41-0.616-0.977-0.717-3.324-1.474c-2.341-0.758-2.674,0.202-3.452,0.11
	c-0.777-0.094-0.883,0.223-1.034,0.503c-0.151,0.275,0,0.497-0.423,0.516c-0.427,0.018-0.616,0.343-0.616,0.343
	C9.284,7.595,9.753,8.203,9.709,9.5c-0.022,0.687,0.087,1.202,0.447,2.153L10.117,11.6c0,0-0.495-0.233-0.458,0.439
	c0,0-0.069,0.21,0.212,1.111c0.169,0.517,0.298,1.956,0.78,1.5c0.015,0.053,0.038,0.111,0.055,0.164c0,0,0.379,1.984,1.342,2.818
	c0.195,0.182,0.071,0.749-0.062,1.284c-0.055,0.205-0.329,1.608-2.024,2.284c0,0-1.547,0.602-3.102,1.513
	c0,0-1.048,0.523-1.266,1.39l-0.022,0.13c0.885,0.506,1.93,0.918,3.146,1.234c2.97,0.769,5.017,0.75,6.404,0.72
	c1.386,0.03,3.43,0.049,6.402-0.72c1.126-0.292,2.085-0.67,2.912-1.131L24.389,24.105z"/>
<rect fill="none" width="30" height="30"/>
</svg>
