<?xml version="1.0" encoding="utf-8"?>
<!-- Generator: Adobe Illustrator 17.1.0, SVG Export Plug-In . SVG Version: 6.00 Build 0)  -->
<!DOCTYPE svg PUBLIC "-//W3C//DTD SVG 1.1//EN" "http://www.w3.org/Graphics/SVG/1.1/DTD/svg11.dtd" [
	<!ENTITY ns_extend "http://ns.adobe.com/Extensibility/1.0/">
	<!ENTITY ns_ai "http://ns.adobe.com/AdobeIllustrator/10.0/">
	<!ENTITY ns_graphs "http://ns.adobe.com/Graphs/1.0/">
	<!ENTITY ns_vars "http://ns.adobe.com/Variables/1.0/">
	<!ENTITY ns_imrep "http://ns.adobe.com/ImageReplacement/1.0/">
	<!ENTITY ns_sfw "http://ns.adobe.com/SaveForWeb/1.0/">
	<!ENTITY ns_custom "http://ns.adobe.com/GenericCustomNamespace/1.0/">
	<!ENTITY ns_adobe_xpath "http://ns.adobe.com/XPath/1.0/">
]>
<svg version="1.1" id="图层_1" xmlns:x="&ns_extend;" xmlns:i="&ns_ai;" xmlns:graph="&ns_graphs;"
	 xmlns="http://www.w3.org/2000/svg" xmlns:xlink="http://www.w3.org/1999/xlink" x="0px" y="0px" width="30px" height="30px"
	 viewBox="0 0 30 30" enable-background="new 0 0 30 30" xml:space="preserve">
<metadata>
	<sfw  xmlns="&ns_sfw;">
		<slices></slices>
		<sliceSourceBounds  height="30" width="30" x="184" y="86" bottomLeftOrigin="true"></sliceSourceBounds>
	</sfw>
</metadata>
<path fill="#FFFFFF" d="M24.389,25.105c-0.216-0.867-1.258-1.39-1.258-1.39c-1.558-0.911-3.106-1.513-3.106-1.513
	c-0.217-0.083-0.407-0.182-0.58-0.29c-0.951-0.653-1.438-1.816-1.485-1.994c-0.134-0.536-0.252-1.103-0.062-1.284
	c0.962-0.834,1.345-2.818,1.345-2.818c0.026-0.077,0.049-0.15,0.077-0.218c0.472,0.578,0.714-0.784,0.91-1.41
	c0.204-0.658,0.29-1.089,0.29-1.089c0.083-0.67-0.426-0.472-0.426-0.472l-0.039,0.044c0.074-0.933,0.343-1.502,0.343-2.342
	c0.006-1.298,0.325-1.77-0.999-3.759c-0.41-0.616-0.977-0.717-3.324-1.474c-2.341-0.758-2.674,0.202-3.452,0.11
	c-0.777-0.094-0.883,0.223-1.034,0.503c-0.151,0.275,0,0.497-0.423,0.516c-0.427,0.018-0.616,0.343-0.616,0.343
	C9.284,8.595,9.753,9.203,9.709,10.5c-0.022,0.687,0.087,1.202,0.447,2.153L10.117,12.6c0,0-0.495-0.233-0.458,0.439
	c0,0-0.069,0.21,0.212,1.111c0.169,0.517,0.298,1.956,0.78,1.5c0.015,0.053,0.038,0.111,0.055,0.164c0,0,0.379,1.984,1.342,2.818
	c0.195,0.182,0.071,0.749-0.062,1.284c-0.055,0.205-0.329,1.608-2.024,2.284c0,0-1.547,0.602-3.102,1.513
	c0,0-1.048,0.523-1.266,1.39l-0.022,0.13c0.885,0.506,1.93,0.918,3.146,1.234c2.97,0.769,5.017,0.75,6.404,0.72
	c1.386,0.03,3.43,0.049,6.402-0.72c1.126-0.292,2.085-0.67,2.912-1.131L24.389,25.105z"/>
<g id="DO_NOT_EDIT_-_BOUNDING_BOX">
	<rect id="BOUNDING_BOX" fill="none" width="30" height="30"/>
</g>
<linearGradient id="SVGID_1_" gradientUnits="userSpaceOnUse" x1="15.003" y1="26.1988" x2="15.003" y2="3.8018">
	<stop  offset="0" style="stop-color:#636363"/>
	<stop  offset="1" style="stop-color:#000000"/>
</linearGradient>
<path fill="url(#SVGID_1_)" d="M24.389,24.105c-0.216-0.867-1.258-1.39-1.258-1.39c-1.558-0.911-3.106-1.513-3.106-1.513
	c-0.217-0.083-0.407-0.182-0.58-0.29c-0.951-0.653-1.438-1.816-1.485-1.994c-0.134-0.536-0.252-1.103-0.062-1.284
	c0.962-0.834,1.345-2.818,1.345-2.818c0.026-0.077,0.049-0.15,0.077-0.218c0.472,0.578,0.714-0.784,0.91-1.41
	c0.204-0.658,0.29-1.089,0.29-1.089c0.083-0.67-0.426-0.472-0.426-0.472l-0.039,0.044c0.074-0.933,0.343-1.502,0.343-2.342
	c0.006-1.298,0.325-1.77-0.999-3.759c-0.41-0.616-0.977-0.717-3.324-1.474c-2.341-0.758-2.674,0.202-3.452,0.11
	c-0.777-0.094-0.883,0.223-1.034,0.503c-0.151,0.275,0,0.497-0.423,0.516c-0.427,0.018-0.616,0.343-0.616,0.343
	C9.284,7.595,9.753,8.203,9.709,9.5c-0.022,0.687,0.087,1.202,0.447,2.153L10.117,11.6c0,0-0.495-0.233-0.458,0.439
	c0,0-0.069,0.21,0.212,1.111c0.169,0.517,0.298,1.956,0.78,1.5c0.015,0.053,0.038,0.111,0.055,0.164c0,0,0.379,1.984,1.342,2.818
	c0.195,0.182,0.071,0.749-0.062,1.284c-0.055,0.205-0.329,1.608-2.024,2.284c0,0-1.547,0.602-3.102,1.513
	c0,0-1.048,0.523-1.266,1.39l-0.022,0.13c0.885,0.506,1.93,0.918,3.146,1.234c2.97,0.769,5.017,0.75,6.404,0.72
	c1.386,0.03,3.43,0.049,6.402-0.72c1.126-0.292,2.085-0.67,2.912-1.131L24.389,24.105z"/>
<rect fill="none" width="30" height="30"/>
</svg>
