<?xml version="1.0" encoding="utf-8"?>
<!-- Generator: Adobe Illustrator 17.1.0, SVG Export Plug-In . SVG Version: 6.00 Build 0)  -->
<!DOCTYPE svg PUBLIC "-//W3C//DTD SVG 1.1//EN" "http://www.w3.org/Graphics/SVG/1.1/DTD/svg11.dtd">
<svg version="1.1" id="图层_1" xmlns="http://www.w3.org/2000/svg" xmlns:xlink="http://www.w3.org/1999/xlink" x="0px" y="0px"
	 width="96px" height="96px" viewBox="0 0 96 96" enable-background="new 0 0 96 96" xml:space="preserve">
<rect fill="none" width="96" height="96"/>
<path fill-opacity="0.4" d="M88,49c0,29.6-10.4,40-40,40S8,78.6,8,49S18.4,9,48,9C77.7,9,88,19.4,88,49z"/>
<linearGradient id="SVGID_1_" gradientUnits="userSpaceOnUse" x1="25.6602" y1="113.96" x2="25.6602" y2="193.96" gradientTransform="matrix(1 0 0 1 22.3398 -105.96)">
	<stop  offset="0" style="stop-color:#FAFAFA"/>
	<stop  offset="0.3317" style="stop-color:#F1F1F1"/>
	<stop  offset="0.8711" style="stop-color:#D9D9D9"/>
	<stop  offset="1" style="stop-color:#D2D2D2"/>
</linearGradient>
<path fill="url(#SVGID_1_)" d="M8,48c0,29.6,10.4,40,40,40s40-10.4,40-40c0-29-9.9-39.5-38.1-40h-3.8C17.9,8.5,8,19,8,48z"/>
<linearGradient id="SVGID_2_" gradientUnits="userSpaceOnUse" x1="25.6602" y1="113.96" x2="25.6602" y2="193.96" gradientTransform="matrix(1 0 0 1 22.3398 -105.96)">
	<stop  offset="0" style="stop-color:#FFFFFF"/>
	<stop  offset="0.2292" style="stop-color:#FBFBFB"/>
	<stop  offset="0.4667" style="stop-color:#F0EFEE"/>
	<stop  offset="0.7079" style="stop-color:#DCDBDA"/>
	<stop  offset="0.9504" style="stop-color:#C1C0BD"/>
	<stop  offset="1" style="stop-color:#BBB9B6"/>
</linearGradient>
<path fill="url(#SVGID_2_)" fill-opacity="0.8" d="M48,8C18.4,8,8,18.4,8,48s10.4,40,40,40s40-10.4,40-40S77.6,8,48,8z M48,87
	C18.8,87,9,77.2,9,48S18.8,9,48,9s39,9.8,39,39S77.2,87,48,87z"/>
<path opacity="0.5" fill="#FFFFFF" enable-background="new    " d="M69.424,71.48c-0.145,0-0.292-0.03-0.43-0.092l-4.321-1.96
	c-1.875,0.594-3.839,0.895-5.839,0.895c-9.268,0-16.809-6.442-16.809-14.361S49.565,41.6,58.832,41.6
	c9.269,0,16.81,6.442,16.81,14.361c0,4.297-2.206,8.303-6.065,11.041l0.851,3.167c0.105,0.389-0.024,0.803-0.331,1.064
	C69.906,71.395,69.666,71.48,69.424,71.48z M64.179,49.723c-0.893,0-1.62,0.727-1.62,1.622c0,0.893,0.726,1.621,1.62,1.621
	s1.622-0.727,1.622-1.621C65.801,50.451,65.073,49.723,64.179,49.723z M53.437,49.684c-0.895,0-1.623,0.725-1.623,1.619
	c0,0.895,0.727,1.623,1.623,1.623c0.894,0,1.622-0.727,1.622-1.623C55.058,50.409,54.331,49.684,53.437,49.684z M27.672,62.985
	c-0.242,0-0.482-0.084-0.674-0.248c-0.307-0.261-0.435-0.676-0.33-1.064l1.134-4.196c-4.736-3.338-7.444-8.231-7.444-13.478
	c0-9.637,9.183-17.478,20.472-17.478c9.22,0,17.343,5.303,19.754,12.897c0.103,0.324,0.041,0.678-0.166,0.948
	c-0.197,0.258-0.503,0.407-0.826,0.407c-0.015,0-0.03-0.001-0.046-0.001c-0.237-0.011-0.473-0.018-0.713-0.018
	c-9.737,0-17.658,6.823-17.658,15.21c0.002,1.387,0.231,2.781,0.684,4.141c0.105,0.317,0.052,0.666-0.144,0.937
	s-0.51,0.432-0.844,0.432c-2.495,0-4.904-0.372-7.203-1.104l-5.567,2.523C27.964,62.954,27.818,62.985,27.672,62.985z M34.279,36.25
	c-1.156,0-2.096,0.939-2.096,2.093c0,1.156,0.94,2.096,2.096,2.096c1.155,0,2.095-0.94,2.095-2.096
	C36.374,37.189,35.434,36.25,34.279,36.25z M47.437,36.198c-1.155,0-2.094,0.939-2.094,2.094c0,1.156,0.939,2.096,2.094,2.096
	c1.153,0,2.092-0.94,2.092-2.096C49.528,37.138,48.59,36.198,47.437,36.198z"/>
<path opacity="0.5" fill="#FFFFFF" enable-background="new    " d="M64.932,68.402c-0.072-0.033-0.15-0.05-0.228-0.05
	c-0.058,0-0.116,0.009-0.172,0.027c-1.828,0.599-3.745,0.903-5.698,0.903c-8.695,0-15.768-5.975-15.768-13.32
	c0-7.346,7.072-13.322,15.766-13.322c8.697,0,15.77,5.975,15.77,13.321c0,4.052-2.149,7.835-5.895,10.38
	c-0.194,0.133-0.284,0.374-0.222,0.601l0.939,3.497L64.932,68.402z M64.179,48.684c-1.466,0-2.66,1.194-2.66,2.661
	c0,1.468,1.193,2.661,2.66,2.661c1.469,0,2.663-1.193,2.663-2.661S65.647,48.684,64.179,48.684z M53.437,48.643
	c-1.469,0-2.663,1.193-2.663,2.66c0,1.469,1.194,2.663,2.663,2.663c1.468,0,2.662-1.194,2.662-2.663
	C56.098,49.836,54.904,48.643,53.437,48.643z M28.896,57.416c0.061-0.228-0.028-0.47-0.223-0.601
	c-4.623-3.142-7.274-7.814-7.274-12.816c0-9.064,8.717-16.438,19.431-16.438c8.76,0,16.509,5.075,18.762,12.171
	c-0.252-0.011-0.503-0.019-0.759-0.019c-10.31,0-18.698,7.29-18.698,16.25c0.002,1.504,0.249,3.004,0.736,4.47
	c-0.014,0-0.029,0-0.043,0c-2.408,0-4.769-0.374-7.017-1.111c-0.056-0.018-0.114-0.027-0.172-0.027c-0.078,0-0.156,0.016-0.228,0.05
	l-5.738,2.6L28.896,57.416z M34.279,35.209c-1.729,0-3.136,1.406-3.136,3.134c0,1.729,1.407,3.136,3.136,3.136
	c1.728,0,3.135-1.407,3.135-3.136C37.414,36.615,36.008,35.209,34.279,35.209z M47.437,35.158c-1.728,0-3.135,1.407-3.135,3.135
	c0,1.729,1.407,3.136,3.135,3.136c1.727,0,3.132-1.407,3.132-3.136C50.568,36.564,49.164,35.158,47.437,35.158z"/>
<linearGradient id="SVGID_3_" gradientUnits="userSpaceOnUse" x1="286.2808" y1="1459.9791" x2="286.2808" y2="1417.1001" gradientTransform="matrix(1 0 0 1 -238.2803 -1390.5801)">
	<stop  offset="0" style="stop-color:#15D50A"/>
	<stop  offset="1" style="stop-color:#18AC0A"/>
</linearGradient>
<path fill="url(#SVGID_3_)" d="M64.932,67.362c-0.072-0.033-0.15-0.05-0.228-0.05c-0.058,0-0.116,0.009-0.172,0.027
	c-1.828,0.599-3.745,0.903-5.698,0.903c-8.695,0-15.768-5.975-15.768-13.32c0-7.346,7.072-13.322,15.766-13.322
	c8.697,0,15.77,5.975,15.77,13.321c0,4.052-2.149,7.835-5.895,10.38c-0.194,0.133-0.284,0.374-0.222,0.601l0.939,3.497
	L64.932,67.362z M64.179,47.643c-1.466,0-2.66,1.194-2.66,2.661c0,1.468,1.193,2.661,2.66,2.661c1.469,0,2.663-1.193,2.663-2.661
	C66.842,48.837,65.647,47.643,64.179,47.643z M53.437,47.603c-1.469,0-2.663,1.193-2.663,2.66c0,1.469,1.194,2.663,2.663,2.663
	c1.468,0,2.662-1.194,2.662-2.663C56.098,48.796,54.904,47.603,53.437,47.603z M28.896,56.375c0.061-0.228-0.028-0.47-0.223-0.601
	c-4.623-3.142-7.274-7.814-7.274-12.816c0-9.064,8.717-16.438,19.431-16.438c8.76,0,16.509,5.075,18.762,12.171
	c-0.252-0.011-0.503-0.019-0.759-0.019c-10.31,0-18.698,7.29-18.698,16.25c0.002,1.504,0.249,3.004,0.736,4.47
	c-0.014,0-0.029,0-0.043,0c-2.408,0-4.769-0.374-7.017-1.111c-0.056-0.018-0.114-0.027-0.172-0.027c-0.078,0-0.156,0.016-0.228,0.05
	l-5.738,2.6L28.896,56.375z M34.279,34.169c-1.729,0-3.136,1.406-3.136,3.134c0,1.729,1.407,3.136,3.136,3.136
	c1.728,0,3.135-1.407,3.135-3.136C37.414,35.575,36.008,34.169,34.279,34.169z M47.437,34.117c-1.728,0-3.135,1.407-3.135,3.135
	c0,1.729,1.407,3.136,3.135,3.136c1.727,0,3.132-1.407,3.132-3.136C50.568,35.524,49.164,34.117,47.437,34.117z"/>
<g opacity="0.04">
	<path d="M64.179,56.087c1.469,0,2.663-1.193,2.663-2.661c0-0.585-0.195-1.121-0.516-1.561c-0.485,0.664-1.263,1.1-2.147,1.1
		c-0.882,0-1.66-0.437-2.144-1.1c-0.321,0.44-0.516,0.976-0.516,1.561C61.519,54.893,62.712,56.087,64.179,56.087z"/>
	<path d="M45.993,43.141c1.351-1.112,2.891-2.047,4.575-2.772c-0.001-0.569-0.165-1.095-0.431-1.555
		c-0.542,0.937-1.543,1.575-2.7,1.575c-1.158,0-2.16-0.638-2.703-1.575c-0.268,0.461-0.432,0.99-0.432,1.56
		C44.302,41.579,44.993,42.616,45.993,43.141z"/>
	<path d="M59.592,41.813c-0.252-0.011-0.503-0.019-0.759-0.019c-2.409,0-4.705,0.411-6.821,1.135
		c-5.283,2.154-8.946,6.713-8.946,11.992c0,0.529,0.047,1.048,0.118,1.561c0.919-6.612,7.58-11.761,15.648-11.761
		c8.079,0,14.747,5.158,15.656,11.778c0.073-0.521,0.115-1.047,0.115-1.579c0-7.148-6.703-12.982-15.078-13.291
		C59.544,41.692,59.572,41.751,59.592,41.813z"/>
	<path d="M53.437,56.047c1.467,0,2.662-1.194,2.662-2.663c0-0.584-0.195-1.12-0.516-1.56c-0.485,0.664-1.263,1.101-2.146,1.101
		c-0.884,0-1.662-0.437-2.147-1.101c-0.321,0.439-0.516,0.975-0.516,1.56C50.774,54.852,51.968,56.047,53.437,56.047z"/>
	<path d="M40.829,29.642c7.413,0,14.089,3.642,17.336,9.06c0.223-0.007,0.442-0.029,0.667-0.029c0.256,0,0.508,0.008,0.759,0.019
		c-2.254-7.096-10.003-12.171-18.762-12.171c-10.714,0-19.431,7.374-19.431,16.437c0,0.525,0.036,1.045,0.093,1.561
		C22.424,36.185,30.737,29.642,40.829,29.642z"/>
	<path d="M68.707,68.422c-0.18,0.123-0.257,0.34-0.22,0.552l0.937,0.425l-0.34-1.264C68.955,68.228,68.84,68.331,68.707,68.422z"/>
	<path d="M28.673,58.895c-0.131-0.089-0.255-0.184-0.383-0.276l-0.617,2.285l0.961-0.435l0.263-0.972
		C28.957,59.269,28.868,59.027,28.673,58.895z"/>
	<path d="M40.134,58.044c0,0.442,0.029,0.883,0.072,1.324c0.208,0.006,0.414,0.024,0.622,0.024c0.014,0,0.029,0,0.043,0
		c-0.324-0.975-0.532-1.967-0.642-2.964C40.168,56.961,40.134,57.499,40.134,58.044z"/>
	<path d="M34.279,43.56c1.728,0,3.135-1.407,3.135-3.136c0-0.571-0.165-1.099-0.432-1.56c-0.543,0.936-1.545,1.575-2.702,1.575
		c-1.158,0-2.16-0.638-2.703-1.575c-0.268,0.461-0.432,0.989-0.432,1.56C31.143,42.153,32.55,43.56,34.279,43.56z"/>
</g>
<g opacity="0.04">
	<path d="M64.179,45.562c-2.614,0-4.741,2.128-4.741,4.742c0,2.614,2.127,4.742,4.741,4.742c2.615,0,4.743-2.128,4.743-4.742
		S66.795,45.562,64.179,45.562z M64.179,52.965c-1.466,0-2.66-1.193-2.66-2.661c0-1.467,1.193-2.661,2.66-2.661
		c1.469,0,2.663,1.194,2.663,2.661C66.842,51.772,65.648,52.965,64.179,52.965z"/>
	<path d="M53.437,45.522c-2.615,0-4.744,2.127-4.744,4.74c0,2.615,2.129,4.744,4.744,4.744s4.743-2.129,4.743-4.744
		C58.18,47.648,56.052,45.522,53.437,45.522z M53.437,52.925c-1.469,0-2.663-1.194-2.663-2.663c0-1.466,1.194-2.66,2.663-2.66
		c1.467,0,2.662,1.193,2.662,2.66C56.098,51.731,54.904,52.925,53.437,52.925z"/>
	<path d="M34.279,32.088c-2.876,0-5.216,2.339-5.216,5.214c0,2.876,2.34,5.217,5.216,5.217c2.875,0,5.215-2.34,5.215-5.217
		C39.495,34.427,37.155,32.088,34.279,32.088z M34.279,40.438c-1.729,0-3.136-1.407-3.136-3.136c0-1.728,1.407-3.134,3.136-3.134
		c1.728,0,3.135,1.406,3.135,3.134C37.414,39.032,36.008,40.438,34.279,40.438z"/>
	<path d="M58.833,38.673c0.256,0,0.508,0.008,0.759,0.019c-2.254-7.096-10.003-12.171-18.762-12.171
		c-10.714,0-19.431,7.374-19.431,16.437c0,5.002,2.652,9.673,7.274,12.816c0.195,0.132,0.284,0.374,0.223,0.601l-1.223,4.529
		l5.738-2.6c0.072-0.033,0.15-0.05,0.228-0.05c0.058,0,0.116,0.009,0.172,0.027c2.249,0.738,4.61,1.111,7.017,1.111
		c0.014,0,0.029,0,0.043,0c-0.487-1.465-0.735-2.965-0.736-4.469C40.134,45.962,48.522,38.673,58.833,38.673z M47.437,40.388
		c-1.728,0-3.135-1.407-3.135-3.136c0-1.728,1.407-3.135,3.135-3.135c1.727,0,3.132,1.407,3.132,3.135
		C50.568,38.982,49.164,40.388,47.437,40.388z M34.459,56.304c-0.274-0.088-0.547-0.131-0.821-0.131c-0.381,0-0.75,0.08-1.095,0.239
		l-1.712,0.775l0.073-0.269c0.292-1.088-0.137-2.238-1.065-2.867c-4.041-2.747-6.36-6.791-6.36-11.093
		c0-7.916,7.783-14.357,17.35-14.357c6.616,0,12.728,3.286,15.601,8.113c-1.301,0.133-2.567,0.372-3.784,0.707
		c0.002-0.056,0.003-0.112,0.003-0.169c0-2.876-2.338-5.215-5.212-5.215c-2.876,0-5.216,2.339-5.216,5.215
		c0,1.817,0.934,3.42,2.346,4.354c-4.008,3.344-6.514,8.077-6.514,13.317c0.001,0.743,0.054,1.484,0.159,2.223
		C36.926,56.984,35.674,56.703,34.459,56.304z"/>
	<path d="M74.602,54.921c0-7.345-7.073-13.321-15.77-13.321c-8.694,0-15.766,5.976-15.766,13.322c0,7.345,7.073,13.32,15.768,13.32
		c1.953,0,3.87-0.303,5.698-0.903c0.056-0.018,0.113-0.027,0.172-0.027c0.078,0,0.155,0.016,0.228,0.05l4.492,2.037l-0.939-3.497
		c-0.062-0.228,0.028-0.469,0.222-0.601C72.453,62.756,74.602,58.972,74.602,54.921z M67.537,63.579
		c-0.727,0.499-1.145,1.311-1.153,2.157l-0.593-0.269c-0.33-0.153-0.702-0.236-1.087-0.236c-0.278,0-0.554,0.044-0.819,0.13
		c-1.618,0.531-3.316,0.8-5.051,0.8c-7.547,0-13.688-5.042-13.688-11.239s6.14-11.24,13.686-11.24
		c7.548,0,13.689,5.042,13.689,11.239C72.521,58.272,70.704,61.428,67.537,63.579z"/>
</g>
<g opacity="0.08">
	<path d="M58.833,38.673c0.256,0,0.508,0.008,0.759,0.019c-2.254-7.096-10.003-12.171-18.762-12.171
		c-10.714,0-19.431,7.374-19.431,16.437c0,5.002,2.652,9.673,7.274,12.816c0.195,0.132,0.284,0.374,0.223,0.601l-1.223,4.529
		l5.738-2.6c0.072-0.033,0.15-0.05,0.228-0.05c0.058,0,0.116,0.009,0.172,0.027c2.249,0.738,4.61,1.111,7.017,1.111
		c0.014,0,0.029,0,0.043,0c-0.487-1.465-0.735-2.965-0.736-4.469C40.134,45.962,48.522,38.673,58.833,38.673z M47.437,40.388
		c-1.728,0-3.135-1.407-3.135-3.136c0-1.728,1.407-3.135,3.135-3.135c1.727,0,3.132,1.407,3.132,3.135
		C50.568,38.982,49.164,40.388,47.437,40.388z M34.135,57.293c-0.166-0.053-0.33-0.079-0.497-0.079
		c-0.231,0-0.453,0.049-0.662,0.144l-3.724,1.688l0.648-2.399c0.176-0.658-0.083-1.354-0.644-1.734
		c-4.332-2.944-6.818-7.302-6.818-11.954c0-8.49,8.25-15.397,18.39-15.397c7.75,0,14.621,4.081,17.257,10.084
		c-2.416,0.079-4.723,0.541-6.843,1.317c0.235-0.522,0.366-1.101,0.366-1.709c0-2.302-1.872-4.175-4.172-4.175
		c-2.302,0-4.176,1.873-4.176,4.175c0,2.023,1.446,3.715,3.359,4.096c-4.581,3.169-7.527,8.076-7.527,13.575
		c0.002,1.133,0.133,2.267,0.392,3.387C37.639,58.197,35.853,57.857,34.135,57.293z"/>
	<path d="M34.279,33.129c-2.302,0-4.176,1.873-4.176,4.174c0,2.303,1.874,4.176,4.176,4.176s4.175-1.874,4.175-4.176
		C38.454,35.001,36.582,33.129,34.279,33.129z M34.279,40.438c-1.729,0-3.136-1.407-3.136-3.136c0-1.728,1.407-3.134,3.136-3.134
		c1.728,0,3.135,1.406,3.135,3.134C37.414,39.032,36.008,40.438,34.279,40.438z"/>
	<path d="M64.179,46.603c-2.04,0-3.7,1.661-3.7,3.702s1.66,3.701,3.7,3.701c2.041,0,3.702-1.66,3.702-3.701
		C67.882,48.263,66.221,46.603,64.179,46.603z M64.179,52.965c-1.466,0-2.66-1.193-2.66-2.661c0-1.467,1.193-2.661,2.66-2.661
		c1.469,0,2.663,1.194,2.663,2.661C66.842,51.772,65.648,52.965,64.179,52.965z"/>
	<path d="M53.437,46.562c-2.042,0-3.703,1.66-3.703,3.7c0,2.042,1.661,3.703,3.703,3.703c2.041,0,3.702-1.661,3.702-3.703
		C57.139,48.222,55.478,46.562,53.437,46.562z M53.437,52.925c-1.469,0-2.663-1.194-2.663-2.663c0-1.466,1.194-2.66,2.663-2.66
		c1.467,0,2.662,1.193,2.662,2.66C56.098,51.731,54.904,52.925,53.437,52.925z"/>
	<path d="M74.602,54.921c0-7.345-7.073-13.321-15.77-13.321c-8.694,0-15.766,5.976-15.766,13.322c0,7.345,7.073,13.32,15.768,13.32
		c1.953,0,3.87-0.303,5.698-0.903c0.056-0.018,0.113-0.027,0.172-0.027c0.078,0,0.155,0.016,0.228,0.05l4.492,2.037l-0.939-3.497
		c-0.062-0.228,0.028-0.469,0.222-0.601C72.453,62.756,74.602,58.972,74.602,54.921z M68.123,64.44
		c-0.564,0.386-0.82,1.083-0.642,1.735l0.367,1.367l-2.486-1.128c-0.201-0.092-0.425-0.142-0.657-0.142
		c-0.169,0-0.335,0.026-0.495,0.079c-1.722,0.564-3.53,0.85-5.375,0.85c-8.121,0-14.728-5.509-14.728-12.28
		c0-6.772,6.606-12.281,14.726-12.281c8.122,0,14.729,5.509,14.729,12.28C73.561,58.623,71.579,62.092,68.123,64.44z"/>
</g>
<g opacity="0.02">
	<path d="M40.829,30.682c6.942,0,13.238,3.194,16.678,8.049c0.439-0.027,0.878-0.058,1.325-0.058c0.256,0,0.508,0.008,0.759,0.019
		c-2.254-7.096-10.003-12.171-18.762-12.171c-10.714,0-19.431,7.374-19.431,16.437c0,0.715,0.06,1.421,0.166,2.119
		C22.76,36.976,30.934,30.682,40.829,30.682z"/>
	<path d="M64.179,57.127c1.469,0,2.663-1.193,2.663-2.661c0-0.847-0.405-1.593-1.023-2.081c-0.453,0.358-1.018,0.58-1.64,0.58
		c-0.62,0-1.185-0.222-1.638-0.58c-0.618,0.488-1.022,1.234-1.022,2.081C61.519,55.934,62.712,57.127,64.179,57.127z"/>
	<path d="M53.437,57.087c1.467,0,2.662-1.194,2.662-2.663c0-0.846-0.405-1.592-1.023-2.08c-0.453,0.358-1.018,0.581-1.639,0.581
		s-1.186-0.223-1.64-0.581c-0.618,0.488-1.023,1.234-1.023,2.08C50.774,55.893,51.968,57.087,53.437,57.087z"/>
	<path d="M59.592,42.853c-0.252-0.011-0.503-0.019-0.759-0.019c-5.09,0-9.706,1.782-13.081,4.659
		c-1.695,2.124-2.686,4.68-2.686,7.429c0,0.71,0.085,1.401,0.212,2.081c1.188-6.358,7.7-11.241,15.554-11.241
		s14.364,4.878,15.557,11.232c0.126-0.681,0.214-1.37,0.214-2.073c0-7.26-6.913-13.171-15.471-13.308
		C59.302,42.019,59.458,42.432,59.592,42.853z"/>
	<path d="M45.325,43.716c1.459-1.328,3.171-2.437,5.072-3.277c-0.136-0.414-0.352-0.788-0.636-1.106
		c-0.574,0.642-1.399,1.055-2.325,1.055c-0.927,0-1.753-0.413-2.327-1.055c-0.497,0.555-0.808,1.279-0.808,2.08
		C44.302,42.327,44.701,43.143,45.325,43.716z"/>
	<path d="M40.134,59.085c0,0.094,0.01,0.187,0.012,0.281c0.228,0.007,0.453,0.027,0.682,0.027c0.014,0,0.029,0,0.043,0
		c-0.26-0.782-0.446-1.573-0.569-2.37C40.203,57.7,40.134,58.385,40.134,59.085z"/>
	<path d="M69.027,69.219l0.397,0.18l-0.107-0.4C69.219,69.072,69.126,69.147,69.027,69.219z"/>
	<path d="M28.054,59.491l-0.382,1.414l1.215-0.551c-0.013-0.165-0.073-0.322-0.215-0.418C28.461,59.792,28.258,59.641,28.054,59.491
		z"/>
	<path d="M34.279,44.6c1.728,0,3.135-1.407,3.135-3.136c0-0.801-0.311-1.525-0.808-2.08c-0.574,0.642-1.4,1.054-2.327,1.054
		c-0.928,0-1.753-0.412-2.328-1.054c-0.497,0.555-0.808,1.279-0.808,2.08C31.143,43.194,32.55,44.6,34.279,44.6z"/>
</g>
<g opacity="0.06">
	<path d="M64.179,55.046c1.469,0,2.663-1.193,2.663-2.661c0-0.369-0.076-0.721-0.213-1.04c-0.406,0.952-1.351,1.62-2.45,1.62
		c-1.098,0-2.042-0.669-2.447-1.62c-0.136,0.32-0.212,0.671-0.212,1.04C61.519,53.853,62.712,55.046,64.179,55.046z"/>
	<path d="M46.911,42.416c1.054-0.76,2.211-1.41,3.44-1.957c0.136-0.351,0.217-0.728,0.217-1.126c0-0.366-0.075-0.713-0.191-1.04
		c-0.431,1.217-1.58,2.095-2.941,2.095c-1.362,0-2.512-0.879-2.944-2.095c-0.116,0.327-0.191,0.674-0.191,1.04
		C44.302,40.882,45.433,42.164,46.911,42.416z"/>
	<path d="M43.066,54.922c0,0.351,0.031,0.696,0.062,1.04c0.632-6.86,7.425-12.281,15.703-12.281c8.261,0,15.043,5.394,15.705,12.229
		c0.029-0.329,0.065-0.656,0.065-0.989c0-7.345-7.073-13.321-15.77-13.321C50.138,41.6,43.066,47.576,43.066,54.922z"/>
	<path d="M53.437,55.006c1.467,0,2.662-1.194,2.662-2.663c0-0.369-0.076-0.72-0.213-1.04c-0.406,0.952-1.351,1.622-2.449,1.622
		c-1.099,0-2.044-0.669-2.45-1.622c-0.136,0.32-0.213,0.671-0.213,1.04C50.774,53.812,51.968,55.006,53.437,55.006z"/>
	<path d="M34.279,42.519c1.728,0,3.135-1.407,3.135-3.136c0-0.366-0.075-0.713-0.191-1.04c-0.431,1.216-1.582,2.095-2.944,2.095
		c-1.363,0-2.513-0.879-2.945-2.095c-0.116,0.327-0.191,0.674-0.191,1.04C31.143,41.113,32.55,42.519,34.279,42.519z"/>
	<path d="M40.829,28.602c7.868,0,14.907,4.1,17.894,10.076c0.037,0,0.072-0.005,0.109-0.005c0.256,0,0.508,0.008,0.759,0.019
		c-2.254-7.096-10.003-12.171-18.762-12.171c-10.714,0-19.431,7.374-19.431,16.437c0,0.393,0.022,0.783,0.055,1.171
		C22.016,35.489,30.478,28.602,40.829,28.602z"/>
	<path d="M68.707,67.381c-0.194,0.133-0.284,0.374-0.222,0.601l0.303,1.127l0.637,0.289l-0.572-2.128
		C68.801,67.306,68.758,67.346,68.707,67.381z"/>
	<path d="M40.134,57.004c0.001,0.793,0.074,1.584,0.211,2.37c0.161,0.003,0.321,0.019,0.483,0.019c0.014,0,0.029,0,0.043,0
		c-0.36-1.084-0.588-2.187-0.684-3.297C40.168,56.398,40.134,56.697,40.134,57.004z"/>
	<path d="M28.673,57.855c-0.051-0.034-0.098-0.072-0.148-0.106l-0.853,3.156l0.641-0.29l0.583-2.158
		C28.957,58.228,28.868,57.986,28.673,57.855z"/>
</g>
<g opacity="0.06">
	<path d="M64.179,54.006c1.469,0,2.663-1.193,2.663-2.661c0-0.178-0.019-0.352-0.053-0.52c-0.243,1.219-1.32,2.141-2.61,2.141
		c-1.288,0-2.365-0.922-2.607-2.141c-0.034,0.168-0.053,0.342-0.053,0.52C61.519,52.812,62.712,54.006,64.179,54.006z"/>
	<path d="M47.437,41.429c1.727,0,3.132-1.407,3.132-3.136c0-0.178-0.024-0.35-0.053-0.52c-0.249,1.481-1.53,2.616-3.079,2.616
		c-1.55,0-2.833-1.134-3.082-2.616c-0.029,0.17-0.053,0.342-0.053,0.52C44.302,40.022,45.709,41.429,47.437,41.429z"/>
	<path d="M40.829,27.561c8.32,0,15.718,4.581,18.372,11.121c0.13,0.003,0.261,0.004,0.391,0.01
		c-2.254-7.096-10.003-12.171-18.762-12.171c-10.714,0-19.431,7.374-19.431,16.437c0,0.224,0.012,0.447,0.022,0.67
		C21.656,34.737,30.263,27.561,40.829,27.561z"/>
	<path d="M43.066,54.922c0,0.176,0.023,0.346,0.031,0.52c0.327-7.104,7.249-12.801,15.735-12.801
		c8.479,0,15.395,5.684,15.737,12.775c0.007-0.165,0.033-0.328,0.033-0.494c0-7.345-7.073-13.321-15.77-13.321
		C50.138,41.6,43.066,47.576,43.066,54.922z"/>
	<path d="M53.437,53.966c1.468,0,2.662-1.194,2.662-2.663c0-0.178-0.019-0.352-0.053-0.52c-0.243,1.22-1.32,2.142-2.609,2.142
		c-1.29,0-2.367-0.922-2.61-2.142c-0.034,0.168-0.053,0.342-0.053,0.52C50.774,52.771,51.968,53.966,53.437,53.966z"/>
	<path d="M40.134,55.963c0.001,1.147,0.148,2.291,0.432,3.419c0.088,0.001,0.174,0.01,0.262,0.01c0.014,0,0.029,0,0.043,0
		c-0.422-1.269-0.652-2.564-0.711-3.864C40.155,55.674,40.134,55.817,40.134,55.963z"/>
	<path d="M68.484,66.942l0.621,2.312l0.318,0.144l-0.795-2.958C68.504,66.578,68.434,66.757,68.484,66.942z"/>
	<path d="M34.279,41.479c1.728,0,3.135-1.407,3.135-3.136c0-0.178-0.024-0.35-0.053-0.52c-0.25,1.481-1.532,2.615-3.082,2.615
		c-1.551,0-2.834-1.134-3.083-2.615c-0.029,0.17-0.053,0.342-0.053,0.52C31.143,40.072,32.55,41.479,34.279,41.479z"/>
	<path d="M28.75,56.913l-1.078,3.991l0.32-0.145l0.903-3.343C28.945,57.231,28.875,57.05,28.75,56.913z"/>
</g>
</svg>
